<svg width="32" height="30" viewBox="0 0 32 30" fill="none" xmlns="http://www.w3.org/2000/svg">
<path d="M31.5837 14.9858L28.127 11.0333L28.6087 5.80583L23.4945 4.64417L20.817 0.125L16.0003 2.19333L11.1837 0.125L8.50616 4.64417L3.39199 5.79167L3.87366 11.0333L0.416992 14.9858L3.87366 18.9383L3.39199 24.18L8.50616 25.3417L11.1837 29.875L16.0003 27.7925L20.817 29.8608L23.4945 25.3417L28.6087 24.18L28.127 18.9525L31.5837 14.9858ZM25.9878 17.0825L25.1945 18.0033L25.3078 19.2075L25.5628 21.97L22.8712 22.5792L21.6812 22.8483L21.0578 23.8967L19.6553 26.2767L17.1337 25.1858L16.0003 24.7042L14.8812 25.1858L12.3595 26.2767L10.957 23.9108L10.3337 22.8625L9.14366 22.5933L6.45199 21.9842L6.70699 19.2075L6.82033 18.0033L6.02699 17.0825L4.19949 15L6.02699 12.9033L6.82033 11.9825L6.69283 10.7642L6.43783 8.01583L9.12949 7.40667L10.3195 7.1375L10.9428 6.08917L12.3453 3.70917L14.867 4.8L16.0003 5.28167L17.1195 4.8L19.6412 3.70917L21.0437 6.08917L21.667 7.1375L22.857 7.40667L25.5487 8.01583L25.2937 10.7783L25.1803 11.9825L25.9737 12.9033L27.8012 14.9858L25.9878 17.0825Z" fill="white"/>
<path d="M13.2945 17.4794L10.0078 14.1786L7.91113 16.2894L13.2945 21.6869L23.6928 11.2602L21.5961 9.14941L13.2945 17.4794Z" fill="white"/>
</svg>
