<svg width="1432" height="2000" viewBox="0 0 1432 2000" fill="none" xmlns="http://www.w3.org/2000/svg">
<path d="M1425.99 1829.83V169.165C1318.09 154.219 1233 88.4307 1213.67 5H217.324C197.994 88.4307 112.906 154.226 5 169.165V1829.83C112.897 1844.78 197.994 1910.57 217.324 1994H1213.68C1233.01 1910.57 1318.09 1844.78 1426 1829.83H1425.99Z" stroke="#269E45" stroke-width="9.99" stroke-linecap="round" stroke-linejoin="round"/>
<path d="M1188.98 29.2535C1202.37 67.2352 1228.28 101.751 1264.79 129.968C1301.3 158.184 1345.96 178.201 1395.1 188.553V1810.45C1345.96 1820.79 1301.3 1840.82 1264.79 1869.04C1228.28 1897.25 1202.38 1931.76 1188.98 1969.75H242.033C228.655 1931.76 202.755 1897.25 166.238 1869.04C129.721 1840.82 85.0684 1820.8 35.9158 1810.45V188.553C85.0684 178.207 129.721 158.184 166.238 129.968C202.747 101.751 228.646 67.2352 242.033 29.2535H1188.98M1188.98 27H242.033C240.718 27 239.566 27.6817 239.223 28.6602C232.624 47.3953 222.888 65.392 210.294 82.1388C197.667 98.9297 182.156 114.483 164.18 128.371C146.203 142.258 126.078 154.252 104.352 164.011C82.6753 173.744 59.3976 181.269 35.1481 186.375C33.8821 186.64 33 187.53 33 188.547V1810.45C33 1811.46 33.8821 1812.35 35.1481 1812.62C59.3895 1817.72 82.6753 1825.24 104.352 1834.98C126.078 1844.74 146.203 1856.73 164.18 1870.62C182.148 1884.51 197.667 1900.07 210.294 1916.85C222.888 1933.61 232.624 1951.6 239.223 1970.34C239.566 1971.32 240.718 1972 242.033 1972H1188.98C1190.29 1972 1191.44 1971.32 1191.78 1970.34C1198.39 1951.6 1208.13 1933.61 1220.72 1916.85C1233.35 1900.07 1248.86 1884.51 1266.84 1870.62C1284.81 1856.73 1304.93 1844.74 1326.66 1834.98C1348.32 1825.24 1371.61 1817.72 1395.85 1812.62C1397.12 1812.35 1398 1811.46 1398 1810.45V188.553C1398 187.537 1397.12 186.647 1395.85 186.382C1371.61 181.275 1348.32 173.751 1326.66 164.017C1304.93 154.258 1284.81 142.264 1266.84 128.377C1248.87 114.49 1233.35 98.936 1220.72 82.1451C1208.13 65.3983 1198.39 47.4017 1191.78 28.6665C1191.44 27.6881 1190.29 27.0063 1188.98 27.0063V27Z" fill="#269E45"/>
<path d="M5.00817 5.00817C21.1083 21.1083 45.095 23.2413 58.5635 9.76465C45.0869 23.2413 47.2117 47.2117 63.3119 63.3118C47.2117 47.2117 23.2414 45.0787 9.76466 58.5554C23.2414 45.0787 21.1001 21.1083 5 5L5.00817 5.00817Z" stroke="#269E45" stroke-width="9.99" stroke-linecap="round" stroke-linejoin="round"/>
<path d="M63.32 63.3203C74.0262 74.0265 85.8357 96.2806 64.1046 116.402C45.4709 133.654 24.3283 125.637 14.8072 111.833C6.22588 99.3944 9.00458 85.2312 21.0674 76.7398C41.3029 62.4949 63.3772 89.4074 51.723 100.53" stroke="#269E45" stroke-width="9.99" stroke-linecap="round" stroke-linejoin="round"/>
<path d="M63.32 63.3207C74.0262 74.0269 96.2803 85.8364 116.401 64.1053C133.654 45.4717 125.636 24.329 111.833 14.8079C99.3941 6.22661 85.2309 9.00531 76.7395 21.0681C62.4946 41.3036 89.4071 63.3779 100.53 51.7238" stroke="#269E45" stroke-width="9.99" stroke-linecap="round" stroke-linejoin="round"/>
<path d="M1426.47 5.00817C1410.37 21.1083 1386.39 23.2413 1372.92 9.76465C1386.4 23.2413 1384.27 47.2117 1368.17 63.3118C1384.27 47.2117 1408.24 45.0787 1421.72 58.5554C1408.24 45.0787 1410.38 21.1083 1426.48 5L1426.47 5.00817Z" stroke="#269E45" stroke-width="9.99" stroke-linecap="round" stroke-linejoin="round"/>
<path d="M1368.17 63.3203C1357.46 74.0265 1345.66 96.2806 1367.39 116.402C1386.02 133.654 1407.16 125.637 1416.68 111.833C1425.27 99.3944 1422.49 85.2312 1410.42 76.7398C1390.19 62.4949 1368.11 89.4074 1379.77 100.53" stroke="#269E45" stroke-width="9.99" stroke-linecap="round" stroke-linejoin="round"/>
<path d="M1368.17 63.3207C1357.46 74.0269 1335.21 85.8364 1315.09 64.1053C1297.84 45.4717 1305.85 24.329 1319.66 14.8079C1332.1 6.22661 1346.26 9.00531 1354.75 21.0681C1369 41.3036 1342.08 63.3779 1330.96 51.7238" stroke="#269E45" stroke-width="9.99" stroke-linecap="round" stroke-linejoin="round"/>
<path d="M5.00817 1994.21C21.1083 1978.11 45.095 1975.97 58.5635 1989.45C45.0869 1975.97 47.2117 1952 63.3119 1935.9C47.2117 1952 23.2414 1954.14 9.76466 1940.66C23.2414 1954.14 21.1001 1978.11 5 1994.21L5.00817 1994.21Z" stroke="#269E45" stroke-width="9.99" stroke-linecap="round" stroke-linejoin="round"/>
<path d="M63.32 1935.9C74.0262 1925.2 85.8357 1902.94 64.1046 1882.82C45.4709 1865.57 24.3283 1873.59 14.8072 1887.39C6.22588 1899.83 9.00458 1913.99 21.0674 1922.48C41.3029 1936.73 63.3772 1909.82 51.723 1898.69" stroke="#269E45" stroke-width="9.99" stroke-linecap="round" stroke-linejoin="round"/>
<path d="M63.32 1935.9C74.0262 1925.2 96.2803 1913.39 116.401 1935.12C133.654 1953.75 125.636 1974.89 111.833 1984.41C99.3941 1993 85.2309 1990.22 76.7395 1978.15C62.4946 1957.92 89.4071 1935.84 100.53 1947.5" stroke="#269E45" stroke-width="9.99" stroke-linecap="round" stroke-linejoin="round"/>
<path d="M1426.47 1994.21C1410.37 1978.11 1386.39 1975.97 1372.92 1989.45C1386.4 1975.97 1384.27 1952 1368.17 1935.9C1384.27 1952 1408.24 1954.14 1421.72 1940.66C1408.24 1954.14 1410.38 1978.11 1426.48 1994.21L1426.47 1994.21Z" stroke="#269E45" stroke-width="9.99" stroke-linecap="round" stroke-linejoin="round"/>
<path d="M1368.17 1935.9C1357.47 1925.2 1345.66 1902.94 1367.39 1882.82C1386.02 1865.57 1407.16 1873.59 1416.68 1887.39C1425.27 1899.83 1422.49 1913.99 1410.42 1922.48C1390.19 1936.73 1368.11 1909.82 1379.77 1898.69" stroke="#269E45" stroke-width="9.99" stroke-linecap="round" stroke-linejoin="round"/>
<path d="M1368.17 1935.9C1357.46 1925.2 1335.21 1913.39 1315.09 1935.12C1297.84 1953.75 1305.85 1974.89 1319.66 1984.41C1332.1 1993 1346.26 1990.22 1354.75 1978.15C1369 1957.92 1342.08 1935.84 1330.96 1947.5" stroke="#269E45" stroke-width="9.99" stroke-linecap="round" stroke-linejoin="round"/>
<path d="M1292.04 196L1274.72 231.085L1236 236.716L1264.02 264.029L1257.4 302.596L1292.04 284.387L1326.68 302.596L1320.06 264.029L1348.08 236.716L1309.36 231.085L1292.04 196Z" fill="#269E45"/>
<path d="M1292.04 196L1274.72 231.085L1236 236.716L1264.02 264.029L1257.4 302.596L1292.04 284.387L1326.68 302.596L1320.06 264.029L1348.08 236.716L1309.36 231.085L1292.04 196Z" fill="#269E45"/>
<path d="M136.302 196C146.289 196 155.63 198.746 163.615 203.527C148.054 212.836 137.634 229.851 137.634 249.302C137.634 268.753 148.054 285.768 163.615 295.077C155.63 299.858 146.281 302.604 136.302 302.604C106.864 302.604 83 278.74 83 249.302C83 219.864 106.864 196 136.302 196Z" fill="#269E45"/>
<path d="M139.048 1695.62L156.358 1730.7L195.088 1736.33L167.064 1763.64L173.676 1802.21L139.048 1784L104.412 1802.21L111.024 1763.64L83 1736.33L121.73 1730.7L139.048 1695.62Z" fill="#269E45"/>
<path d="M139.048 1695.62L156.358 1730.7L195.088 1736.33L167.064 1763.64L173.676 1802.21L139.048 1784L104.412 1802.21L111.024 1763.64L83 1736.33L121.73 1730.7L139.048 1695.62Z" fill="#269E45"/>
<path d="M1285.11 1705.98C1295.85 1705.98 1305.41 1711.13 1311.45 1719.1C1312.61 1709.91 1309.57 1700.17 1302.48 1690.61C1296.33 1682.3 1289.31 1677.03 1289.01 1676.81C1287.8 1675.91 1286.2 1675.75 1284.84 1676.38C1283.48 1677.02 1282.57 1678.35 1282.49 1679.85C1282.48 1680.04 1281.49 1695.08 1270.8 1709.23C1275.13 1707.14 1279.98 1705.97 1285.11 1705.97V1705.98Z" fill="#269E45"/>
<path d="M1261.74 1715.65C1269.34 1708.05 1279.75 1704.95 1289.64 1706.3C1283.97 1698.99 1274.93 1694.25 1263.16 1692.5C1252.94 1690.98 1244.24 1692.22 1243.88 1692.27C1242.39 1692.49 1241.15 1693.51 1240.63 1694.92C1240.12 1696.33 1240.43 1697.91 1241.43 1699.03C1241.56 1699.17 1251.49 1710.51 1253.93 1728.08C1255.51 1723.53 1258.12 1719.27 1261.74 1715.65Z" fill="#269E45"/>
<path d="M1252.07 1739.02C1252.07 1728.27 1257.22 1718.72 1265.18 1712.68C1256 1711.52 1246.26 1714.56 1236.69 1721.64C1228.39 1727.8 1223.12 1734.82 1222.9 1735.12C1222 1736.32 1221.84 1737.92 1222.47 1739.29C1223.11 1740.65 1224.44 1741.55 1225.94 1741.64C1226.13 1741.64 1241.17 1742.64 1255.32 1753.33C1253.23 1749 1252.06 1744.14 1252.06 1739.02H1252.07Z" fill="#269E45"/>
<path d="M1261.74 1762.38C1254.14 1754.78 1251.04 1744.38 1252.39 1734.48C1245.08 1740.16 1240.34 1749.19 1238.59 1760.97C1237.07 1771.19 1238.31 1779.89 1238.36 1780.25C1238.58 1781.74 1239.59 1782.98 1241.01 1783.49C1242.42 1784.01 1244 1783.7 1245.12 1782.7C1245.26 1782.57 1256.6 1772.64 1274.16 1770.2C1269.62 1768.61 1265.36 1766.01 1261.74 1762.38Z" fill="#269E45"/>
<path d="M1285.11 1772.06C1274.36 1772.06 1264.81 1766.9 1258.77 1758.94C1257.61 1768.13 1260.65 1777.87 1267.73 1787.43C1273.89 1795.74 1280.91 1801.01 1281.21 1801.23C1282.41 1802.13 1284.01 1802.29 1285.38 1801.65C1286.73 1801.02 1287.64 1799.69 1287.72 1798.19C1287.73 1798 1288.73 1782.96 1299.42 1768.81C1295.09 1770.9 1290.23 1772.07 1285.11 1772.07V1772.06Z" fill="#269E45"/>
<path d="M1308.47 1762.39C1300.87 1769.99 1290.47 1773.09 1280.57 1771.73C1286.24 1779.05 1295.28 1783.79 1307.06 1785.54C1317.28 1787.06 1325.98 1785.82 1326.34 1785.77C1327.83 1785.55 1329.07 1784.53 1329.58 1783.12C1330.1 1781.71 1329.79 1780.13 1328.79 1779.01C1328.66 1778.87 1318.73 1767.53 1316.29 1749.96C1314.7 1754.51 1312.09 1758.76 1308.47 1762.39Z" fill="#269E45"/>
<path d="M1318.15 1739.02C1318.15 1749.77 1312.99 1759.32 1305.03 1765.36C1314.22 1766.52 1323.96 1763.48 1333.52 1756.4C1341.83 1750.24 1347.1 1743.22 1347.32 1742.92C1348.22 1741.72 1348.38 1740.12 1347.74 1738.75C1347.11 1737.39 1345.77 1736.49 1344.28 1736.4C1344.09 1736.4 1329.04 1735.4 1314.9 1724.71C1316.99 1729.04 1318.16 1733.9 1318.16 1739.02H1318.15Z" fill="#269E45"/>
<path d="M1308.47 1715.65C1316.07 1723.25 1319.18 1733.66 1317.82 1743.56C1325.14 1737.88 1329.88 1728.84 1331.63 1717.07C1333.15 1706.85 1331.9 1698.15 1331.86 1697.79C1331.63 1696.3 1330.62 1695.06 1329.21 1694.54C1327.79 1694.03 1326.22 1694.34 1325.1 1695.34C1324.96 1695.47 1313.61 1705.4 1296.05 1707.84C1300.6 1709.43 1304.85 1712.03 1308.47 1715.65Z" fill="#269E45"/>
<path d="M1285.11 1763.9C1298.85 1763.9 1309.99 1752.76 1309.99 1739.02C1309.99 1725.28 1298.85 1714.14 1285.11 1714.14C1271.37 1714.14 1260.23 1725.28 1260.23 1739.02C1260.23 1752.76 1271.37 1763.9 1285.11 1763.9Z" fill="#269E45"/>
</svg>
