<svg width="879" height="415" viewBox="0 0 879 415" fill="none" xmlns="http://www.w3.org/2000/svg">
<path d="M1.48976 350.542C1.48065 329.111 6.81849 310.455 14.133 308.043C21.1742 305.725 26.4665 319.973 26.3116 340.315C26.1386 367.664 31.8317 384.441 39.7382 380.656C45.6135 377.873 50.4412 363.887 50.6507 348.198C51.4341 287.852 2.97453 294.841 2.90166 199.197C2.84701 146.54 16.4831 114.352 43.0812 114.808C62.6836 115.086 80.437 135.015 79.6354 176.165C79.2801 195.209 73.5779 210.73 66.1815 211.986C58.785 213.242 53.4472 198.826 53.6931 178.82C54.0301 154.389 48.0638 135.816 40.9861 135.968C34.3457 136.154 29.6455 147.897 29.5089 167.11C29.099 236.915 80.9106 241.493 79.4805 313.582C78.7154 353.56 64.2777 387.813 39.5378 400.585C17.4122 412.076 1.57174 397.087 1.48976 350.542Z" fill="#269E45"/>
<path d="M121.354 345.801C122.065 345.557 122.776 345.304 123.486 345.059C125.763 344.267 127.23 342.1 126.392 330.921C124.315 311.481 122.229 291.821 120.125 271.925C114.414 273.282 108.711 274.673 103.027 276.106C100.003 297.225 96.9972 318.596 94.0186 340.229C92.7342 354.544 95.6491 355.201 98.318 354.181C99.0194 353.911 99.7208 353.65 100.431 353.389C100.322 358.101 100.222 362.814 100.112 367.527C92.3334 370.629 84.5999 373.841 76.912 377.163C77.0031 372.273 77.0942 367.375 77.1852 362.485C77.413 362.392 77.6498 362.3 77.8775 362.199C81.6395 360.647 86.8225 351.02 88.7991 336.393C99.0467 261.209 109.604 189.179 120.353 119.948C123.732 119.922 127.111 119.889 130.491 119.863C137.741 187.914 144.846 253.251 151.906 316.244C153.509 329.758 154.21 335.01 157.808 333.914C158.045 333.838 158.291 333.771 158.528 333.695C158.401 338.02 158.273 342.345 158.146 346.67C145.675 350.666 133.287 354.94 120.999 359.484C121.118 354.923 121.236 350.354 121.354 345.793V345.801ZM118.758 258.545C116.909 241.457 115.051 224.199 113.184 206.748C110.506 224.832 107.846 243.101 105.195 261.563C109.704 260.535 114.231 259.532 118.758 258.545Z" fill="#269E45"/>
<path d="M212.726 131.493C212.435 131.493 212.143 131.501 211.861 131.51C178.65 131.94 177.265 168.874 176.946 179.049C175.015 179.218 173.084 179.387 171.153 179.555C171.754 159.558 172.355 139.561 172.947 119.564C196.813 119.395 220.687 119.26 244.562 119.134C228.43 183.905 212.079 251.628 195.738 323.279C197.578 322.798 199.427 322.335 201.276 321.862C234.752 313.466 236.191 280.182 236.446 270.588C238.404 270.259 240.354 269.939 242.312 269.619C241.756 287.904 241.201 306.19 240.645 324.476C214.794 330.15 189.18 336.945 163.902 344.861C180.098 269.652 196.458 198.853 212.717 131.501L212.726 131.493Z" fill="#269E45"/>
<path d="M291.956 303.585C292.703 303.475 293.44 303.357 294.187 303.248C296.574 302.885 298.095 301.283 297.148 291.976C294.843 275.722 292.566 259.375 290.307 242.919C284.404 243.543 278.511 244.209 272.627 244.917C269.511 261.761 266.378 278.732 263.235 295.837C261.878 307.218 264.939 308.087 267.753 307.581C268.491 307.446 269.238 307.319 269.976 307.185C269.866 310.987 269.757 314.789 269.648 318.591C261.441 320.117 253.243 321.752 245.081 323.506C245.199 319.611 245.318 315.716 245.436 311.821C245.682 311.771 245.928 311.72 246.174 311.67C250.155 310.852 255.657 303.728 257.761 292.187C268.655 232.878 279.413 175.239 289.97 118.914C293.358 118.897 296.738 118.889 300.126 118.872C307.732 174.657 315.557 229.211 323.646 282.913C325.477 294.446 326.278 298.965 330.013 298.543C330.259 298.518 330.514 298.484 330.76 298.459C330.687 302.093 330.605 305.718 330.532 309.351C317.543 310.886 304.59 312.69 291.673 314.764C291.774 311.029 291.865 307.303 291.965 303.568L291.956 303.585ZM288.831 231.875C286.855 217.779 284.896 203.599 282.956 189.334C280.269 203.902 277.564 218.563 274.858 233.316C279.513 232.819 284.177 232.338 288.831 231.875Z" fill="#269E45"/>
<path d="M453.785 282.248C453.758 273.025 450.734 265.084 445.942 257.682C436.123 287.146 424.718 307.38 405.836 308.062C383.145 309.007 369.864 281.675 370.256 256.198C370.748 223.024 385.914 205.396 399.223 198.828C395.023 189.656 392.336 179.371 392.464 166.91C392.81 135.852 405.344 114.388 423.862 114.422C436.606 114.422 446.188 126.798 446.225 143.389C446.27 162.881 435.276 178.654 427.296 183.443C434.62 196.046 444.959 206.551 454.031 217.966C455.789 210.344 456.928 199.545 457.01 181.099C456.964 166.868 463.067 155.824 470.955 155.883C478.844 155.934 485.093 167.13 485.238 181.453C485.384 195.768 479.135 206.728 471.438 206.593C463.313 206.989 459.496 213.548 456.855 221.683C466.838 234.692 474.699 249.445 474.854 269.796C475.191 308.678 453.311 319.832 430.566 320.118C430.566 316.603 430.576 313.096 430.585 309.58C443.893 309.445 453.831 298.325 453.776 282.24L453.785 282.248ZM418.215 273.674C426.313 273.506 435.64 265.809 442.645 253.188C431.131 237.592 413.196 223.909 402.128 204.586C396.472 210.783 394.122 223.833 394.012 234.961C393.83 252.75 402.301 274.028 418.215 273.674ZM424.819 178.713C429.983 175.257 435.713 160.764 435.722 145.497C435.722 134.697 432.397 125.753 426.877 125.753C421.795 125.753 417.541 134.461 417.477 146.601C417.413 159.264 420.292 169.524 424.819 178.721V178.713Z" fill="#269E45"/>
<path d="M592.214 290.297C592.187 289.361 592.168 288.426 592.141 287.49C589.044 304.157 582.741 318.354 570.17 316.491C547.963 312.984 524.817 268.74 523.951 212.804C523.095 156.859 543.973 114.706 571.573 114.42C595.457 114.15 614.203 145.478 615.451 187.487C615.888 202.476 610.659 213.436 603.026 212.728C595.393 212.02 589.217 200.318 588.834 185.75C587.914 151.691 580.564 126.071 571.564 126.071C559.394 126.071 550.923 157.677 551.816 199.914C552.745 244.098 561.079 278.064 578.04 280.299C589.035 281.74 591.594 267.299 591.021 245.91C590.939 242.918 590.857 239.916 590.784 236.924C584.99 236.333 579.188 235.769 573.377 235.246C573.276 230.997 573.167 226.748 573.067 222.499C587.796 223.696 602.507 225.087 617.172 226.68C617.865 250.471 618.557 274.262 619.258 298.062C619.504 306.695 620.47 309.156 623.275 309.696C623.968 309.831 624.651 309.957 625.343 310.092C625.461 313.953 625.571 317.814 625.689 321.667C618.347 320.167 610.978 318.759 603.6 317.443C596.759 316.204 592.651 306.593 592.214 290.306V290.297Z" fill="#269E45"/>
<path d="M677.319 321.599C678.047 321.784 678.776 321.97 679.505 322.147C681.837 322.745 683.249 321.565 681.755 310.791C678.512 291.755 675.269 272.904 672.026 254.239C666.197 253.261 660.367 252.317 654.519 251.415C652.424 268.36 650.329 285.154 648.206 301.812C647.532 313.151 650.666 315.301 653.453 315.933C654.191 316.094 654.92 316.262 655.658 316.431C655.785 320.419 655.904 324.398 656.031 328.385C647.906 326.438 639.753 324.609 631.583 322.88C631.464 318.994 631.355 315.116 631.237 311.238C631.483 311.288 631.728 311.339 631.974 311.381C635.955 312.182 641.074 307.14 642.486 295.978C649.846 238.803 657.06 180.025 664.193 119.283C667.572 119.3 670.961 119.325 674.34 119.342C685.298 180.944 696.293 244.603 707.232 310.673C709.674 324.912 710.703 330.619 714.31 331.673C714.547 331.741 714.793 331.817 715.03 331.884C715.157 336.175 715.285 340.466 715.412 344.749C702.915 340.837 690.335 337.204 677.692 333.848C677.565 329.76 677.437 325.679 677.31 321.59L677.319 321.599ZM669.904 241.77C667.089 225.879 664.275 210.122 661.469 194.492C659.666 209.692 657.862 224.766 656.049 239.73C660.667 240.388 665.286 241.07 669.904 241.77Z" fill="#269E45"/>
<path d="M757.304 133.716C757.012 133.708 756.721 133.699 756.439 133.691C723.282 133.076 724.084 170.499 724.384 180.986C722.453 180.809 720.531 180.632 718.6 180.455C718.008 160.18 717.416 139.904 716.815 119.629C740.68 119.798 764.536 119.991 788.384 120.211C775.859 199.609 763.799 273.756 751.866 343.602C753.669 344.218 755.473 344.833 757.267 345.457C789.686 357.378 788.948 316.262 788.757 304.62C790.643 305.193 792.519 305.766 794.395 306.348C794.842 328.959 795.297 351.578 795.744 374.188C771.286 363.869 746.4 354.663 721.169 346.587C733.12 279.75 745.061 209.119 757.286 133.716H757.304Z" fill="#269E45"/>
<path d="M843.001 380.148C843.684 380.469 844.367 380.781 845.05 381.101C847.227 382.13 848.576 380.772 847.373 366.803C844.668 342.051 841.917 317.628 839.121 293.508C833.546 291.805 827.953 290.136 822.351 288.5C820.137 309.813 817.96 330.855 815.802 351.628C815.064 365.859 818.006 368.953 820.629 370.099C821.322 370.394 822.014 370.698 822.697 371.001C822.77 376.06 822.843 381.126 822.916 386.185C815.301 382.661 807.649 379.255 799.943 375.959C799.852 371.086 799.761 366.221 799.661 361.348C799.897 361.441 800.125 361.534 800.362 361.627C804.124 363.161 808.988 357.496 810.418 343.594C817.842 272.482 825.557 198.285 833.71 120.632C837.089 120.666 840.469 120.699 843.848 120.733C853.567 199.879 862.804 282.574 871.393 369.164C873.315 387.829 874.126 395.349 877.469 397.077C877.697 397.195 877.915 397.305 878.134 397.423V414.166C866.602 407.792 854.934 401.688 843.147 395.863C843.092 390.619 843.046 385.384 842.992 380.14L843.001 380.148ZM837.271 277.406C834.821 256.903 832.334 236.627 829.82 216.58C827.834 235.86 825.885 254.93 823.945 273.789C828.399 274.978 832.835 276.183 837.271 277.406Z" fill="#269E45"/>
<path d="M25.1361 77.4003H26.8668C29.2169 77.4003 29.9638 76.4813 29.9638 70.5294V6.5249C6.08929 7.78105 5.84333 19.803 5.84333 23.2426H0.897186V1.8291H81.5569V23.2426H76.6107C76.6107 19.8114 76.3648 7.78948 52.4811 6.5249V70.5294C52.4811 76.4813 53.228 77.4003 55.5781 77.4003H57.3088V81.978H25.1452V77.4003H25.1361Z" fill="#269E45"/>
<path d="M109.63 77.4003H111.489C113.465 77.4003 114.704 76.827 113.711 72.9321L106.907 52.4375H92.0593L85.3824 72.3588C84.517 76.827 87.1131 77.4003 89.4632 77.4003H91.3214V81.978H70.7808V77.4003H71.4002C74.7431 77.4003 79.1974 74.9976 80.6822 70.5294L103.819 1.8291H112.481L135.618 70.5294C137.349 75.4528 138.096 77.4003 141.184 77.4003H141.803V81.978H109.64V77.4003H109.63ZM105.422 47.8597L99.483 30.3411L93.6715 47.8597H105.422Z" fill="#269E45"/>
<path d="M141.539 77.4003H143.27C145.62 77.4003 146.367 76.4813 146.367 70.5294V10.757C146.367 7.31737 145.748 6.40687 143.27 6.40687H141.539V1.8291H178.531C199.563 1.94713 210.94 10.6474 210.94 27.0195C210.94 40.6432 203.143 49.2339 188.423 51.8642C195.355 53.6936 200.419 57.1333 203.389 63.4309L206.978 71.1027C209.701 76.1441 213.163 77.4003 216.132 77.4003H216.752V81.978H184.342C184.342 78.3108 183.969 74.4243 183.231 70.639C181.5 61.1378 177.784 52.6651 172.464 52.6651C170.114 52.6651 168.875 54.6126 168.875 58.1618V70.5294C168.875 76.4813 169.622 77.4003 171.972 77.4003H173.703V81.978H141.539V77.4003ZM178.039 48.0874C184.716 48.0874 188.059 39.9603 188.059 27.0195C188.059 14.0786 184.716 6.40687 178.039 6.40687H168.884V48.0874H178.039Z" fill="#269E45"/>
<path d="M217.134 41.9081C217.134 17.9739 234.332 0 257.341 0C280.35 0 297.42 17.9739 297.42 41.9081C297.42 65.8424 280.223 83.8162 257.213 83.8162C234.204 83.8162 217.134 65.8424 217.134 41.9081ZM257.341 79.0108C265.758 79.0108 272.061 63.094 272.061 41.9081C272.061 20.7222 265.63 4.81383 257.213 4.81383C248.797 4.81383 242.493 20.7306 242.493 41.9081C242.493 63.0856 248.924 79.0108 257.341 79.0108Z" fill="#269E45"/>
<path d="M321.796 77.4003H323.527C325.877 77.4003 326.624 76.4813 326.624 70.5294V6.5249C302.749 7.78105 302.503 19.803 302.503 23.2426H297.557V1.8291H378.217V23.2426H373.271C373.271 19.8114 373.025 7.78948 349.15 6.5249V70.5294C349.15 76.4813 349.888 77.4003 352.238 77.4003H353.969V81.978H321.805V77.4003H321.796Z" fill="#269E45"/>
<path d="M420.145 17.2907V73.0501C420.145 76.4813 420.765 77.4003 423.243 77.4003H424.973V81.978H410.372V77.4003H412.102C414.452 77.4003 415.199 76.4813 415.199 73.0501V10.757C415.199 7.31737 414.462 6.40687 412.102 6.40687H410.372V1.8291H438.582L454.049 47.8597L469.762 1.8291H497.107V6.40687H495.376C492.899 6.40687 492.279 7.3258 492.279 10.757V70.5294C492.279 76.4813 493.017 77.4003 495.376 77.4003H497.107V81.978H464.943V77.4003H466.674C469.024 77.4003 469.771 76.4813 469.771 70.5294V16.945L447.381 81.9865H442.308L442.435 81.4132L441.943 81.9865L420.173 17.2907H420.145Z" fill="#269E45"/>
<path d="M539.646 77.4003H541.504C543.48 77.4003 544.719 76.827 543.726 72.9321L536.922 52.4375H522.074L515.398 72.3588C514.532 76.827 517.128 77.4003 519.478 77.4003H521.337V81.978H500.796V77.4003H501.415C504.758 77.4003 509.213 74.9976 510.697 70.5294L533.834 1.8291H542.497L565.633 70.5294C567.364 75.4528 568.111 77.4003 571.199 77.4003H571.818V81.978H539.655V77.4003H539.646ZM535.437 47.8597L529.498 30.3411L523.687 47.8597H535.437Z" fill="#269E45"/>
<path d="M574.287 64.5795C574.287 58.7372 579.115 54.1594 585.673 54.1594C592.231 54.1594 596.804 58.7372 596.804 64.5795C596.804 72.3693 602.124 77.9756 609.302 77.9756C614.621 77.9756 618.829 74.4263 618.829 69.7306C618.829 51.5206 575.526 49.1179 575.526 23.2447C575.526 8.92965 587.158 0.111328 609.793 0.111328C626.499 0.111328 641.957 6.2909 641.957 19.2317C641.957 25.1837 637.257 29.7699 630.826 29.7699C624.395 29.7699 619.567 25.1921 619.567 19.2317C619.567 11.9056 614.248 6.29089 608.181 6.29089C602.488 6.29089 598.535 9.61252 598.535 15.1092C598.535 34.8029 644.061 39.3807 644.061 62.2864C644.061 74.8816 631.81 83.8095 609.292 83.8095C589.125 83.8095 574.278 77.1663 574.278 64.5711L574.287 64.5795Z" fill="#269E45"/>
<path d="M672.017 77.4003H673.747C676.098 77.4003 676.845 76.4813 676.845 70.5294V6.5249C652.97 7.78105 652.715 19.803 652.715 23.2426H647.769V1.8291H728.428V23.2426H723.482C723.482 19.8114 723.236 7.78948 699.362 6.5249V70.5294C699.362 76.4813 700.1 77.4003 702.45 77.4003H704.18V81.978H672.017V77.4003Z" fill="#269E45"/>
<path d="M734.613 77.4003H736.344C738.821 77.4003 739.441 76.4813 739.441 73.0501V10.757C739.441 7.31737 738.821 6.40687 736.344 6.40687H734.613V1.8291H792.883V23.2426H788.055C788.055 19.6934 787.809 7.2162 761.949 6.4153V37.33C779.884 37.1024 781.005 35.273 781.005 27.2555H785.951V52.2183H781.005C781.005 44.2009 779.894 42.3715 761.949 42.1438V77.4087C788.429 76.8354 788.675 64.1306 788.675 60.5814H793.621V81.9949H734.604V77.4171L734.613 77.4003Z" fill="#269E45"/>
<path d="M803.522 77.4003H805.253C807.603 77.4003 808.341 76.4813 808.341 70.5294V10.757C808.341 7.31737 807.722 6.40687 805.253 6.40687H803.522V1.8291H840.514C861.546 1.94713 872.923 10.6474 872.923 27.0195C872.923 40.6432 865.126 49.2339 850.406 51.8642C857.338 53.6936 862.403 57.1333 865.372 63.4309L868.961 71.1027C871.685 76.1441 875.146 77.4003 878.115 77.4003H878.735V81.978H846.325C846.325 78.3108 845.952 74.4243 845.214 70.639C843.483 61.1378 839.767 52.6651 834.447 52.6651C832.097 52.6651 830.858 54.6126 830.858 58.1618V70.5294C830.858 76.4813 831.605 77.4003 833.955 77.4003H835.686V81.978H803.522V77.4003ZM840.022 48.0874C846.699 48.0874 850.042 39.9603 850.042 27.0195C850.042 14.0786 846.699 6.40687 840.022 6.40687H830.867V48.0874H840.022Z" fill="#269E45"/>
</svg>
