<svg width="224" height="106" viewBox="0 0 224 106" fill="none" xmlns="http://www.w3.org/2000/svg">
<path d="M0.150516 89.0747C0.148201 83.6291 1.50458 78.8883 3.36324 78.2756C5.15246 77.6865 6.49726 81.3069 6.45791 86.4761C6.41393 93.4256 7.86059 97.6887 9.8697 96.7268C11.3626 96.0198 12.5894 92.4659 12.6426 88.4791C12.8417 73.1449 0.527806 74.9208 0.509289 50.617C0.495401 37.2365 3.96042 29.0574 10.7192 29.1731C15.7003 29.2438 20.2115 34.3081 20.0078 44.7644C19.9176 49.6037 18.4686 53.5476 16.5891 53.8668C14.7096 54.186 13.3532 50.5227 13.4157 45.4392C13.5014 39.2309 11.9853 34.5116 10.1868 34.5501C8.49943 34.5973 7.30507 37.5814 7.27035 42.4636C7.1662 60.2014 20.3319 61.3647 19.9685 79.683C19.774 89.8416 16.1053 98.5456 9.81878 101.791C4.19651 104.711 0.171347 100.902 0.150516 89.0747Z" fill="#FF6400"/>
<path d="M30.6089 87.8703C30.7895 87.8082 30.97 87.7439 31.1506 87.6818C31.7292 87.4804 32.1019 86.9298 31.8889 84.0892C31.3612 79.1492 30.8311 74.1535 30.2965 69.0978C28.8452 69.4427 27.3962 69.7961 25.9519 70.1603C25.1834 75.5266 24.4196 80.9573 23.6627 86.4543C23.3363 90.0918 24.077 90.2589 24.7552 89.9997C24.9334 89.9311 25.1117 89.8647 25.2922 89.7983C25.2644 90.9958 25.239 92.1934 25.2112 93.3909C23.2345 94.1792 21.2694 94.9954 19.3158 95.8395C19.3389 94.597 19.3621 93.3523 19.3852 92.1098C19.4431 92.0862 19.5033 92.0627 19.5611 92.037C20.5171 91.6428 21.8341 89.1963 22.3364 85.4795C24.9404 66.375 27.623 48.0716 30.3543 30.4794C31.2131 30.473 32.0718 30.4644 32.9305 30.458C34.773 47.7502 36.5784 64.3527 38.3722 80.3596C38.7796 83.7936 38.9578 85.1282 39.8721 84.8497C39.9323 84.8304 39.9948 84.8133 40.055 84.794C40.0226 85.893 39.9902 86.992 39.9578 88.0909C36.789 89.1064 33.6411 90.1925 30.5187 91.3472C30.5487 90.1882 30.5788 89.0271 30.6089 87.8681V87.8703ZM29.9493 65.698C29.4794 61.3557 29.0072 56.9705 28.5327 52.536C27.8522 57.1312 27.1763 61.7734 26.5028 66.4649C27.6485 66.2036 28.7989 65.9487 29.9493 65.698Z" fill="#FF6400"/>
<path d="M53.8271 33.413C53.7531 33.413 53.679 33.4151 53.6072 33.4173C45.1681 33.5265 44.8162 42.9117 44.7352 45.4974C44.2445 45.5403 43.7538 45.5831 43.2631 45.626C43.4159 40.5445 43.5686 35.4631 43.7191 30.3817C49.7834 30.3389 55.8501 30.3046 61.9168 30.2725C57.8176 46.7314 53.6628 63.9401 49.5103 82.147C49.9779 82.0249 50.4478 81.9071 50.9176 81.7871C59.4239 79.6535 59.7896 71.1959 59.8544 68.758C60.3521 68.6744 60.8474 68.593 61.3451 68.5116C61.2039 73.1582 61.0627 77.8047 60.9215 82.4512C54.3525 83.893 47.8438 85.6196 41.4207 87.6312C45.5361 68.5202 49.6932 50.5296 53.8248 33.4151L53.8271 33.413Z" fill="#FF6400"/>
<path d="M73.9599 77.1427C74.1497 77.1149 74.3371 77.0849 74.5269 77.0571C75.1334 76.9649 75.5199 76.5579 75.2792 74.1929C74.6936 70.0626 74.1149 65.9088 73.5409 61.7271C72.041 61.8856 70.5434 62.0549 69.0482 62.2348C68.2566 66.515 67.4603 70.8274 66.6618 75.174C66.3169 78.066 67.0946 78.2867 67.8099 78.1582C67.9973 78.1239 68.1871 78.0918 68.3746 78.0575C68.3468 79.0236 68.3191 79.9898 68.2913 80.9559C66.2058 81.3437 64.1226 81.7593 62.0487 82.2049C62.0788 81.2152 62.1089 80.2254 62.139 79.2357C62.2015 79.2229 62.264 79.21 62.3265 79.1972C63.338 78.9894 64.736 77.1792 65.2707 74.2464C68.039 59.1757 70.7726 44.5291 73.4553 30.2168C74.3163 30.2125 75.175 30.2103 76.0361 30.2061C77.9688 44.3813 79.9571 58.2438 82.0125 71.8899C82.4777 74.8205 82.6814 75.9688 83.6304 75.8617C83.6929 75.8552 83.7577 75.8467 83.8202 75.8403C83.8017 76.7636 83.7809 77.6847 83.7624 78.608C80.4617 78.9979 77.1703 79.4564 73.8881 79.9834C73.9136 79.0343 73.9367 78.0875 73.9622 77.1385L73.9599 77.1427ZM73.1659 58.9208C72.6637 55.3389 72.166 51.7357 71.673 48.111C70.9902 51.8128 70.3027 55.5382 69.6153 59.2871C70.798 59.1607 71.9832 59.0386 73.1659 58.9208Z" fill="#FF6400"/>
<path d="M115.082 71.721C115.075 69.3773 114.306 67.3593 113.089 65.4785C110.594 72.9656 107.696 78.107 102.897 78.2805C97.1317 78.5205 93.757 71.5753 93.8565 65.1014C93.9815 56.6717 97.8354 52.1922 101.217 50.5234C100.15 48.1926 99.4672 45.5791 99.4996 42.4128C99.5876 34.5208 102.773 29.0666 107.478 29.0752C110.716 29.0752 113.151 32.22 113.161 36.436C113.172 41.3889 110.378 45.397 108.351 46.6138C110.212 49.8165 112.839 52.4857 115.144 55.3863C115.591 53.4497 115.88 50.7055 115.901 46.0183C115.89 42.4021 117.44 39.5958 119.445 39.6108C121.449 39.6236 123.037 42.4685 123.074 46.1082C123.111 49.7458 121.523 52.5307 119.568 52.4964C117.503 52.5971 116.533 54.2638 115.862 56.331C118.399 59.6365 120.396 63.3855 120.436 68.5569C120.521 78.4369 114.961 81.2711 109.182 81.344C109.182 80.4506 109.184 79.5595 109.186 78.6661C112.568 78.6319 115.093 75.8062 115.079 71.7188L115.082 71.721ZM106.043 69.5423C108.101 69.4994 110.471 67.5436 112.251 64.3366C109.325 60.3735 104.768 56.8966 101.955 51.9866C100.518 53.5611 99.9209 56.8773 99.8931 59.7051C99.8468 64.2252 101.999 69.6323 106.043 69.5423ZM107.721 45.412C109.034 44.5337 110.49 40.8512 110.492 36.9715C110.492 34.2273 109.647 31.9544 108.244 31.9544C106.953 31.9544 105.872 34.1673 105.856 37.2522C105.839 40.4698 106.571 43.0769 107.721 45.4141V45.412Z" fill="#FF6400"/>
<path d="M150.257 73.7663C150.25 73.5285 150.246 73.2907 150.239 73.0529C149.452 77.2881 147.85 80.8957 144.656 80.4222C139.013 79.5311 133.131 68.2885 132.911 54.0747C132.694 39.8587 137.999 29.1475 145.012 29.0747C151.081 29.0061 155.845 36.9667 156.162 47.6415C156.273 51.4505 154.945 54.2354 153.005 54.0554C151.065 53.8755 149.496 50.902 149.399 47.2002C149.165 38.5455 147.297 32.0352 145.01 32.0352C141.918 32.0352 139.765 40.0665 139.992 50.7992C140.228 62.0267 142.346 70.6579 146.656 71.2256C149.45 71.5919 150.1 67.9222 149.954 62.4873C149.933 61.7268 149.913 60.9642 149.894 60.2037C148.422 60.0537 146.947 59.9102 145.471 59.7774C145.445 58.6977 145.417 57.618 145.392 56.5383C149.135 56.8425 152.873 57.196 156.6 57.6008C156.775 63.6463 156.951 69.6917 157.13 75.7393C157.192 77.9329 157.437 78.5585 158.15 78.6956C158.326 78.7299 158.5 78.762 158.676 78.7963C158.706 79.7774 158.734 80.7586 158.764 81.7376C156.898 81.3563 155.026 80.9985 153.151 80.6643C151.412 80.3494 150.369 77.9072 150.257 73.7684V73.7663Z" fill="#FF6400"/>
<path d="M171.883 81.7203C172.068 81.7674 172.253 81.8145 172.438 81.8595C173.031 82.0116 173.39 81.7117 173.01 78.9739C172.186 74.1367 171.362 69.3466 170.538 64.6037C169.057 64.3552 167.575 64.1152 166.089 63.886C165.557 68.1919 165.025 72.4593 164.485 76.6924C164.314 79.5737 165.11 80.12 165.819 80.2807C166.006 80.3214 166.191 80.3642 166.379 80.4071C166.411 81.4203 166.441 82.4315 166.474 83.4448C164.409 82.9499 162.337 82.485 160.261 82.0459C160.231 81.0583 160.203 80.0729 160.173 79.0874C160.236 79.1003 160.298 79.1131 160.361 79.1238C161.372 79.3274 162.673 78.0463 163.032 75.21C164.902 60.6812 166.735 45.7455 168.548 30.3105C169.406 30.3148 170.267 30.3213 171.126 30.3255C173.911 45.979 176.704 62.1551 179.484 78.9439C180.105 82.5622 180.366 84.0125 181.283 84.2802C181.343 84.2974 181.405 84.3167 181.466 84.3338C181.498 85.4242 181.53 86.5146 181.563 87.6029C178.387 86.6089 175.191 85.6856 171.978 84.8329C171.945 83.794 171.913 82.7571 171.881 81.7181L171.883 81.7203ZM169.999 61.4353C169.284 57.3971 168.568 53.3933 167.856 49.4216C167.397 53.284 166.939 57.1144 166.478 60.9169C167.652 61.084 168.825 61.2575 169.999 61.4353Z" fill="#FF6400"/>
<path d="M192.208 33.9781C192.134 33.976 192.06 33.9739 191.988 33.9717C183.563 33.8153 183.766 43.3248 183.843 45.9897C183.352 45.9447 182.864 45.8998 182.373 45.8548C182.222 40.7027 182.072 35.5505 181.919 30.3984C187.984 30.4413 194.046 30.4906 200.105 30.5463C196.923 50.722 193.858 69.563 190.826 87.3116C191.284 87.468 191.743 87.6243 192.198 87.7829C200.436 90.812 200.249 80.3643 200.2 77.4058C200.679 77.5515 201.156 77.6972 201.633 77.845C201.746 83.5905 201.862 89.3381 201.976 95.0837C195.761 92.4615 189.437 90.1222 183.026 88.0699C186.062 71.0862 189.097 53.1384 192.203 33.9781H192.208Z" fill="#FF6400"/>
<path d="M213.984 96.5982C214.158 96.6796 214.331 96.7589 214.505 96.8403C215.058 97.1016 215.401 96.7567 215.095 93.207C214.408 86.9174 213.709 80.7113 212.998 74.5823C211.581 74.1496 210.16 73.7254 208.737 73.3098C208.174 78.7254 207.621 84.0725 207.072 89.351C206.885 92.9671 207.633 93.7533 208.299 94.0446C208.475 94.1196 208.651 94.1967 208.825 94.2738C208.843 95.5592 208.862 96.8467 208.88 98.132C206.945 97.2366 205.001 96.3711 203.043 95.5335C203.02 94.2953 202.996 93.0592 202.971 91.821C203.031 91.8445 203.089 91.8681 203.149 91.8917C204.105 92.2816 205.341 90.842 205.704 87.3094C207.591 69.2395 209.551 50.3856 211.623 30.6533C212.482 30.6619 213.34 30.6705 214.199 30.679C216.669 50.7905 219.016 71.8038 221.199 93.8068C221.687 98.5498 221.893 100.461 222.743 100.9C222.8 100.93 222.856 100.958 222.912 100.988V105.242C219.981 103.623 217.016 102.072 214.021 100.591C214.007 99.2589 213.996 97.9285 213.982 96.5961L213.984 96.5982ZM212.528 70.4906C211.905 65.2806 211.273 60.1285 210.635 55.0343C210.13 59.9336 209.635 64.7794 209.142 69.5716C210.274 69.8736 211.401 70.18 212.528 70.4906Z" fill="#FF6400"/>
<path d="M6.15926 19.668H6.59904C7.19622 19.668 7.38602 19.4345 7.38602 17.922V1.65808C1.31935 1.97727 1.25685 5.03212 1.25685 5.90616H0V0.464844H20.4961V5.90616H19.2393C19.2393 5.03426 19.1768 1.97941 13.1078 1.65808V17.922C13.1078 19.4345 13.2976 19.668 13.8948 19.668H14.3346V20.8312H6.16157V19.668H6.15926Z" fill="#FF6400"/>
<path d="M27.6298 19.668H28.1019C28.6042 19.668 28.919 19.5223 28.6667 18.5326L26.9377 13.3248H23.1648L21.4682 18.3869C21.2483 19.5223 21.908 19.668 22.5051 19.668H22.9773V20.8312H17.7578V19.668H17.9152C18.7647 19.668 19.8965 19.0574 20.2738 17.922L26.153 0.464844H28.3542L34.2334 17.922C34.6732 19.1731 34.863 19.668 35.6477 19.668H35.8051V20.8312H27.6321V19.668H27.6298ZM26.5604 12.1615L25.0512 7.70993L23.5745 12.1615H26.5604Z" fill="#FF6400"/>
<path d="M35.738 19.668H36.1778C36.775 19.668 36.9648 19.4345 36.9648 17.922V2.73349C36.9648 1.85945 36.8074 1.62808 36.1778 1.62808H35.738V0.464844H45.1378C50.4823 0.494835 53.3733 2.70564 53.3733 6.86588C53.3733 10.3278 51.392 12.5107 47.6515 13.1791C49.4129 13.644 50.6999 14.518 51.4545 16.1183L52.3664 18.0677C53.0585 19.3488 53.9381 19.668 54.6926 19.668H54.85V20.8312H46.6145C46.6145 19.8993 46.5196 18.9118 46.3322 17.9499C45.8924 15.5356 44.948 13.3826 43.5962 13.3826C42.9991 13.3826 42.6843 13.8775 42.6843 14.7794V17.922C42.6843 19.4345 42.8741 19.668 43.4713 19.668H43.911V20.8312H35.738V19.668ZM45.0128 12.2194C46.7094 12.2194 47.5589 10.1542 47.5589 6.86588C47.5589 3.57753 46.7094 1.62808 45.0128 1.62808H42.6866V12.2194H45.0128Z" fill="#FF6400"/>
<path d="M54.9473 10.6491C54.9473 4.56728 59.3173 0 65.1641 0C71.0109 0 75.3485 4.56728 75.3485 10.6491C75.3485 16.731 70.9785 21.2982 65.1317 21.2982C59.2849 21.2982 54.9473 16.731 54.9473 10.6491ZM65.1641 20.0772C67.3028 20.0772 68.9046 16.0326 68.9046 10.6491C68.9046 5.26565 67.2704 1.22322 65.1317 1.22322C62.993 1.22322 61.3912 5.26779 61.3912 10.6491C61.3912 16.0305 63.0254 20.0772 65.1641 20.0772Z" fill="#FF6400"/>
<path d="M81.5426 19.668H81.9823C82.5795 19.668 82.7693 19.4345 82.7693 17.922V1.65808C76.7026 1.97727 76.6401 5.03212 76.6401 5.90616H75.3833V0.464844H95.8794V5.90616H94.6226C94.6226 5.03426 94.5601 1.97941 88.4934 1.65808V17.922C88.4934 19.4345 88.6809 19.668 89.2781 19.668H89.7179V20.8312H81.5449V19.668H81.5426Z" fill="#FF6400"/>
<path d="M106.534 4.39373V18.5626C106.534 19.4345 106.691 19.668 107.321 19.668H107.76V20.8312H104.05V19.668H104.49C105.087 19.668 105.277 19.4345 105.277 18.5626V2.73349C105.277 1.85945 105.089 1.62808 104.49 1.62808H104.05V0.464844H111.218L115.149 12.1615L119.142 0.464844H126.09V1.62808H125.65C125.021 1.62808 124.863 1.86159 124.863 2.73349V17.922C124.863 19.4345 125.051 19.668 125.65 19.668H126.09V20.8312H117.917V19.668H118.357C118.954 19.668 119.144 19.4345 119.144 17.922V4.3059L113.454 20.8334H112.165L112.198 20.6877L112.073 20.8334L106.541 4.39373H106.534Z" fill="#FF6400"/>
<path d="M136.899 19.668H137.372C137.874 19.668 138.189 19.5223 137.936 18.5326L136.207 13.3248H132.434L130.738 18.3869C130.518 19.5223 131.178 19.668 131.775 19.668H132.247V20.8312H127.027V19.668H127.185C128.034 19.668 129.166 19.0574 129.543 17.922L135.423 0.464844H137.624L143.503 17.922C143.943 19.1731 144.133 19.668 144.917 19.668H145.075V20.8312H136.902V19.668H136.899ZM135.83 12.1615L134.321 7.70993L132.844 12.1615H135.83Z" fill="#FF6400"/>
<path d="M145.702 16.4101C145.702 14.9255 146.929 13.7623 148.595 13.7623C150.262 13.7623 151.424 14.9255 151.424 16.4101C151.424 18.3895 152.776 19.8141 154.6 19.8141C155.951 19.8141 157.021 18.9123 157.021 17.719C157.021 13.0918 146.017 12.4812 146.017 5.90665C146.017 2.26911 148.973 0.0283203 154.724 0.0283203C158.97 0.0283203 162.897 1.59859 162.897 4.88694C162.897 6.39937 161.703 7.56476 160.069 7.56476C158.435 7.56476 157.208 6.40151 157.208 4.88694C157.208 3.02533 155.856 1.59859 154.315 1.59859C152.868 1.59859 151.864 2.44264 151.864 3.83938C151.864 8.84368 163.432 10.0069 163.432 15.8274C163.432 19.0279 160.319 21.2966 154.597 21.2966C149.473 21.2966 145.7 19.6085 145.7 16.408L145.702 16.4101Z" fill="#FF6400"/>
<path d="M170.536 19.668H170.976C171.573 19.668 171.763 19.4345 171.763 17.922V1.65808C165.696 1.97727 165.631 5.03212 165.631 5.90616H164.374V0.464844H184.87V5.90616H183.614C183.614 5.03426 183.551 1.97941 177.484 1.65808V17.922C177.484 19.4345 177.672 19.668 178.269 19.668H178.709V20.8312H170.536V19.668Z" fill="#FF6400"/>
<path d="M186.442 19.668H186.882C187.511 19.668 187.669 19.4345 187.669 18.5626V2.73349C187.669 1.85945 187.511 1.62808 186.882 1.62808H186.442V0.464844H201.249V5.90616H200.022C200.022 5.00427 199.96 1.83374 193.388 1.63023V9.48586C197.946 9.42802 198.23 8.96315 198.23 6.92587H199.487V13.2691H198.23C198.23 11.2318 197.948 10.7669 193.388 10.7091V19.6701C200.117 19.5244 200.179 16.2961 200.179 15.3942H201.436V20.8355H186.44V19.6723L186.442 19.668Z" fill="#FF6400"/>
<path d="M203.952 19.668H204.392C204.989 19.668 205.177 19.4345 205.177 17.922V2.73349C205.177 1.85945 205.019 1.62808 204.392 1.62808H203.952V0.464844H213.352C218.697 0.494835 221.588 2.70564 221.588 6.86588C221.588 10.3278 219.606 12.5107 215.866 13.1791C217.627 13.644 218.914 14.518 219.669 16.1183L220.581 18.0677C221.273 19.3488 222.152 19.668 222.907 19.668H223.064V20.8312H214.829C214.829 19.8993 214.734 18.9118 214.546 17.9499C214.107 15.5356 213.162 13.3826 211.81 13.3826C211.213 13.3826 210.899 13.8775 210.899 14.7794V17.922C210.899 19.4345 211.088 19.668 211.685 19.668H212.125V20.8312H203.952V19.668ZM213.227 12.2194C214.924 12.2194 215.773 10.1542 215.773 6.86588C215.773 3.57753 214.924 1.62808 213.227 1.62808H210.901V12.2194H213.227Z" fill="#FF6400"/>
</svg>
