<svg width="358" height="1127" viewBox="0 0 358 1127" fill="none" xmlns="http://www.w3.org/2000/svg">
<path d="M302.97 1126.56H54.06C53.57 1126.56 53.14 1126.18 53.06 1125.66C48.32 1097.29 27.33 1074.82 0.84 1069.74C0.35 1069.64 0 1069.19 0 1068.67V57.8892C0 57.3645 0.35 56.904 0.84 56.8183C27.33 51.7319 48.31 29.2658 53.06 0.899499C53.15 0.374791 53.57 0 54.06 0H302.97C303.46 0 303.89 0.374791 303.97 0.899499C308.71 29.2658 329.7 51.7426 356.19 56.8183C356.68 56.9147 357.03 57.3645 357.03 57.8892V1068.66C357.03 1069.18 356.68 1069.64 356.19 1069.73C329.7 1074.8 308.71 1097.28 303.97 1125.65C303.88 1126.17 303.46 1126.55 302.97 1126.55V1126.56ZM54.9 1124.37H302.12C307.25 1095.84 328.34 1073.25 354.99 1067.76V58.7994C328.34 53.306 307.25 30.7222 302.12 2.1845H54.91C49.78 30.7222 28.69 53.306 2.04 58.7994V1067.76C28.69 1073.25 49.78 1095.84 54.91 1124.37H54.9Z" fill="white"/>
<path d="M296.79 9.38132C300.13 22.5311 306.6 34.4709 315.72 44.2369C324.84 54.0029 336 60.9312 348.27 64.5077V1062.03C335.99 1065.61 324.84 1072.54 315.72 1082.3C306.6 1092.07 300.13 1104.01 296.79 1117.16H60.2503C56.9103 1104.01 50.4403 1092.07 41.3203 1082.3C32.2003 1072.54 21.0403 1065.61 8.77027 1062.03V64.5184C21.0503 60.9419 32.2003 54.0136 41.3203 44.2476C50.4403 34.4816 56.9103 22.5311 60.2503 9.39203H296.79M296.79 8.61032H60.2503C59.9203 8.61032 59.6303 8.8459 59.5503 9.18857C56.2503 22.167 49.7703 34.1068 40.8003 43.7015C31.8303 53.2961 20.6903 60.2458 8.57027 63.7796C8.25027 63.8759 8.03027 64.1758 8.03027 64.5291V1062.05C8.03027 1062.41 8.25027 1062.72 8.57027 1062.8C20.6903 1066.33 31.8403 1073.27 40.8003 1082.88C49.7603 1092.47 56.2503 1104.41 59.5503 1117.39C59.6403 1117.73 59.9203 1117.97 60.2503 1117.97H296.79C297.12 1117.97 297.41 1117.73 297.49 1117.39C300.79 1104.41 307.27 1092.47 316.24 1082.88C325.2 1073.28 336.35 1066.33 348.47 1062.8C348.79 1062.7 349.01 1062.41 349.01 1062.05V64.5184C349.01 64.1651 348.79 63.8545 348.47 63.7689C336.35 60.2351 325.2 53.2854 316.24 43.6908C307.28 34.0961 300.8 22.1563 297.49 9.17786C297.4 8.83519 297.12 8.59961 296.79 8.59961V8.61032Z" fill="white"/>
<path d="M21.2802 23.8461C21.0202 23.8461 20.7602 23.739 20.5602 23.5249C16.9402 19.6592 11.5902 19.0809 8.6302 22.2506C8.2302 22.6789 7.5902 22.6789 7.1902 22.2506C6.9902 22.0364 6.8902 21.758 6.8902 21.4796C6.8902 21.2012 6.9902 20.9227 7.1902 20.7086C10.1502 17.5389 9.6202 11.81 6.0002 7.93356C5.8002 7.71939 5.7002 7.44098 5.7002 7.16256C5.7002 6.88414 5.8002 6.60573 6.0002 6.39156C6.4002 5.96323 7.0402 5.96323 7.4402 6.39156C9.2102 8.29764 11.4502 9.45414 13.7402 9.67901C15.9502 9.89318 17.9602 9.17572 19.3702 7.66585C19.7702 7.23752 20.4102 7.23752 20.8102 7.66585C21.0102 7.88002 21.1102 8.15843 21.1102 8.43685C21.1102 8.71527 21.0102 8.99368 20.8102 9.20785C19.4002 10.7177 18.7302 12.8594 18.9302 15.2366C19.1302 17.6888 20.2202 20.0768 22.0002 21.9829C22.2002 22.197 22.3002 22.4755 22.3002 22.7539C22.3002 23.0323 22.2002 23.3107 22.0002 23.5249C21.8002 23.739 21.5402 23.8461 21.2802 23.8461ZM13.5102 18.0315C14.8902 18.0315 16.3202 18.3313 17.6902 18.9203C17.2702 17.7959 17.0002 16.618 16.9002 15.4294C16.7802 14.0373 16.9002 12.7095 17.2502 11.478C16.1002 11.8421 14.8502 11.9813 13.5602 11.8528C12.4502 11.7457 11.3502 11.4566 10.3002 11.0068C11.2302 13.4912 11.3802 16.1361 10.7302 18.4598C11.6102 18.1707 12.5502 18.0315 13.5002 18.0315H13.5102Z" fill="white"/>
<path d="M15.7602 40.6587C15.4402 40.6587 15.1302 40.6373 14.8502 40.6051C12.2902 40.3053 9.86023 38.7098 8.33023 36.3432C5.90023 32.5632 6.65023 28.0871 10.1502 25.4529C13.4602 22.9578 16.9602 24.4356 18.8202 26.8557C20.5702 29.1365 20.6802 31.8672 19.0902 33.4948C18.6802 33.9125 18.0402 33.891 17.6502 33.4627C17.2602 33.0237 17.2802 32.3383 17.6802 31.9207C18.6002 30.9784 18.1002 29.3507 17.2402 28.2478C16.2502 26.9628 13.8902 25.303 11.3102 27.2412C8.70023 29.2115 8.19023 32.2955 10.0002 35.1118C11.1902 36.9643 13.0902 38.2172 15.0602 38.4421C17.0402 38.6777 19.0202 37.8852 20.7702 36.1505C22.5402 34.3943 23.4502 32.4668 23.4902 30.4108C23.5502 27.0163 21.2502 24.2857 20.5502 23.5361C20.1502 23.1078 20.1502 22.4224 20.5502 21.9941C20.9502 21.5658 21.5902 21.5658 21.9902 21.9941C23.0802 23.1613 25.6002 26.3203 25.5302 30.4537C25.4802 33.1307 24.3502 35.5829 22.1602 37.7567C19.8202 40.0804 17.5002 40.6694 15.7502 40.6694L15.7602 40.6587Z" fill="white"/>
<path d="M16.9501 32.0718C16.4401 31.9647 16.1201 31.6007 16.1601 31.0652C16.2001 30.3478 16.1301 29.9087 15.6801 29.3412C15.2201 28.7737 13.9701 28.1205 12.7301 29.4483C12.0301 30.1979 11.7901 31.2152 12.0201 32.1575C12.6901 34.856 15.6001 35.4664 16.8501 35.0059C19.6201 33.9779 20.0901 31.7185 20.0901 31.7185C20.0901 31.7185 19.6101 31.0974 19.3601 30.8618C19.3501 30.744 18.0301 29.6089 18.1401 30.1872C18.2901 30.9582 17.7401 32.2325 16.9501 32.0718Z" fill="white"/>
<path d="M28.29 27.3162C24.51 27.3162 21.63 24.6713 20.55 23.5255C20.15 23.0972 20.15 22.4118 20.55 21.9835C20.95 21.5552 21.59 21.5552 21.99 21.9835C22.7 22.7438 25.22 25.1853 28.41 25.1317C30.33 25.0889 32.13 24.1144 33.77 22.2191C35.39 20.3451 36.13 18.2249 35.91 16.1046C35.69 13.9844 34.53 11.9605 32.8 10.6862C30.17 8.74801 27.29 9.29413 25.45 12.089C23.63 14.8517 25.18 17.3789 26.39 18.439C27.43 19.3492 28.94 19.8847 29.82 18.9102C30.21 18.4712 30.85 18.4605 31.26 18.8781C31.67 19.2957 31.68 19.981 31.29 20.4201C29.77 22.1227 27.22 22.0049 25.09 20.1309C22.83 18.1392 21.45 14.3806 23.78 10.8468C26.24 7.09893 30.43 6.2958 33.95 8.89793C36.16 10.5256 37.65 13.1384 37.93 15.8797C38.13 17.818 37.83 20.752 35.26 23.7182C33.23 26.0634 30.94 27.2734 28.44 27.3269C28.38 27.3269 28.33 27.3269 28.27 27.3269L28.29 27.3162Z" fill="white"/>
<path d="M29.9801 18.1178C29.8801 17.5717 29.5401 17.229 29.0401 17.2718C28.3701 17.3147 27.9601 17.2397 27.4301 16.7578C26.9001 16.276 26.2901 14.9267 27.5301 13.5989C28.2301 12.8493 29.1801 12.5923 30.0601 12.8386C32.5801 13.5561 33.1501 16.6722 32.7201 18.0107C31.7601 20.9769 29.6501 21.4802 29.6501 21.4802C29.6501 21.4802 29.0701 20.9662 28.8501 20.6985C28.7401 20.6878 27.6801 19.2743 28.2201 19.3921C28.9401 19.5527 30.1301 18.9638 29.9801 18.1178Z" fill="white"/>
<path d="M335.76 23.8461C335.5 23.8461 335.24 23.739 335.04 23.5249C334.84 23.3107 334.74 23.0323 334.74 22.7539C334.74 22.4755 334.84 22.197 335.04 21.9829C338.66 18.1065 339.19 12.3775 336.23 9.20785C336.03 8.99368 335.93 8.71527 335.93 8.43685C335.93 8.15843 336.03 7.88002 336.23 7.66585C336.63 7.23752 337.27 7.23752 337.67 7.66585C339.08 9.17572 341.08 9.89318 343.3 9.67901C345.59 9.46485 347.83 8.29764 349.6 6.39156C350 5.96323 350.64 5.96323 351.04 6.39156C351.24 6.60573 351.34 6.88414 351.34 7.16256C351.34 7.44098 351.24 7.71939 351.04 7.93356C347.42 11.81 346.89 17.5389 349.85 20.7086C350.05 20.9227 350.15 21.2012 350.15 21.4796C350.15 21.758 350.05 22.0364 349.85 22.2506C349.45 22.6789 348.81 22.6789 348.41 22.2506C347 20.7407 345.01 20.0232 342.78 20.2374C340.49 20.4516 338.26 21.6188 336.48 23.5249C336.28 23.739 336.02 23.8461 335.76 23.8461ZM339.77 11.478C340.42 13.8017 340.27 16.436 339.34 18.9203C340.39 18.4705 341.49 18.1814 342.6 18.0743C343.9 17.9458 345.15 18.0743 346.3 18.4491C345.65 16.1254 345.81 13.4912 346.73 11.0068C345.68 11.4566 344.58 11.7457 343.47 11.8528C342.17 11.9813 340.92 11.8528 339.77 11.478Z" fill="white"/>
<path d="M341.279 40.6596C339.529 40.6596 337.209 40.0707 334.869 37.747C332.679 35.5732 331.549 33.121 331.499 30.4439C331.429 26.3105 333.949 23.1515 335.039 21.9843C335.439 21.556 336.079 21.556 336.479 21.9843C336.879 22.4127 336.879 23.098 336.479 23.5263C335.769 24.2866 333.479 27.0065 333.539 30.4011C333.579 32.4571 334.489 34.3846 336.259 36.1407C338.009 37.8755 339.989 38.6786 341.969 38.4323C343.949 38.1967 345.839 36.9546 347.029 35.102C348.839 32.2857 348.329 29.2017 345.719 27.2314C343.139 25.2825 340.779 26.9423 339.789 28.238C338.939 29.3517 338.429 30.9793 339.349 31.9109C339.759 32.3286 339.769 33.0139 339.379 33.4529C338.989 33.892 338.349 33.9027 337.939 33.4851C336.349 31.8574 336.459 29.1268 338.209 26.8459C340.069 24.4258 343.579 22.9481 346.879 25.4431C350.379 28.0774 351.129 32.5641 348.699 36.3335C347.169 38.7 344.739 40.2956 342.179 40.5954C341.899 40.6275 341.589 40.6489 341.269 40.6489L341.279 40.6596Z" fill="white"/>
<path d="M340.09 32.0718C340.6 31.9647 340.92 31.6007 340.88 31.0652C340.84 30.3478 340.91 29.9087 341.36 29.3412C341.81 28.7737 343.07 28.1205 344.31 29.4483C345.01 30.1979 345.25 31.2152 345.02 32.1575C344.35 34.856 341.44 35.4664 340.19 35.0059C337.42 33.9779 336.95 31.7185 336.95 31.7185C336.95 31.7185 337.43 31.0974 337.68 30.8618C337.69 30.744 339.01 29.6089 338.9 30.1872C338.75 30.9582 339.3 32.2325 340.09 32.0718Z" fill="white"/>
<path d="M328.74 27.3163C328.68 27.3163 328.63 27.3163 328.57 27.3163C326.07 27.2627 323.78 26.0527 321.75 23.7076C319.18 20.7307 318.88 17.8073 319.08 15.8691C319.36 13.1278 320.85 10.5256 323.06 8.88726C326.59 6.28514 330.77 7.07756 333.23 10.8362C335.56 14.3806 334.18 18.1285 331.92 20.1203C329.79 21.9942 327.24 22.112 325.72 20.4094C325.33 19.9704 325.35 19.285 325.75 18.8674C326.16 18.4498 326.8 18.4712 327.19 18.8995C328.07 19.8847 329.59 19.3493 330.62 18.4284C331.82 17.3682 333.37 14.8411 331.56 12.0783C329.72 9.28347 326.84 8.73735 324.21 10.6756C322.48 11.9498 321.31 13.9844 321.1 16.094C320.88 18.2249 321.62 20.3345 323.24 22.2084C324.88 24.1038 326.68 25.0782 328.6 25.1211C331.81 25.2067 334.32 22.7224 335.02 21.9728C335.42 21.5445 336.06 21.5445 336.46 21.9728C336.86 22.4012 336.86 23.0865 336.46 23.5148C335.39 24.6606 332.51 27.3056 328.72 27.3056L328.74 27.3163Z" fill="white"/>
<path d="M327.05 18.1178C327.15 17.5717 327.49 17.229 327.99 17.2718C328.66 17.3147 329.07 17.2397 329.6 16.7578C330.13 16.276 330.74 14.9267 329.5 13.5989C328.8 12.8493 327.85 12.5923 326.97 12.8386C324.45 13.5561 323.88 16.6722 324.31 18.0107C325.27 20.9769 327.38 21.4802 327.38 21.4802C327.38 21.4802 327.96 20.9662 328.18 20.6985C328.29 20.6878 329.35 19.2743 328.81 19.3921C328.09 19.5527 326.9 18.9638 327.05 18.1178Z" fill="white"/>
<path d="M6.7202 1120.48C6.4602 1120.48 6.2002 1120.37 6.0002 1120.16C5.8002 1119.94 5.7002 1119.66 5.7002 1119.38C5.7002 1119.11 5.8002 1118.83 6.0002 1118.61C9.6202 1114.74 10.1502 1109.01 7.1902 1105.84C6.9902 1105.62 6.8902 1105.35 6.8902 1105.07C6.8902 1104.79 6.9902 1104.51 7.1902 1104.3C7.5902 1103.87 8.2302 1103.87 8.6302 1104.3C11.5902 1107.47 16.9402 1106.9 20.5602 1103.02C20.9602 1102.59 21.6002 1102.59 22.0002 1103.02C22.2002 1103.24 22.3002 1103.51 22.3002 1103.79C22.3002 1104.07 22.2002 1104.35 22.0002 1104.56C20.2202 1106.47 19.1402 1108.86 18.9302 1111.31C18.7302 1113.69 19.4002 1115.83 20.8102 1117.34C21.0102 1117.55 21.1102 1117.83 21.1102 1118.11C21.1102 1118.39 21.0102 1118.67 20.8102 1118.88C20.4102 1119.31 19.7702 1119.31 19.3702 1118.88C17.9602 1117.37 15.9602 1116.66 13.7402 1116.87C11.4502 1117.08 9.2102 1118.25 7.4402 1120.16C7.2402 1120.37 6.9802 1120.48 6.7202 1120.48ZM10.7302 1108.1C11.3802 1110.42 11.2302 1113.07 10.3002 1115.55C11.3502 1115.1 12.4502 1114.81 13.5602 1114.71C14.8602 1114.58 16.1102 1114.71 17.2502 1115.08C16.9102 1113.85 16.7802 1112.52 16.9002 1111.13C17.0002 1109.94 17.2702 1108.76 17.6902 1107.64C15.3702 1108.63 12.9102 1108.79 10.7302 1108.1Z" fill="white"/>
<path d="M21.28 1104.9C21.02 1104.9 20.76 1104.79 20.56 1104.58C20.16 1104.15 20.16 1103.46 20.56 1103.03C21.27 1102.27 23.56 1099.55 23.5 1096.16C23.46 1094.1 22.55 1092.16 20.78 1090.42C19.03 1088.68 17.06 1087.89 15.07 1088.13C13.09 1088.36 11.2 1089.6 10.01 1091.46C8.19999 1094.27 8.70999 1097.36 11.32 1099.33C13.9 1101.28 16.26 1099.62 17.25 1098.32C18.1 1097.21 18.61 1095.58 17.69 1094.65C17.28 1094.23 17.27 1093.55 17.66 1093.11C18.05 1092.67 18.69 1092.66 19.1 1093.07C20.69 1094.7 20.58 1097.43 18.83 1099.71C16.97 1102.13 13.46 1103.61 10.16 1101.12C6.65999 1098.48 5.90999 1094 8.33999 1090.23C9.86999 1087.86 12.3 1086.26 14.86 1085.96C16.66 1085.75 19.4 1086.07 22.18 1088.82C24.37 1091 25.5 1093.45 25.55 1096.13C25.62 1100.26 23.1 1103.42 22.01 1104.59C21.81 1104.8 21.55 1104.91 21.29 1104.91L21.28 1104.9Z" fill="white"/>
<path d="M16.9501 1094.48C16.4401 1094.58 16.1201 1094.95 16.1601 1095.48C16.2001 1096.2 16.1301 1096.64 15.6801 1097.21C15.2201 1097.78 13.9701 1098.43 12.7301 1097.1C12.0301 1096.35 11.7901 1095.33 12.0201 1094.39C12.6901 1091.69 15.6001 1091.08 16.8501 1091.54C19.6201 1092.57 20.0901 1094.83 20.0901 1094.83C20.0901 1094.83 19.6101 1095.45 19.3601 1095.69C19.3501 1095.8 18.0301 1096.94 18.1401 1096.36C18.2901 1095.59 17.7401 1094.32 16.9501 1094.48Z" fill="white"/>
<path d="M29.6503 1119.19C27.4203 1119.19 25.2903 1118 23.7903 1115.73C21.4603 1112.19 22.8403 1108.44 25.1003 1106.45C27.2303 1104.57 29.7803 1104.46 31.3003 1106.16C31.6903 1106.6 31.6703 1107.28 31.2703 1107.7C30.8603 1108.12 30.2203 1108.1 29.8303 1107.67C28.9503 1106.68 27.4403 1107.22 26.4003 1108.14C25.2003 1109.2 23.6503 1111.73 25.4603 1114.49C27.2903 1117.29 30.1803 1117.83 32.8103 1115.89C34.5403 1114.62 35.7103 1112.58 35.9203 1110.47C36.1403 1108.34 35.4003 1106.23 33.7803 1104.36C32.1403 1102.47 30.3403 1101.49 28.4203 1101.45C25.2903 1101.38 22.7003 1103.85 22.0003 1104.6C21.6003 1105.02 20.9603 1105.02 20.5603 1104.6C20.1603 1104.17 20.1603 1103.48 20.5603 1103.05C21.6503 1101.89 24.5503 1099.17 28.4603 1099.26C30.9603 1099.32 33.2503 1100.53 35.2803 1102.87C37.8503 1105.85 38.1503 1108.77 37.9503 1110.71C37.6703 1113.45 36.1803 1116.05 33.9703 1117.69C32.5903 1118.72 31.1003 1119.21 29.6603 1119.21L29.6503 1119.19Z" fill="white"/>
<path d="M29.9801 1108.44C29.8801 1108.99 29.5401 1109.33 29.0401 1109.29C28.3701 1109.24 27.9601 1109.32 27.4301 1109.8C26.9001 1110.28 26.2901 1111.63 27.5301 1112.96C28.2301 1113.71 29.1801 1113.97 30.0601 1113.72C32.5801 1113 33.1501 1109.89 32.7201 1108.55C31.7601 1105.58 29.6501 1105.08 29.6501 1105.08C29.6501 1105.08 29.0701 1105.59 28.8501 1105.86C28.7401 1105.87 27.6801 1107.29 28.2201 1107.17C28.9401 1107.01 30.1301 1107.6 29.9801 1108.44Z" fill="white"/>
<path d="M350.31 1120.47C350.05 1120.47 349.79 1120.37 349.59 1120.15C347.81 1118.25 345.58 1117.08 343.29 1116.87C341.07 1116.65 339.07 1117.37 337.66 1118.88C337.26 1119.31 336.62 1119.31 336.22 1118.88C336.02 1118.66 335.92 1118.39 335.92 1118.11C335.92 1117.83 336.02 1117.55 336.22 1117.34C339.18 1114.17 338.65 1108.44 335.03 1104.56C334.83 1104.35 334.73 1104.07 334.73 1103.79C334.73 1103.51 334.83 1103.23 335.03 1103.02C335.43 1102.59 336.07 1102.59 336.47 1103.02C338.24 1104.93 340.48 1106.08 342.77 1106.31C344.99 1106.52 346.99 1105.8 348.4 1104.29C348.8 1103.87 349.44 1103.87 349.84 1104.29C350.04 1104.51 350.14 1104.79 350.14 1105.06C350.14 1105.34 350.04 1105.62 349.84 1105.84C346.88 1109.01 347.41 1114.73 351.03 1118.61C351.23 1118.82 351.33 1119.1 351.33 1119.38C351.33 1119.66 351.23 1119.94 351.03 1120.15C350.83 1120.37 350.57 1120.47 350.31 1120.47ZM342.52 1114.65C342.83 1114.65 343.15 1114.66 343.46 1114.69C344.57 1114.8 345.67 1115.09 346.72 1115.54C345.79 1113.05 345.64 1110.42 346.29 1108.1C345.14 1108.47 343.89 1108.6 342.59 1108.47C341.48 1108.36 340.38 1108.07 339.33 1107.62C340.26 1110.11 340.41 1112.74 339.76 1115.07C340.63 1114.79 341.55 1114.64 342.52 1114.64V1114.65Z" fill="white"/>
<path d="M335.76 1104.89C335.5 1104.89 335.24 1104.79 335.04 1104.57C333.95 1103.41 331.43 1100.25 331.5 1096.11C331.55 1093.44 332.68 1090.98 334.87 1088.81C337.65 1086.06 340.38 1085.74 342.19 1085.95C344.74 1086.25 347.18 1087.85 348.71 1090.21C351.14 1093.99 350.39 1098.47 346.89 1101.1C343.58 1103.6 340.07 1102.12 338.22 1099.7C336.47 1097.42 336.36 1094.69 337.95 1093.06C338.36 1092.64 339 1092.66 339.39 1093.09C339.78 1093.52 339.76 1094.22 339.36 1094.63C338.44 1095.58 338.94 1097.2 339.8 1098.31C340.79 1099.59 343.15 1101.25 345.73 1099.31C348.34 1097.34 348.85 1094.26 347.04 1091.44C345.85 1089.59 343.95 1088.34 341.98 1088.11C339.99 1087.88 338.02 1088.67 336.27 1090.41C334.5 1092.16 333.59 1094.09 333.55 1096.14C333.49 1099.54 335.79 1102.27 336.49 1103.02C336.89 1103.45 336.89 1104.13 336.49 1104.56C336.29 1104.78 336.03 1104.88 335.77 1104.88L335.76 1104.89Z" fill="white"/>
<path d="M340.09 1094.47C340.6 1094.58 340.92 1094.95 340.88 1095.48C340.84 1096.2 340.91 1096.64 341.36 1097.2C341.81 1097.77 343.07 1098.43 344.31 1097.1C345.01 1096.35 345.25 1095.33 345.02 1094.39C344.35 1091.69 341.44 1091.08 340.19 1091.54C337.42 1092.57 336.95 1094.83 336.95 1094.83C336.95 1094.83 337.43 1095.45 337.68 1095.68C337.69 1095.8 339.01 1096.94 338.9 1096.36C338.75 1095.59 339.3 1094.31 340.09 1094.47Z" fill="white"/>
<path d="M327.38 1119.19C325.94 1119.19 324.45 1118.7 323.07 1117.67C320.86 1116.04 319.37 1113.43 319.09 1110.69C318.89 1108.75 319.19 1105.82 321.76 1102.85C323.79 1100.5 326.08 1099.29 328.58 1099.24C332.42 1099.15 335.39 1101.86 336.48 1103.03C336.88 1103.46 336.88 1104.14 336.48 1104.57C336.08 1105 335.44 1105 335.04 1104.57C334.33 1103.81 331.74 1101.35 328.62 1101.42C326.7 1101.47 324.9 1102.44 323.26 1104.34C321.64 1106.21 320.9 1108.33 321.12 1110.45C321.34 1112.57 322.5 1114.6 324.23 1115.87C326.86 1117.81 329.74 1117.26 331.58 1114.47C333.4 1111.7 331.85 1109.18 330.64 1108.12C329.6 1107.21 328.08 1106.67 327.21 1107.65C326.82 1108.09 326.18 1108.1 325.77 1107.68C325.36 1107.26 325.35 1106.58 325.74 1106.14C327.26 1104.43 329.81 1104.55 331.94 1106.43C334.2 1108.42 335.58 1112.18 333.25 1115.71C331.75 1117.98 329.62 1119.17 327.39 1119.17L327.38 1119.19Z" fill="white"/>
<path d="M327.05 1108.44C327.15 1108.98 327.49 1109.33 327.99 1109.28C328.66 1109.24 329.07 1109.32 329.6 1109.8C330.13 1110.28 330.74 1111.63 329.5 1112.96C328.8 1113.71 327.85 1113.96 326.97 1113.72C324.45 1113 323.88 1109.88 324.31 1108.54C325.27 1105.58 327.38 1105.08 327.38 1105.08C327.38 1105.08 327.96 1105.59 328.18 1105.86C328.29 1105.87 329.35 1107.28 328.81 1107.16C328.09 1107 326.9 1107.59 327.05 1108.44Z" fill="white"/>
<path d="M317.56 80.751L313.24 90.1315L303.57 91.6413L310.57 98.9444L308.92 109.257L317.56 104.384L326.21 109.257L324.56 98.9444L331.55 91.6413L321.89 90.1315L317.56 80.751Z" fill="white"/>
<path d="M326.21 110.339C326.05 110.339 325.88 110.296 325.74 110.211L317.57 105.606L309.4 110.211C309.06 110.403 308.64 110.371 308.33 110.125C308.02 109.879 307.86 109.472 307.92 109.054L309.48 99.3096L302.87 92.4134C302.59 92.1243 302.49 91.6853 302.61 91.2998C302.73 90.9036 303.05 90.6144 303.43 90.5609L312.57 89.1367L316.66 80.2702C317 79.5206 318.14 79.5206 318.49 80.2702L322.58 89.1367L331.72 90.5609C332.1 90.6251 332.42 90.9036 332.54 91.2998C332.66 91.696 332.56 92.1243 332.28 92.4134L325.67 99.3096L327.23 109.054C327.3 109.461 327.14 109.879 326.82 110.125C326.64 110.264 326.43 110.328 326.22 110.328L326.21 110.339ZM317.56 103.293C317.72 103.293 317.89 103.336 318.03 103.422L324.85 107.266L323.55 99.1382C323.49 98.7849 323.6 98.4208 323.84 98.1745L329.36 92.4134L321.74 91.2248C321.41 91.1713 321.12 90.9464 320.97 90.6251L317.56 83.2257L314.15 90.6251C314 90.9464 313.72 91.1713 313.38 91.2248L305.76 92.4134L311.28 98.1745C311.52 98.4208 311.63 98.7849 311.57 99.1382L310.27 107.266L317.09 103.422C317.24 103.336 317.4 103.293 317.56 103.293Z" fill="white"/>
<path d="M42.7202 80.751C45.2102 80.751 47.5402 81.4898 49.5402 82.7641C45.6602 85.2485 43.0502 89.7995 43.0502 95.0037C43.0502 100.208 45.6502 104.748 49.5402 107.243C47.5502 108.518 45.2102 109.257 42.7202 109.257C35.3702 109.257 29.4102 102.874 29.4102 95.0037C29.4102 87.1331 35.3702 80.751 42.7202 80.751Z" fill="white"/>
<path d="M42.7199 110.34C34.8199 110.34 28.3999 103.454 28.3999 95.0052C28.3999 86.5563 34.8299 79.6709 42.7199 79.6709C45.3099 79.6709 47.8499 80.4205 50.0599 81.834C50.3699 82.0267 50.5599 82.3908 50.5599 82.7656C50.5599 83.1404 50.3699 83.5045 50.0599 83.6972C46.3699 86.0638 44.0699 90.3899 44.0699 94.9945C44.0699 99.5991 46.3699 103.925 50.0599 106.292C50.3699 106.485 50.5599 106.849 50.5599 107.223C50.5599 107.598 50.3699 107.962 50.0599 108.155C47.8499 109.569 45.3099 110.318 42.7199 110.318V110.34ZM42.7199 81.8447C35.9399 81.8447 30.4299 87.745 30.4299 95.0052C30.4299 102.265 35.9399 108.166 42.7199 108.166C44.3899 108.166 46.0399 107.802 47.5599 107.106C44.1199 104.225 42.0399 99.7383 42.0399 95.0052C42.0399 90.2721 44.1199 85.7961 47.5599 82.9048C46.0399 82.2088 44.3999 81.8447 42.7299 81.8447H42.7199Z" fill="white"/>
<path d="M39.4695 1018.61L43.7995 1027.99L53.4595 1029.5L46.4695 1036.79L48.1195 1047.11L39.4695 1042.24L30.8295 1047.11L32.4795 1036.79L25.4795 1029.5L35.1495 1027.99L39.4695 1018.61Z" fill="white"/>
<path d="M48.1197 1048.2C47.9597 1048.2 47.7897 1048.16 47.6497 1048.07L39.4797 1043.47L31.3097 1048.07C30.9697 1048.26 30.5497 1048.23 30.2397 1047.98C29.9297 1047.74 29.7697 1047.33 29.8297 1046.91L31.3897 1037.17L24.7797 1030.27C24.4997 1029.98 24.3997 1029.54 24.5197 1029.16C24.6397 1028.76 24.9597 1028.47 25.3397 1028.42L34.4797 1027L38.5697 1018.13C38.9097 1017.38 40.0497 1017.38 40.3997 1018.13L44.4897 1027L53.6297 1028.42C54.0097 1028.48 54.3297 1028.76 54.4497 1029.16C54.5697 1029.56 54.4697 1029.98 54.1897 1030.27L47.5797 1037.17L49.1397 1046.91C49.2097 1047.32 49.0497 1047.74 48.7297 1047.98C48.5497 1048.12 48.3397 1048.19 48.1297 1048.19L48.1197 1048.2ZM39.4697 1041.15C39.6297 1041.15 39.7997 1041.2 39.9397 1041.28L46.7597 1045.11L45.4597 1036.99C45.3997 1036.63 45.5097 1036.27 45.7497 1036.02L51.2697 1030.26L43.6497 1029.07C43.3197 1029.02 43.0297 1028.8 42.8797 1028.47L39.4697 1021.07L36.0597 1028.47C35.9097 1028.8 35.6297 1029.02 35.2897 1029.07L27.6697 1030.26L33.1897 1036.02C33.4297 1036.27 33.5397 1036.63 33.4797 1036.99L32.1797 1045.11L38.9997 1041.28C39.1497 1041.2 39.3097 1041.15 39.4697 1041.15Z" fill="white"/>
<path d="M317.56 1022.6C320.24 1022.6 322.63 1023.99 324.14 1026.11C324.43 1023.65 323.67 1021.05 321.9 1018.49C320.36 1016.28 318.61 1014.86 318.54 1014.81C318.24 1014.57 317.84 1014.53 317.5 1014.69C317.16 1014.86 316.94 1015.22 316.91 1015.62C316.91 1015.68 316.66 1019.69 313.99 1023.48C315.07 1022.93 316.28 1022.62 317.56 1022.62V1022.6Z" fill="white"/>
<path d="M311.73 1025.19C313.63 1023.15 316.22 1022.33 318.7 1022.69C317.28 1020.73 315.03 1019.47 312.09 1019C309.54 1018.59 307.37 1018.92 307.28 1018.93C306.91 1018.99 306.6 1019.26 306.47 1019.64C306.34 1020.01 306.42 1020.44 306.67 1020.74C306.7 1020.79 309.18 1023.82 309.79 1028.51C310.19 1027.3 310.84 1026.15 311.74 1025.19H311.73Z" fill="white"/>
<path d="M309.31 1031.44C309.31 1028.57 310.6 1026.01 312.58 1024.39C310.29 1024.08 307.86 1024.9 305.47 1026.79C303.4 1028.44 302.08 1030.31 302.03 1030.39C301.81 1030.71 301.77 1031.14 301.92 1031.5C302.08 1031.87 302.41 1032.1 302.79 1032.13C302.84 1032.13 306.59 1032.4 310.13 1035.26C309.61 1034.11 309.32 1032.81 309.32 1031.44H309.31Z" fill="white"/>
<path d="M311.73 1037.68C309.83 1035.65 309.06 1032.87 309.4 1030.22C307.57 1031.74 306.39 1034.15 305.95 1037.3C305.57 1040.03 305.88 1042.35 305.89 1042.45C305.94 1042.84 306.2 1043.18 306.55 1043.32C306.9 1043.45 307.3 1043.37 307.58 1043.1C307.62 1043.07 310.45 1040.41 314.83 1039.76C313.7 1039.33 312.63 1038.64 311.73 1037.67V1037.68Z" fill="white"/>
<path d="M317.56 1040.27C314.88 1040.27 312.49 1038.89 310.98 1036.77C310.69 1039.22 311.45 1041.83 313.22 1044.39C314.76 1046.6 316.51 1048.02 316.58 1048.07C316.88 1048.3 317.28 1048.35 317.62 1048.19C317.96 1048.02 318.18 1047.66 318.21 1047.25C318.21 1047.2 318.46 1043.19 321.13 1039.4C320.05 1039.95 318.84 1040.26 317.56 1040.26V1040.27Z" fill="white"/>
<path d="M323.4 1037.68C321.5 1039.72 318.91 1040.54 316.43 1040.18C317.85 1042.14 320.1 1043.4 323.04 1043.87C325.59 1044.28 327.76 1043.95 327.85 1043.94C328.22 1043.88 328.53 1043.6 328.66 1043.23C328.79 1042.85 328.71 1042.43 328.46 1042.13C328.43 1042.08 325.95 1039.05 325.34 1034.36C324.94 1035.57 324.29 1036.72 323.39 1037.68H323.4Z" fill="white"/>
<path d="M325.81 1031.44C325.81 1034.31 324.52 1036.87 322.54 1038.49C324.83 1038.8 327.26 1037.98 329.65 1036.09C331.72 1034.44 333.04 1032.56 333.09 1032.49C333.31 1032.17 333.35 1031.74 333.2 1031.38C333.04 1031.01 332.71 1030.78 332.33 1030.74C332.28 1030.74 328.53 1030.48 324.99 1027.62C325.51 1028.77 325.8 1030.07 325.8 1031.44H325.81Z" fill="white"/>
<path d="M323.4 1025.19C325.3 1027.22 326.07 1029.99 325.73 1032.65C327.56 1031.13 328.74 1028.72 329.18 1025.57C329.56 1022.84 329.25 1020.52 329.24 1020.42C329.19 1020.02 328.93 1019.69 328.58 1019.55C328.23 1019.41 327.83 1019.5 327.55 1019.77C327.51 1019.8 324.68 1022.46 320.3 1023.11C321.43 1023.54 322.5 1024.23 323.4 1025.2V1025.19Z" fill="white"/>
<path d="M317.56 1038.09C320.99 1038.09 323.77 1035.11 323.77 1031.44C323.77 1027.77 320.99 1024.79 317.56 1024.79C314.13 1024.79 311.35 1027.77 311.35 1031.44C311.35 1035.11 314.13 1038.09 317.56 1038.09Z" fill="white"/>
</svg>
