<svg width="1432" height="2334" viewBox="0 0 1432 2334" fill="none" xmlns="http://www.w3.org/2000/svg">
<path d="M1425.99 2136.27V196.732C1318.09 179.277 1233 102.441 1213.67 5H217.324C197.994 102.441 112.906 179.284 5 196.732V2136.27C112.897 2153.72 197.994 2230.56 217.324 2328H1213.68C1233.01 2230.56 1318.09 2153.72 1426 2136.27H1425.99Z" stroke="white" stroke-width="9.99" stroke-linecap="round" stroke-linejoin="round"/>
<path d="M5.00817 5.00817C21.1083 21.1083 45.095 23.2413 58.5635 9.76465C45.0869 23.2413 47.2117 47.2117 63.3119 63.3118C47.2117 47.2117 23.2414 45.0787 9.76466 58.5554C23.2414 45.0787 21.1001 21.1083 5 5L5.00817 5.00817Z" stroke="white" stroke-width="9.99" stroke-linecap="round" stroke-linejoin="round"/>
<path d="M63.3198 63.3203C74.0259 74.0265 85.8354 96.2806 64.1043 116.402C45.4707 133.654 24.3281 125.637 14.8069 111.833C6.22564 99.3944 9.00434 85.2312 21.0672 76.7398C41.3026 62.4949 63.377 89.4074 51.7228 100.53" stroke="white" stroke-width="9.99" stroke-linecap="round" stroke-linejoin="round"/>
<path d="M63.3203 63.3207C74.0265 74.0269 96.2806 85.8364 116.402 64.1053C133.654 45.4717 125.637 24.329 111.833 14.8079C99.3944 6.22661 85.2312 9.00531 76.7398 21.0681C62.4949 41.3036 89.4074 63.3779 100.53 51.7238" stroke="white" stroke-width="9.99" stroke-linecap="round" stroke-linejoin="round"/>
<path d="M1426.47 5.00817C1410.37 21.1083 1386.39 23.2413 1372.92 9.76465C1386.4 23.2413 1384.27 47.2117 1368.17 63.3118C1384.27 47.2117 1408.24 45.0787 1421.72 58.5554C1408.24 45.0787 1410.38 21.1083 1426.48 5L1426.47 5.00817Z" stroke="white" stroke-width="9.99" stroke-linecap="round" stroke-linejoin="round"/>
<path d="M1368.17 63.3203C1357.47 74.0265 1345.66 96.2806 1367.39 116.402C1386.02 133.654 1407.16 125.637 1416.68 111.833C1425.27 99.3944 1422.49 85.2312 1410.42 76.7398C1390.19 62.4949 1368.11 89.4074 1379.77 100.53" stroke="white" stroke-width="9.99" stroke-linecap="round" stroke-linejoin="round"/>
<path d="M1368.17 63.3207C1357.47 74.0269 1335.21 85.8364 1315.09 64.1053C1297.84 45.4717 1305.85 24.329 1319.66 14.8079C1332.1 6.22661 1346.26 9.00531 1354.75 21.0681C1369 41.3036 1342.08 63.3779 1330.96 51.7238" stroke="white" stroke-width="9.99" stroke-linecap="round" stroke-linejoin="round"/>
<path d="M5.00817 2328.21C21.1083 2312.11 45.095 2309.97 58.5635 2323.45C45.0869 2309.97 47.2117 2286 63.3119 2269.9C47.2117 2286 23.2414 2288.14 9.76466 2274.66C23.2414 2288.14 21.1001 2312.11 5 2328.21L5.00817 2328.21Z" stroke="white" stroke-width="9.99" stroke-linecap="round" stroke-linejoin="round"/>
<path d="M63.3198 2269.9C74.0259 2259.2 85.8354 2236.94 64.1043 2216.82C45.4707 2199.57 24.3281 2207.59 14.8069 2221.39C6.22564 2233.83 9.00434 2247.99 21.0672 2256.48C41.3026 2270.73 63.377 2243.82 51.7228 2232.69" stroke="white" stroke-width="9.99" stroke-linecap="round" stroke-linejoin="round"/>
<path d="M63.3203 2269.9C74.0265 2259.2 96.2806 2247.39 116.402 2269.12C133.654 2287.75 125.637 2308.89 111.833 2318.41C99.3944 2327 85.2312 2324.22 76.7398 2312.15C62.4949 2291.92 89.4074 2269.84 100.53 2281.5" stroke="white" stroke-width="9.99" stroke-linecap="round" stroke-linejoin="round"/>
<path d="M1426.47 2328.21C1410.37 2312.11 1386.39 2309.97 1372.92 2323.45C1386.4 2309.97 1384.27 2286 1368.17 2269.9C1384.27 2286 1408.24 2288.14 1421.72 2274.66C1408.24 2288.14 1410.38 2312.11 1426.48 2328.21L1426.47 2328.21Z" stroke="white" stroke-width="9.99" stroke-linecap="round" stroke-linejoin="round"/>
<path d="M1368.17 2269.9C1357.47 2259.2 1345.66 2236.94 1367.39 2216.82C1386.02 2199.57 1407.16 2207.59 1416.68 2221.39C1425.27 2233.83 1422.49 2247.99 1410.42 2256.48C1390.19 2270.73 1368.11 2243.82 1379.77 2232.69" stroke="white" stroke-width="9.99" stroke-linecap="round" stroke-linejoin="round"/>
<path d="M1368.17 2269.9C1357.47 2259.2 1335.21 2247.39 1315.09 2269.12C1297.84 2287.75 1305.85 2308.89 1319.66 2318.41C1332.1 2327 1346.26 2324.22 1354.75 2312.15C1369 2291.92 1342.08 2269.84 1330.96 2281.5" stroke="white" stroke-width="9.99" stroke-linecap="round" stroke-linejoin="round"/>
</svg>
