<svg width="224" height="102" viewBox="0 0 224 102" fill="none" xmlns="http://www.w3.org/2000/svg">
<path d="M0.150516 86.0926C0.148201 80.8626 1.50458 76.3095 3.36324 75.7211C5.15246 75.1553 6.49726 78.6324 6.45791 83.5969C6.41393 90.2712 7.86059 94.3655 9.8697 93.4417C11.3626 92.7628 12.5894 89.3495 12.6426 85.5206C12.8417 70.7935 0.527806 72.4991 0.509289 49.1576C0.495401 36.3069 3.96042 28.4516 10.7192 28.5627C15.7003 28.6306 20.2115 33.4944 20.0078 43.5367C19.9176 48.1844 18.4686 51.9721 16.5891 52.2787C14.7096 52.5853 13.3532 49.0671 13.4157 44.1848C13.5014 38.2223 11.9853 33.6898 10.1868 33.7268C8.49943 33.7721 7.30507 36.6381 7.27035 41.327C7.16619 58.3625 20.3319 59.4797 19.9685 77.0728C19.774 86.8292 16.1053 95.1885 9.81878 98.3055C4.19651 101.11 0.171347 97.4517 0.150516 86.0926Z" fill="white"/>
<path d="M30.6089 84.937C30.7895 84.8774 30.97 84.8156 31.1506 84.756C31.7292 84.5626 32.1019 84.0338 31.8889 81.3057C31.3612 76.5612 30.8311 71.7633 30.2965 66.9078C28.8452 67.239 27.3962 67.5785 25.9519 67.9282C25.1834 73.0821 24.4196 78.2977 23.6627 83.5771C23.3363 87.0706 24.077 87.2311 24.7552 86.9821C24.9334 86.9163 25.1117 86.8525 25.2922 86.7887C25.2644 87.9388 25.239 89.0889 25.2112 90.239C23.2345 90.9962 21.2694 91.78 19.3158 92.5907C19.3389 91.3974 19.3621 90.202 19.3852 89.0087C19.4431 88.9861 19.5033 88.9634 19.5611 88.9387C20.5171 88.5602 21.8341 86.2106 22.3364 82.6409C24.9404 64.2928 27.623 46.7141 30.3543 29.8184C31.2131 29.8123 32.0718 29.804 32.9305 29.7979C34.773 46.4054 36.5784 62.3505 38.3722 77.7237C38.7796 81.0217 38.9578 82.3035 39.8721 82.036C39.9323 82.0175 39.9948 82.0011 40.055 81.9826C40.0226 83.038 39.9902 84.0935 39.9578 85.1489C36.789 86.1242 33.6411 87.1673 30.5187 88.2762C30.5487 87.1632 30.5788 86.048 30.6089 84.935V84.937ZM29.9493 63.6426C29.4794 59.4722 29.0072 55.2606 28.5327 51.0017C27.8522 55.4149 27.1763 59.8734 26.5028 64.3792C27.6485 64.1282 28.7989 63.8833 29.9493 63.6426Z" fill="white"/>
<path d="M53.8271 32.6353C53.7531 32.6353 53.679 32.6374 53.6072 32.6394C45.1681 32.7444 44.8162 41.758 44.7352 44.2413C44.2445 44.2825 43.7538 44.3236 43.2631 44.3648C43.4159 39.4845 43.5686 34.6043 43.7191 29.7241C49.7834 29.6829 55.8501 29.65 61.9168 29.6191C57.8176 45.4264 53.6628 61.9537 49.5103 79.4399C49.9779 79.3226 50.4478 79.2094 50.9176 79.0942C59.4239 77.045 59.7896 68.9223 59.8544 66.5809C60.3521 66.5007 60.8474 66.4225 61.3451 66.3443C61.2039 70.8069 61.0627 75.2694 60.9215 79.732C54.3525 81.1167 47.8438 82.7749 41.4207 84.7069C45.5361 66.3525 49.6932 49.0742 53.8248 32.6374L53.8271 32.6353Z" fill="white"/>
<path d="M73.9599 74.634C74.1497 74.6073 74.3371 74.5784 74.5269 74.5517C75.1334 74.4632 75.5199 74.0723 75.2792 71.8009C74.6936 67.8342 74.1149 63.8448 73.5409 59.8287C72.041 59.981 70.5435 60.1435 69.0482 60.3163C68.2566 64.4271 67.4603 68.5687 66.6618 72.7432C66.3169 75.5207 67.0946 75.7327 67.8099 75.6092C67.9973 75.5763 68.1871 75.5454 68.3746 75.5125C68.3468 76.4404 68.3191 77.3683 68.2913 78.2962C66.2058 78.6686 64.1226 79.0678 62.0487 79.4957C62.0788 78.5452 62.1089 77.5946 62.139 76.6441C62.2015 76.6318 62.264 76.6194 62.3265 76.6071C63.338 76.4075 64.736 74.669 65.2707 71.8523C68.039 57.3783 70.7726 43.3117 73.4553 29.5659C74.3163 29.5618 75.175 29.5598 76.0361 29.5557C77.9688 43.1697 79.9571 56.4833 82.0125 69.5892C82.4777 72.4037 82.6814 73.5065 83.6304 73.4036C83.6929 73.3975 83.7577 73.3893 83.8202 73.3831C83.8017 74.2698 83.7809 75.1545 83.7624 76.0413C80.4617 76.4157 77.1703 76.856 73.8881 77.3622C73.9136 76.4507 73.9367 75.5413 73.9622 74.6299L73.9599 74.634ZM73.1659 57.1335C72.6637 53.6935 72.166 50.2329 71.673 46.7517C70.9902 50.3069 70.3027 53.8848 69.6153 57.4853C70.798 57.3639 71.9832 57.2466 73.1659 57.1335Z" fill="white"/>
<path d="M115.082 69.427C115.075 67.1762 114.306 65.2381 113.089 63.4317C110.594 70.6224 107.696 75.5602 102.897 75.7269C97.1317 75.9573 93.757 69.2871 93.8565 63.0696C93.9815 54.9736 97.8354 50.6715 101.217 49.0687C100.15 46.8303 99.4672 44.3202 99.4996 41.2793C99.5876 33.6997 102.773 28.4615 107.478 28.4697C110.716 28.4697 113.151 31.49 113.161 35.5391C113.172 40.2959 110.378 44.1453 108.351 45.3139C110.212 48.3898 112.839 50.9534 115.144 53.7391C115.591 51.8792 115.88 49.2436 115.901 44.742C115.89 41.269 117.44 38.5738 119.445 38.5882C121.449 38.6005 123.037 41.3328 123.074 44.8284C123.111 48.3219 121.523 50.9966 119.568 50.9636C117.503 51.0603 116.533 52.661 115.862 54.6464C118.399 57.8211 120.396 61.4216 120.436 66.3882C120.521 75.8771 114.961 78.5991 109.182 78.669C109.182 77.8111 109.184 76.9552 109.186 76.0972C112.568 76.0643 115.093 73.3506 115.079 69.425L115.082 69.427ZM106.043 67.3346C108.101 67.2935 110.471 65.415 112.251 62.3351C109.325 58.5288 104.768 55.1896 101.955 50.474C100.518 51.9862 99.9209 55.1711 99.8931 57.8869C99.8468 62.2281 101.999 67.421 106.043 67.3346ZM107.721 44.1597C109.034 43.3162 110.49 39.7794 110.492 36.0534C110.492 33.4179 109.647 31.2349 108.244 31.2349C106.953 31.2349 105.872 33.3603 105.856 36.323C105.839 39.4132 106.571 41.9171 107.721 44.1618V44.1597Z" fill="white"/>
<path d="M150.257 71.3913C150.25 71.1629 150.246 70.9346 150.239 70.7062C149.452 74.7737 147.85 78.2384 144.656 77.7838C139.013 76.9279 133.131 66.1305 132.911 52.4794C132.694 38.8263 137.999 28.5391 145.012 28.4692C151.081 28.4033 155.845 36.0488 156.162 46.3009C156.273 49.959 154.945 52.6337 153.005 52.4609C151.065 52.2881 149.496 49.4323 149.399 45.8771C149.165 37.5651 147.297 31.3125 145.01 31.3125C141.918 31.3125 139.765 39.0259 139.992 49.3336C140.228 60.1166 142.346 68.406 146.656 68.9512C149.45 69.303 150.1 65.7786 149.954 60.5589C149.933 59.8285 149.913 59.0961 149.894 58.3657C148.422 58.2217 146.947 58.0838 145.471 57.9563C145.445 56.9193 145.417 55.8824 145.392 54.8454C149.135 55.1376 152.873 55.4771 156.6 55.8659C156.775 61.672 156.951 67.4781 157.13 73.2862C157.192 75.393 157.437 75.9938 158.15 76.1255C158.326 76.1584 158.5 76.1892 158.676 76.2222C158.706 77.1645 158.734 78.1068 158.764 79.047C156.898 78.6808 155.026 78.3372 153.151 78.0162C151.412 77.7138 150.369 75.3683 150.257 71.3934V71.3913Z" fill="white"/>
<path d="M171.883 79.0305C172.068 79.0758 172.253 79.121 172.438 79.1642C173.031 79.3103 173.39 79.0223 173.01 76.3929C172.186 71.7472 171.362 67.1468 170.538 62.5916C169.057 62.353 167.575 62.1225 166.089 61.9024C165.557 66.0378 165.025 70.1362 164.485 74.2017C164.314 76.969 165.11 77.4936 165.819 77.6479C166.006 77.687 166.191 77.7281 166.379 77.7693C166.411 78.7425 166.441 79.7136 166.474 80.6867C164.409 80.2115 162.337 79.765 160.261 79.3432C160.231 78.3948 160.203 77.4483 160.173 76.5019C160.236 76.5143 160.298 76.5266 160.361 76.5369C161.372 76.7324 162.673 75.502 163.032 72.778C164.902 58.8245 166.735 44.48 168.548 29.6562C169.406 29.6604 170.267 29.6665 171.126 29.6707C173.911 44.7043 176.704 60.24 179.484 76.3641C180.105 79.8391 180.366 81.232 181.283 81.4891C181.343 81.5056 181.405 81.5241 181.466 81.5406C181.498 82.5878 181.53 83.635 181.563 84.6802C178.387 83.7256 175.191 82.8388 171.978 82.02C171.945 81.0221 171.913 80.0263 171.881 79.0285L171.883 79.0305ZM169.999 59.5487C169.284 55.6704 168.568 51.8251 167.856 48.0106C167.397 51.7202 166.939 55.3988 166.478 59.0508C167.652 59.2113 168.825 59.3779 169.999 59.5487Z" fill="white"/>
<path d="M192.208 33.1782C192.134 33.1761 192.06 33.1741 191.988 33.172C183.563 33.0218 183.766 42.1548 183.843 44.7142C183.352 44.671 182.864 44.6278 182.373 44.5846C182.222 39.6365 182.072 34.6884 181.919 29.7402C187.984 29.7814 194.046 29.8287 200.105 29.8822C196.923 49.2591 193.858 67.3542 190.826 84.4C191.284 84.5502 191.743 84.7004 192.198 84.8527C200.436 87.7619 200.249 77.7278 200.2 74.8865C200.679 75.0264 201.156 75.1663 201.633 75.3082C201.746 80.8263 201.862 86.3464 201.976 91.8644C195.761 89.3461 189.437 87.0994 183.026 85.1284C186.062 68.817 189.097 51.5799 192.203 33.1782H192.208Z" fill="white"/>
<path d="M213.984 93.3193C214.158 93.3975 214.331 93.4736 214.505 93.5518C215.058 93.8028 215.401 93.4715 215.095 90.0624C214.408 84.0217 213.709 78.0614 212.998 72.1751C211.581 71.7595 210.16 71.3521 208.737 70.9529C208.174 76.1541 207.621 81.2895 207.072 86.359C206.885 89.8319 207.633 90.587 208.299 90.8668C208.475 90.9388 208.651 91.0129 208.825 91.087C208.843 92.3214 208.862 93.5579 208.88 94.7924C206.945 93.9324 205.001 93.1012 203.043 92.2967C203.02 91.1075 202.996 89.9204 202.971 88.7312C203.031 88.7538 203.089 88.7765 203.149 88.7991C204.105 89.1735 205.341 87.791 205.705 84.3982C207.591 67.0438 209.551 48.9364 211.623 29.9854C212.482 29.9936 213.341 30.0018 214.199 30.01C216.669 49.3252 219.016 69.5066 221.199 90.6384C221.687 95.1936 221.893 97.0288 222.743 97.4506C222.8 97.4794 222.856 97.5062 222.912 97.535V101.621C219.981 100.066 217.016 98.576 214.021 97.1543C214.007 95.8746 213.996 94.5969 213.982 93.3172L213.984 93.3193ZM212.528 68.2454C211.905 63.2417 211.274 58.2936 210.635 53.401C210.13 58.1063 209.635 62.7602 209.142 67.3627C210.274 67.6528 211.401 67.947 212.528 68.2454Z" fill="white"/>
<path d="M6.15926 19.435H6.59904C7.19622 19.435 7.38602 19.2107 7.38602 17.7582V2.13818C1.31935 2.44473 1.25685 5.37863 1.25685 6.21806H0V0.992188H20.4961V6.21806H19.2393C19.2393 5.38069 19.1768 2.44679 13.1078 2.13818V17.7582C13.1078 19.2107 13.2976 19.435 13.8948 19.435H14.3346V20.5522H6.16157V19.435H6.15926Z" fill="white"/>
<path d="M27.6298 19.435H28.1019C28.6042 19.435 28.919 19.2951 28.6667 18.3446L26.9377 13.343H23.1648L21.4682 18.2047C21.2483 19.2951 21.908 19.435 22.5051 19.435H22.9773V20.5522H17.7578V19.435H17.9152C18.7647 19.435 19.8965 18.8486 20.2738 17.7582L26.153 0.992188H28.3542L34.2334 17.7582C34.6732 18.9597 34.863 19.435 35.6477 19.435H35.8051V20.5522H27.6321V19.435H27.6298ZM26.5604 12.2258L25.0512 7.95042L23.5745 12.2258H26.5604Z" fill="white"/>
<path d="M35.738 19.435H36.1778C36.775 19.435 36.9648 19.2107 36.9648 17.7582V3.17101C36.9648 2.33157 36.8074 2.10937 36.1778 2.10937H35.738V0.992188H45.1378C50.4823 1.02099 53.3733 3.14426 53.3733 7.13979C53.3733 10.4646 51.392 12.5611 47.6515 13.203C49.4129 13.6495 50.6999 14.4889 51.4545 16.0258L52.3664 17.8981C53.0585 19.1285 53.9381 19.435 54.6926 19.435H54.85V20.5522H46.6145C46.6145 19.6572 46.5196 18.7087 46.3322 17.7849C45.8924 15.4662 44.948 13.3985 43.5962 13.3985C42.9991 13.3985 42.6843 13.8738 42.6843 14.7399V17.7582C42.6843 19.2107 42.8741 19.435 43.4713 19.435H43.911V20.5522H35.738V19.435ZM45.0128 12.2813C46.7094 12.2813 47.5589 10.298 47.5589 7.13979C47.5589 3.98164 46.7094 2.10937 45.0128 2.10937H42.6866V12.2813H45.0128Z" fill="white"/>
<path d="M54.9473 10.7734C54.9473 4.93234 59.3173 0.545898 65.1641 0.545898C71.0109 0.545898 75.3485 4.93234 75.3485 10.7734C75.3485 16.6144 70.9785 21.0009 65.1317 21.0009C59.2849 21.0009 54.9473 16.6144 54.9473 10.7734ZM65.1641 19.8282C67.3028 19.8282 68.9046 15.9437 68.9046 10.7734C68.9046 5.60307 67.2704 1.72069 65.1317 1.72069C62.993 1.72069 61.3912 5.60512 61.3912 10.7734C61.3912 15.9417 63.0254 19.8282 65.1641 19.8282Z" fill="white"/>
<path d="M81.5426 19.435H81.9823C82.5795 19.435 82.7693 19.2107 82.7693 17.7582V2.13818C76.7026 2.44473 76.6401 5.37863 76.6401 6.21806H75.3833V0.992188H95.8794V6.21806H94.6226C94.6226 5.38069 94.5601 2.44679 88.4934 2.13818V17.7582C88.4934 19.2107 88.6809 19.435 89.2781 19.435H89.7179V20.5522H81.5449V19.435H81.5426Z" fill="white"/>
<path d="M106.534 4.76552V18.3734C106.534 19.2107 106.691 19.435 107.321 19.435H107.76V20.5522H104.05V19.435H104.49C105.087 19.435 105.277 19.2107 105.277 18.3734V3.17101C105.277 2.33157 105.089 2.10937 104.49 2.10937H104.05V0.992188H111.218L115.149 12.2258L119.142 0.992188H126.09V2.10937H125.65C125.021 2.10937 124.863 2.33363 124.863 3.17101V17.7582C124.863 19.2107 125.051 19.435 125.65 19.435H126.09V20.5522H117.917V19.435H118.357C118.954 19.435 119.144 19.2107 119.144 17.7582V4.68116L113.454 20.5543H112.165L112.198 20.4143L112.073 20.5543L106.541 4.76552H106.534Z" fill="white"/>
<path d="M136.899 19.435H137.372C137.874 19.435 138.189 19.2951 137.936 18.3446L136.207 13.343H132.434L130.738 18.2047C130.518 19.2951 131.178 19.435 131.775 19.435H132.247V20.5522H127.027V19.435H127.185C128.034 19.435 129.166 18.8486 129.543 17.7582L135.423 0.992188H137.624L143.503 17.7582C143.943 18.9597 144.133 19.435 144.917 19.435H145.075V20.5522H136.902V19.435H136.899ZM135.83 12.2258L134.321 7.95042L132.844 12.2258H135.83Z" fill="white"/>
<path d="M145.702 16.3064C145.702 14.8806 146.929 13.7634 148.595 13.7634C150.262 13.7634 151.424 14.8806 151.424 16.3064C151.424 18.2075 152.776 19.5757 154.6 19.5757C155.951 19.5757 157.021 18.7095 157.021 17.5635C157.021 13.1195 146.017 12.5331 146.017 6.21883C146.017 2.72532 148.973 0.573242 154.724 0.573242C158.97 0.573242 162.897 2.08134 162.897 5.2395C162.897 6.69205 161.703 7.81129 160.069 7.81129C158.435 7.81129 157.208 6.6941 157.208 5.2395C157.208 3.45159 155.856 2.08134 154.315 2.08134C152.868 2.08134 151.864 2.89197 151.864 4.23341C151.864 9.03958 163.432 10.1568 163.432 15.7468C163.432 18.8206 160.319 20.9994 154.597 20.9994C149.473 20.9994 145.7 19.3782 145.7 16.3044L145.702 16.3064Z" fill="white"/>
<path d="M170.536 19.435H170.976C171.573 19.435 171.763 19.2107 171.763 17.7582V2.13818C165.696 2.44473 165.631 5.37863 165.631 6.21806H164.374V0.992188H184.87V6.21806H183.614C183.614 5.38069 183.551 2.44679 177.484 2.13818V17.7582C177.484 19.2107 177.672 19.435 178.269 19.435H178.709V20.5522H170.536V19.435Z" fill="white"/>
<path d="M186.442 19.435H186.882C187.511 19.435 187.669 19.2107 187.669 18.3734V3.17101C187.669 2.33157 187.511 2.10937 186.882 2.10937H186.442V0.992188H201.249V6.21806H200.022C200.022 5.35188 199.96 2.30689 193.388 2.11143V9.65603C197.946 9.60048 198.23 9.15402 198.23 7.1974H199.487V13.2895H198.23C198.23 11.3328 197.948 10.8864 193.388 10.8308V19.4371C200.117 19.2972 200.179 16.1966 200.179 15.3304H201.436V20.5563H186.44V19.4391L186.442 19.435Z" fill="white"/>
<path d="M203.952 19.435H204.392C204.989 19.435 205.177 19.2107 205.177 17.7582V3.17101C205.177 2.33157 205.019 2.10937 204.392 2.10937H203.952V0.992188H213.352C218.697 1.02099 221.588 3.14426 221.588 7.13979C221.588 10.4646 219.606 12.5611 215.866 13.203C217.627 13.6495 218.914 14.4889 219.669 16.0258L220.581 17.8981C221.273 19.1285 222.152 19.435 222.907 19.435H223.064V20.5522H214.829C214.829 19.6572 214.734 18.7087 214.546 17.7849C214.107 15.4662 213.162 13.3985 211.81 13.3985C211.213 13.3985 210.899 13.8738 210.899 14.7399V17.7582C210.899 19.2107 211.088 19.435 211.685 19.435H212.125V20.5522H203.952V19.435ZM213.227 12.2813C214.924 12.2813 215.773 10.298 215.773 7.13979C215.773 3.98164 214.924 2.10937 213.227 2.10937H210.901V12.2813H213.227Z" fill="white"/>
</svg>
