<svg width="320" height="248" viewBox="0 0 320 248" fill="none" xmlns="http://www.w3.org/2000/svg">
<path d="M160.982 15.3759C160.364 15.3759 159.864 14.8763 159.864 14.2585V1.59586C159.864 0.978127 160.364 0.478516 160.982 0.478516C161.599 0.478516 162.099 0.978127 162.099 1.59586V14.2585C162.099 14.8763 161.599 15.3759 160.982 15.3759Z" fill="#FF6400"/>
<path d="M116.646 16.2388C116.207 16.2388 115.792 15.9802 115.613 15.5493L112.039 6.94256C111.803 6.37271 112.072 5.71827 112.642 5.48203C113.212 5.24579 113.867 5.51555 114.103 6.08539L117.677 14.6921C117.913 15.262 117.643 15.9164 117.073 16.1526C116.933 16.2101 116.788 16.2388 116.646 16.2388Z" fill="#FF6400"/>
<path d="M77.1683 33.0408C76.8682 33.0408 76.5697 32.9211 76.3495 32.6833L70.22 26.0814C69.8002 25.6297 69.8258 24.9226 70.2791 24.5028C70.7308 24.083 71.4379 24.1085 71.8577 24.5618L77.9872 31.1637C78.407 31.6154 78.3814 32.3226 77.9281 32.7424C77.7126 32.9419 77.4397 33.0408 77.1683 33.0408Z" fill="#FF6400"/>
<path d="M48.3792 59.2964C48.1925 59.2964 48.0025 59.2501 47.8286 59.1496L33.8778 51.2181C33.3414 50.9132 33.1531 50.2316 33.4596 49.6937C33.7644 49.1574 34.4476 48.969 34.9823 49.2739L48.9331 57.2054C49.4695 57.5103 49.6578 58.1919 49.3529 58.7298C49.147 59.0921 48.7687 59.2948 48.3808 59.2948L48.3792 59.2964Z" fill="#FF6400"/>
<path d="M30.0372 90.0231C29.9462 90.0231 29.8537 90.0119 29.7611 89.988L8.0719 84.4731C7.47332 84.3215 7.11258 83.7133 7.26422 83.1147C7.41586 82.5162 8.02401 82.1554 8.62259 82.3071L30.3118 87.8219C30.9103 87.9736 31.2711 88.5817 31.1195 89.1803C30.9902 89.6863 30.5368 90.0231 30.0372 90.0231Z" fill="#FF6400"/>
<path d="M21.0665 123.319H5.28482C4.66709 123.319 4.16748 122.819 4.16748 122.201C4.16748 121.584 4.66709 121.084 5.28482 121.084H21.0665C21.6842 121.084 22.1838 121.584 22.1838 122.201C22.1838 122.819 21.6842 123.319 21.0665 123.319Z" fill="#FF6400"/>
<path d="M15.7656 160.243C15.266 160.243 14.8127 159.906 14.6834 159.4C14.5318 158.802 14.8925 158.194 15.4911 158.042L24.7794 155.681C25.378 155.529 25.9861 155.89 26.1378 156.489C26.2894 157.087 25.9286 157.695 25.3301 157.847L16.0418 160.208C15.9492 160.232 15.8566 160.243 15.7656 160.243Z" fill="#FF6400"/>
<path d="M32.4617 196.391C32.0722 196.391 31.6955 196.189 31.4896 195.826C31.1847 195.29 31.3715 194.608 31.9078 194.303L47.8092 185.263C48.3455 184.958 49.0271 185.144 49.3319 185.681C49.6368 186.217 49.4501 186.899 48.9137 187.204L33.0124 196.244C32.8384 196.343 32.6484 196.391 32.4617 196.391Z" fill="#FF6400"/>
<path d="M71.939 219.229C71.6676 219.229 71.3947 219.13 71.1792 218.93C70.7274 218.51 70.7003 217.803 71.1201 217.351L76.8888 211.137C77.3086 210.686 78.0157 210.659 78.4674 211.078C78.9192 211.498 78.9463 212.205 78.5265 212.657L72.7578 218.871C72.5375 219.109 72.2391 219.229 71.939 219.229Z" fill="#FF6400"/>
<path d="M113.153 238.448C113.011 238.448 112.866 238.421 112.725 238.362C112.155 238.126 111.886 237.472 112.122 236.902L116.625 226.057C116.861 225.487 117.515 225.217 118.085 225.454C118.655 225.69 118.925 226.344 118.689 226.914L114.186 237.759C114.007 238.188 113.592 238.448 113.153 238.448Z" fill="#FF6400"/>
<path d="M160.982 247.083C160.364 247.083 159.864 246.583 159.864 245.965V236.355C159.864 235.737 160.364 235.237 160.982 235.237C161.599 235.237 162.099 235.737 162.099 236.355V245.965C162.099 246.583 161.599 247.083 160.982 247.083Z" fill="#FF6400"/>
<path d="M208.497 237.76C208.058 237.76 207.643 237.502 207.465 237.071L203.782 228.202C203.546 227.632 203.816 226.978 204.385 226.742C204.955 226.506 205.61 226.775 205.846 227.345L209.528 236.214C209.765 236.783 209.495 237.438 208.925 237.674C208.785 237.732 208.639 237.76 208.497 237.76Z" fill="#FF6400"/>
<path d="M251.363 220.433C251.063 220.433 250.765 220.313 250.545 220.075L241.951 210.819C241.531 210.367 241.556 209.66 242.01 209.24C242.463 208.821 243.168 208.848 243.588 209.3L252.182 218.556C252.602 219.008 252.576 219.715 252.123 220.135C251.908 220.334 251.635 220.433 251.363 220.433Z" fill="#FF6400"/>
<path d="M285.731 194.25C285.544 194.25 285.355 194.204 285.181 194.103L274.832 188.22C274.296 187.915 274.108 187.233 274.414 186.697C274.719 186.161 275.401 185.972 275.937 186.279L286.285 192.162C286.821 192.467 287.01 193.149 286.703 193.685C286.497 194.048 286.119 194.25 285.731 194.25Z" fill="#FF6400"/>
<path d="M312.361 161.81C312.27 161.81 312.177 161.799 312.084 161.775L288.71 155.831C288.111 155.679 287.75 155.071 287.902 154.472C288.054 153.874 288.663 153.513 289.26 153.664L312.635 159.609C313.234 159.76 313.594 160.369 313.443 160.967C313.314 161.473 312.86 161.81 312.361 161.81Z" fill="#FF6400"/>
<path d="M318.803 123.319H299.099C298.481 123.319 297.982 122.819 297.982 122.201C297.982 121.584 298.481 121.084 299.099 121.084H318.803C319.42 121.084 319.92 121.584 319.92 122.201C319.92 122.819 319.42 123.319 318.803 123.319Z" fill="#FF6400"/>
<path d="M295.741 89.0533C295.241 89.0533 294.788 88.7165 294.659 88.2105C294.507 87.6119 294.868 87.0037 295.466 86.8521L307.092 83.8959C307.688 83.7443 308.298 84.105 308.45 84.7036C308.602 85.3022 308.241 85.9103 307.642 86.062L296.017 89.0181C295.924 89.0421 295.832 89.0533 295.741 89.0533Z" fill="#FF6400"/>
<path d="M272.448 60.0475C272.058 60.0475 271.681 59.8448 271.475 59.4825C271.171 58.9462 271.357 58.2646 271.894 57.9597L287.939 48.8374C288.475 48.5325 289.157 48.7209 289.461 49.2556C289.766 49.7919 289.58 50.4735 289.043 50.7784L272.998 59.9007C272.824 59.9996 272.634 60.0475 272.448 60.0475Z" fill="#FF6400"/>
<path d="M244.096 33.7945C243.824 33.7945 243.552 33.6956 243.336 33.496C242.884 33.0762 242.857 32.3691 243.277 31.9174L250.803 23.8103C251.223 23.3586 251.93 23.3314 252.382 23.7512C252.833 24.171 252.861 24.8781 252.441 25.3299L244.915 33.437C244.694 33.6748 244.396 33.7945 244.096 33.7945Z" fill="#FF6400"/>
<path d="M203.5 20.9636C203.358 20.9636 203.212 20.9365 203.072 20.8774C202.502 20.6412 202.232 19.9867 202.469 19.4169L208.628 4.58021C208.865 4.01036 209.519 3.73901 210.089 3.97684C210.659 4.21308 210.928 4.86752 210.692 5.43737L204.532 20.2741C204.354 20.7034 203.939 20.9636 203.5 20.9636Z" fill="#FF6400"/>
<path d="M3.75426 189.789C3.75426 191.724 4.90033 193.294 6.31297 193.294C4.90033 193.294 3.75426 194.863 3.75426 196.798C3.75426 194.863 2.60978 193.294 1.19714 193.294C2.60978 193.294 3.75426 191.725 3.75426 189.789Z" fill="#FF6400"/>
<path d="M3.83407 196.797H3.67445C3.67445 194.909 2.56349 193.373 1.19714 193.373V193.214C2.56349 193.214 3.67445 191.678 3.67445 189.788H3.83407C3.83407 191.676 4.94502 193.214 6.31297 193.214V193.373C4.94662 193.373 3.83407 194.909 3.83407 196.797ZM1.75103 193.293C2.73109 193.579 3.51004 194.607 3.75426 195.921C3.99848 194.607 4.77742 193.579 5.75749 193.293C4.77742 193.008 3.99848 191.98 3.75426 190.666C3.51004 191.98 2.73109 193.008 1.75103 193.293Z" fill="#FF6400"/>
<path d="M3.75429 197.914C3.13656 197.914 2.63695 197.414 2.63695 196.796C2.63695 195.451 1.87875 194.512 1.19718 194.512C0.579445 194.512 0.079834 194.013 0.079834 193.395C0.079834 192.777 0.579445 192.277 1.19718 192.277C1.87875 192.277 2.63695 191.339 2.63695 189.993C2.63695 189.376 3.13656 188.876 3.75429 188.876C4.37202 188.876 4.87163 189.376 4.87163 189.993C4.87163 191.339 5.63142 192.277 6.313 192.277C6.93073 192.277 7.43034 192.777 7.43034 193.395C7.43034 194.013 6.93073 194.512 6.313 194.512C5.63142 194.512 4.87163 195.451 4.87163 196.796C4.87163 197.414 4.37202 197.914 3.75429 197.914ZM3.64096 193.395C3.67927 193.436 3.71758 193.479 3.75429 193.523C3.79579 193.473 3.83889 193.425 3.88199 193.379C3.84368 193.337 3.80537 193.294 3.76706 193.25C3.72556 193.299 3.68406 193.347 3.64096 193.393V193.395Z" fill="#FF6400"/>
<path d="M3.75427 197.994C3.09344 197.994 2.55712 197.458 2.55712 196.797C2.55712 195.498 1.84042 194.593 1.19715 194.593C0.553882 194.593 0 194.056 0 193.396C0 192.735 0.536324 192.198 1.19715 192.198C1.85798 192.198 2.55712 191.293 2.55712 189.994C2.55712 189.333 3.09344 188.797 3.75427 188.797C4.41509 188.797 4.95142 189.333 4.95142 189.994C4.95142 191.293 5.66811 192.198 6.31298 192.198C6.95784 192.198 7.51013 192.735 7.51013 193.396C7.51013 194.056 6.9738 194.593 6.31298 194.593C5.65215 194.593 4.95142 195.498 4.95142 196.797C4.95142 197.458 4.41509 197.994 3.75427 197.994ZM3.75427 188.956C3.18283 188.956 2.71674 189.423 2.71674 189.994C2.71674 191.388 1.91544 192.358 1.19715 192.358C0.625711 192.358 0.15962 192.824 0.15962 193.396C0.15962 193.967 0.625711 194.433 1.19715 194.433C1.91544 194.433 2.71674 195.404 2.71674 196.797C2.71674 197.368 3.18283 197.835 3.75427 197.835C4.32571 197.835 4.7918 197.368 4.7918 196.797C4.7918 195.404 5.59309 194.433 6.31298 194.433C6.88442 194.433 7.35051 193.967 7.35051 193.396C7.35051 192.824 6.88442 192.358 6.31298 192.358C5.59309 192.358 4.7918 191.388 4.7918 189.994C4.7918 189.423 4.32571 188.956 3.75427 188.956ZM3.75427 193.648L3.69361 193.576C3.6569 193.533 3.62019 193.491 3.58188 193.45L3.53239 193.396L3.58188 193.341C3.62338 193.295 3.66488 193.249 3.70638 193.201L3.76704 193.129L3.82769 193.201C3.8644 193.244 3.90112 193.287 3.93943 193.327L3.98891 193.381L3.93783 193.435C3.89473 193.482 3.85323 193.528 3.81333 193.576L3.75267 193.648H3.75427ZM3.74788 193.396L3.75427 193.402C3.75427 193.402 3.76704 193.388 3.77342 193.381C3.77182 193.38 3.77023 193.376 3.76704 193.375C3.76065 193.383 3.75427 193.389 3.74788 193.397V193.396Z" fill="#FF6400"/>
<path d="M14.7968 21.2861C14.7968 25.5815 17.3396 29.0644 20.4745 29.0644C17.3396 29.0644 14.7968 32.5457 14.7968 36.8411C14.7968 32.5457 12.2557 29.0644 9.12073 29.0644C12.2557 29.0644 14.7968 25.5815 14.7968 21.2861Z" fill="#FF6400"/>
<path d="M14.797 37.9591C14.1792 37.9591 13.6796 37.4595 13.6796 36.8418C13.6796 33.295 11.6349 30.4107 9.12088 30.4107C8.50315 30.4107 8.00354 29.9111 8.00354 29.2934C8.00354 28.6756 8.50315 28.176 9.12088 28.176C11.6349 28.176 13.6796 25.2901 13.6796 21.7433C13.6796 21.1256 14.1792 20.626 14.797 20.626C15.4147 20.626 15.9143 21.1256 15.9143 21.7433C15.9143 25.2901 17.9606 28.176 20.4747 28.176C21.0924 28.176 21.592 28.6756 21.592 29.2934C21.592 29.9111 21.0924 30.4107 20.4747 30.4107C17.9606 30.4107 15.9143 33.295 15.9143 36.8418C15.9143 37.4595 15.4147 37.9591 14.797 37.9591ZM12.4553 29.2934C13.3987 29.9749 14.2032 30.9342 14.797 32.0851C15.3924 30.9342 16.1968 29.9733 17.1402 29.2934C16.1968 28.6118 15.3924 27.6525 14.797 26.5C14.2016 27.6509 13.3987 28.6118 12.4553 29.2934Z" fill="#FF6400"/>
<path d="M313.017 200.99C313.017 205.286 315.559 208.769 318.694 208.769C315.559 208.769 313.017 212.25 313.017 216.545C313.017 212.25 310.476 208.769 307.341 208.769C310.476 208.769 313.017 205.286 313.017 200.99Z" fill="#FF6400"/>
<path d="M313.017 217.663C312.399 217.663 311.899 217.164 311.899 216.546C311.899 212.999 309.855 210.115 307.341 210.115C306.723 210.115 306.223 209.615 306.223 208.997C306.223 208.38 306.723 207.88 307.341 207.88C309.855 207.88 311.899 204.994 311.899 201.447C311.899 200.83 312.399 200.33 313.017 200.33C313.634 200.33 314.134 200.83 314.134 201.447C314.134 204.994 316.18 207.88 318.694 207.88C319.312 207.88 319.812 208.38 319.812 208.997C319.812 209.615 319.312 210.115 318.694 210.115C316.18 210.115 314.134 212.999 314.134 216.546C314.134 217.164 313.634 217.663 313.017 217.663ZM310.675 208.997C311.618 209.679 312.423 210.638 313.017 211.789C313.612 210.638 314.415 209.677 315.36 208.997C314.417 208.316 313.612 207.357 313.017 206.204C312.421 207.355 311.618 208.316 310.675 208.997Z" fill="#FF6400"/>
<path d="M45.551 130.76C45.551 135.055 48.0937 138.538 51.2287 138.538C48.0937 138.538 45.551 142.019 45.551 146.315C45.551 142.019 43.0098 138.538 39.8749 138.538C43.0098 138.538 45.551 135.055 45.551 130.76Z" fill="#FF6400"/>
<path d="M45.5508 147.432C44.933 147.432 44.4334 146.932 44.4334 146.314C44.4334 142.768 42.3887 139.883 39.8747 139.883C39.2569 139.883 38.7573 139.384 38.7573 138.766C38.7573 138.148 39.2569 137.649 39.8747 137.649C42.3887 137.649 44.4334 134.763 44.4334 131.216C44.4334 130.598 44.933 130.099 45.5508 130.099C46.1685 130.099 46.6681 130.598 46.6681 131.216C46.6681 134.763 48.7144 137.649 51.2284 137.649C51.8462 137.649 52.3458 138.148 52.3458 138.766C52.3458 139.384 51.8462 139.883 51.2284 139.883C48.7144 139.883 46.6681 142.768 46.6681 146.314C46.6681 146.932 46.1685 147.432 45.5508 147.432ZM43.2091 138.766C44.1525 139.448 44.957 140.407 45.5508 141.558C46.1461 140.407 46.9506 139.446 47.894 138.766C46.9506 138.084 46.1461 137.125 45.5508 135.973C44.9554 137.124 44.1525 138.084 43.2091 138.766Z" fill="#FF6400"/>
<path d="M270.245 111.598C270.245 115.893 272.788 119.376 275.922 119.376C272.788 119.376 270.245 122.857 270.245 127.153C270.245 122.857 267.704 119.376 264.569 119.376C267.704 119.376 270.245 115.893 270.245 111.598Z" fill="#FF6400"/>
<path d="M270.245 128.271C269.627 128.271 269.127 127.771 269.127 127.153C269.127 123.607 267.083 120.722 264.569 120.722C263.951 120.722 263.451 120.223 263.451 119.605C263.451 118.987 263.951 118.488 264.569 118.488C267.083 118.488 269.127 115.602 269.127 112.055C269.127 111.437 269.627 110.938 270.245 110.938C270.863 110.938 271.362 111.437 271.362 112.055C271.362 115.602 273.408 118.488 275.922 118.488C276.54 118.488 277.04 118.987 277.04 119.605C277.04 120.223 276.54 120.722 275.922 120.722C273.408 120.722 271.362 123.607 271.362 127.153C271.362 127.771 270.863 128.271 270.245 128.271ZM267.903 119.605C268.847 120.286 269.651 121.246 270.245 122.397C270.84 121.246 271.643 120.285 272.588 119.605C271.645 118.923 270.84 117.964 270.245 116.812C269.649 117.962 268.847 118.923 267.903 119.605Z" fill="#FF6400"/>
<path d="M184.788 31.2119C184.788 35.5073 187.33 38.9902 190.465 38.9902C187.33 38.9902 184.788 42.4715 184.788 46.7669C184.788 42.4715 182.246 38.9902 179.111 38.9902C182.246 38.9902 184.788 35.5073 184.788 31.2119Z" fill="#FF6400"/>
<path d="M184.788 47.8839C184.17 47.8839 183.67 47.3843 183.67 46.7666C183.67 43.2198 181.625 40.3355 179.111 40.3355C178.494 40.3355 177.994 39.8359 177.994 39.2182C177.994 38.6004 178.494 38.1008 179.111 38.1008C181.625 38.1008 183.67 35.2149 183.67 31.6681C183.67 31.0504 184.17 30.5508 184.788 30.5508C185.405 30.5508 185.905 31.0504 185.905 31.6681C185.905 35.2149 187.951 38.1008 190.465 38.1008C191.083 38.1008 191.583 38.6004 191.583 39.2182C191.583 39.8359 191.083 40.3355 190.465 40.3355C187.951 40.3355 185.905 43.2198 185.905 46.7666C185.905 47.3843 185.405 47.8839 184.788 47.8839ZM182.446 39.2182C183.389 39.8997 184.194 40.8591 184.788 42.0099C185.383 40.8591 186.187 39.8981 187.131 39.2182C186.187 38.5366 185.383 37.5773 184.788 36.4248C184.192 37.5757 183.389 38.5366 182.446 39.2182Z" fill="#FF6400"/>
<path d="M91.5743 178.456C91.5743 182.751 94.117 186.234 97.252 186.234C94.117 186.234 91.5743 189.716 91.5743 194.011C91.5743 189.716 89.0331 186.234 85.8982 186.234C89.0331 186.234 91.5743 182.751 91.5743 178.456Z" fill="#FF6400"/>
<path d="M91.5742 195.13C90.9565 195.13 90.4569 194.63 90.4569 194.013C90.4569 190.466 88.4121 187.582 85.8981 187.582C85.2804 187.582 84.7808 187.082 84.7808 186.464C84.7808 185.847 85.2804 185.347 85.8981 185.347C88.4121 185.347 90.4569 182.461 90.4569 178.914C90.4569 178.296 90.9565 177.797 91.5742 177.797C92.1919 177.797 92.6915 178.296 92.6915 178.914C92.6915 182.461 94.7379 185.347 97.2519 185.347C97.8696 185.347 98.3692 185.847 98.3692 186.464C98.3692 187.082 97.8696 187.582 97.2519 187.582C94.7379 187.582 92.6915 190.466 92.6915 194.013C92.6915 194.63 92.1919 195.13 91.5742 195.13ZM89.2326 186.464C90.1759 187.146 90.9804 188.105 91.5742 189.256C92.1696 188.105 92.9741 187.144 93.9174 186.464C92.9741 185.783 92.1696 184.823 91.5742 183.671C90.9788 184.822 90.1759 185.783 89.2326 186.464Z" fill="#FF6400"/>
<path d="M219.823 198.638C219.823 200.572 220.969 202.143 222.382 202.143C220.969 202.143 219.823 203.712 219.823 205.647C219.823 203.712 218.678 202.143 217.266 202.143C218.678 202.143 219.823 200.574 219.823 198.638Z" fill="#FF6400"/>
<path d="M219.823 206.761C219.205 206.761 218.706 206.262 218.706 205.644C218.706 204.298 217.947 203.36 217.266 203.36C216.648 203.36 216.148 202.86 216.148 202.242C216.148 201.625 216.648 201.125 217.266 201.125C217.947 201.125 218.706 200.187 218.706 198.841C218.706 198.223 219.205 197.724 219.823 197.724C220.441 197.724 220.94 198.223 220.94 198.841C220.94 200.187 221.7 201.125 222.382 201.125C222.999 201.125 223.499 201.625 223.499 202.242C223.499 202.86 222.999 203.36 222.382 203.36C221.7 203.36 220.94 204.298 220.94 205.644C220.94 206.262 220.441 206.761 219.823 206.761ZM219.71 202.242C219.748 202.284 219.786 202.327 219.823 202.37C219.864 202.321 219.906 202.273 219.951 202.227C219.912 202.185 219.874 202.142 219.837 202.097C219.796 202.147 219.754 202.195 219.711 202.241L219.71 202.242Z" fill="#FF6400"/>
<path d="M200.876 52.0889C200.876 54.0235 202.022 55.5941 203.434 55.5941C202.022 55.5941 200.876 57.1632 200.876 59.0978C200.876 57.1632 199.731 55.5941 198.318 55.5941C199.731 55.5941 200.876 54.0251 200.876 52.0889Z" fill="#FF6400"/>
<path d="M200.876 60.2154C200.258 60.2154 199.758 59.7158 199.758 59.0981C199.758 57.7525 199 56.8139 198.318 56.8139C197.701 56.8139 197.201 56.3143 197.201 55.6966C197.201 55.0789 197.701 54.5792 198.318 54.5792C199 54.5792 199.758 53.6407 199.758 52.2951C199.758 51.6773 200.258 51.1777 200.876 51.1777C201.493 51.1777 201.993 51.6773 201.993 52.2951C201.993 53.6407 202.753 54.5792 203.434 54.5792C204.052 54.5792 204.552 55.0789 204.552 55.6966C204.552 56.3143 204.052 56.8139 203.434 56.8139C202.753 56.8139 201.993 57.7525 201.993 59.0981C201.993 59.7158 201.493 60.2154 200.876 60.2154ZM200.762 55.6966C200.8 55.7381 200.839 55.7812 200.876 55.8243C200.917 55.7748 200.96 55.7285 201.003 55.6806C200.965 55.6391 200.927 55.596 200.888 55.5513C200.847 55.6008 200.805 55.6487 200.762 55.695V55.6966Z" fill="#FF6400"/>
<path d="M313.507 50.248C313.507 52.1826 314.653 53.7533 316.066 53.7533C314.653 53.7533 313.507 55.3224 313.507 57.257C313.507 55.3224 312.362 53.7533 310.95 53.7533C312.362 53.7533 313.507 52.1842 313.507 50.248Z" fill="#FF6400"/>
<path d="M313.507 58.3746C312.889 58.3746 312.39 57.875 312.39 57.2573C312.39 55.9117 311.631 54.9731 310.95 54.9731C310.332 54.9731 309.832 54.4735 309.832 53.8558C309.832 53.238 310.332 52.7384 310.95 52.7384C311.631 52.7384 312.39 51.7999 312.39 50.4543C312.39 49.8365 312.889 49.3369 313.507 49.3369C314.125 49.3369 314.624 49.8365 314.624 50.4543C314.624 51.7999 315.384 52.7384 316.066 52.7384C316.683 52.7384 317.183 53.238 317.183 53.8558C317.183 54.4735 316.683 54.9731 316.066 54.9731C315.384 54.9731 314.624 55.9117 314.624 57.2573C314.624 57.875 314.125 58.3746 313.507 58.3746ZM313.394 53.8558C313.432 53.8973 313.47 53.9404 313.507 53.9835C313.548 53.934 313.59 53.8877 313.635 53.8398C313.596 53.7983 313.558 53.7552 313.521 53.7105C313.48 53.76 313.438 53.8079 313.395 53.8542L313.394 53.8558Z" fill="#FF6400"/>
<path d="M175.579 79.4598C170.944 71.7581 165.177 68.2704 165.177 68.2704C172.294 65.7867 170.265 54.3372 156.252 48.7457C148.787 45.7656 142.469 45.938 142.469 45.938C142.469 45.938 141.944 35.3312 131.294 32.5666C119.605 29.5322 106.392 39.7862 101.686 48.0002C94.0084 45.9236 79.2994 48.1854 75.0312 56.5479C72.1628 62.1697 76.3161 66.3885 76.3161 66.3885C76.3161 66.3885 71.0056 69.8123 66.5234 76.4845C58.1115 89.0099 62.8969 99.607 70.1756 97.6389C70.1756 97.6389 67.3822 103.773 67.9026 112.745C68.5985 124.758 74.9115 133.702 82.6307 130.746C82.6307 130.746 84.8271 139.196 90.4665 145.037C97.1769 151.988 107.602 151.531 112.009 147.67C112.009 147.67 122.533 155.278 138.507 150.341C154.482 145.402 158.876 133.182 158.876 133.182C164.695 133.882 168.396 128.58 170.012 119.055C171.37 111.05 173.577 102.629 173.577 102.629C181.619 100.713 181.782 89.768 175.578 79.4566L175.579 79.4598Z" fill="#704F34"/>
<path d="M127.826 153.118C124.261 153.118 121.256 152.57 118.972 151.937C115.564 150.99 113.195 149.723 112.079 149.048C109.58 150.871 105.897 151.79 102.026 151.527C97.2983 151.204 92.9072 149.177 89.6637 145.817C85.0587 141.046 82.6979 134.711 81.8838 132.157C79.4448 132.771 77.0378 132.366 74.8589 130.958C70.3609 128.053 67.269 121.1 66.7886 112.814C66.4198 106.455 67.6537 101.503 68.4789 98.9907C66.2634 98.9907 64.2522 97.9484 62.8715 96.0202C61.3391 93.8797 60.6895 90.8358 61.0438 87.447C61.4317 83.7279 63.0071 79.723 65.5994 75.865C69.0392 70.7444 72.918 67.5057 74.7121 66.1617C73.5181 64.4362 71.6793 60.6675 74.0385 56.0417C76.0992 52.0034 80.6308 48.8924 86.8001 47.2802C91.643 46.0144 97.0462 45.8133 101.153 46.7199C103.838 42.391 108.319 38.0957 113.299 35.1076C121.345 30.2807 127.679 30.4738 131.577 31.4858C137.489 33.0213 140.444 36.8538 141.882 39.8004C142.868 41.8212 143.288 43.7015 143.465 44.8348C145.591 44.9114 150.758 45.352 156.669 47.7096C160.985 49.4319 164.546 51.8501 166.966 54.7009C169.171 57.298 170.353 60.1791 170.296 62.8112C170.243 65.1832 169.171 67.1784 167.343 68.4283C169.442 70.0372 173.255 73.426 176.54 78.885C180.82 85.9977 182.191 93.4823 180.117 98.4177C179.045 100.973 177.112 102.732 174.503 103.538C173.973 105.628 172.243 112.621 171.118 119.245C170.267 124.263 168.851 128.094 166.912 130.634C164.977 133.167 162.462 134.442 159.6 134.358C159.06 135.545 157.82 137.928 155.542 140.632C152.621 144.098 147.354 148.779 138.843 151.412C134.787 152.666 131.076 153.12 127.829 153.12L127.826 153.118ZM112.011 146.556C112.239 146.556 112.469 146.626 112.665 146.768C112.689 146.786 115.256 148.604 119.669 149.812C123.728 150.923 130.234 151.732 138.18 149.276C146.126 146.819 151.041 142.479 153.764 139.271C156.725 135.783 157.818 132.833 157.83 132.805C158.007 132.316 158.498 132.015 159.014 132.075C161.47 132.371 163.472 131.456 165.135 129.277C166.853 127.03 168.123 123.528 168.914 118.87C170.266 110.908 172.478 102.432 172.5 102.348C172.606 101.949 172.92 101.639 173.322 101.545C175.576 101.008 177.169 99.6643 178.057 97.5526C179.832 93.3258 178.484 86.451 174.625 80.0375C170.184 72.6582 164.656 69.2615 164.602 69.2296C164.232 69.0061 164.024 68.5879 164.069 68.1569C164.114 67.7259 164.404 67.3604 164.813 67.2184C166.861 66.5033 168.015 64.9214 168.063 62.7618C168.109 60.6771 167.115 58.3275 165.263 56.1471C163.078 53.5724 159.82 51.3729 155.842 49.7862C148.672 46.9258 142.565 47.0551 142.504 47.0567C142.206 47.0647 141.911 46.9514 141.695 46.7407C141.492 46.5443 141.373 46.2778 141.358 45.9969C141.358 45.9713 141.208 43.4701 139.839 40.7038C138.043 37.0757 135.076 34.7021 131.018 33.6486C127.534 32.7436 121.832 32.5951 114.451 37.0246C109.58 39.9472 105.061 44.3655 102.662 48.5572C102.409 48.9977 101.891 49.2132 101.401 49.0807C97.5665 48.0432 92.1905 48.1821 87.3684 49.4431C81.8248 50.8924 77.7991 53.5964 76.0322 57.0585C73.5788 61.8663 76.9755 65.4609 77.1224 65.611C77.3554 65.852 77.4687 66.1856 77.4304 66.5176C77.3921 66.8496 77.2086 67.1497 76.9276 67.3301C76.8765 67.3636 71.7448 70.7268 67.4574 77.11C65.0694 80.6664 63.6201 84.3217 63.2705 87.6785C62.9736 90.5229 63.478 93.0225 64.6927 94.7177C65.9505 96.4735 67.7958 97.128 69.89 96.5629C70.3082 96.4496 70.7535 96.5885 71.0329 96.9189C71.3122 97.2493 71.3776 97.7106 71.1973 98.1049C71.1717 98.1623 68.5268 104.124 69.0232 112.685C69.4574 120.158 72.2252 126.594 76.0753 129.081C78.0003 130.324 80.0721 130.535 82.2366 129.705C82.5335 129.592 82.8655 129.609 83.148 129.754C83.4305 129.9 83.6381 130.158 83.7179 130.466C83.7386 130.548 85.9158 138.711 91.2759 144.262C97.691 150.907 107.407 150.222 111.278 146.831C111.487 146.647 111.75 146.554 112.014 146.554L112.011 146.556Z" fill="#4F3A2C"/>
<path d="M154.571 112.18L108.462 133.261C107.94 133.522 102.847 138.699 102.847 138.699L112.272 150.876L118.341 159.221C118.341 159.221 121.091 160.824 122.481 161.609C123.538 162.206 124.505 162.902 125.452 163.667C126.424 164.452 127.146 165.379 127.897 166.377C128.392 167.033 128.571 167.897 128.569 168.749C144.661 168.554 164.075 142.948 164.075 142.948L170.288 131.741L154.57 112.181L154.571 112.18Z" fill="#B776CE"/>
<path d="M139.008 135.275C140.356 134.482 141.767 133.809 143.186 133.156C143.117 132.378 143.074 131.598 143.077 130.806C143.083 129.655 143.125 128.504 143.163 127.354C140.951 128.23 138.676 128.958 136.391 129.611C135.859 129.762 135.328 129.909 134.794 130.054C133.388 130.49 131.971 130.888 130.545 131.243C130.41 131.282 130.274 131.32 130.138 131.358C132.359 133.106 134.582 134.849 136.635 136.784C137.398 136.228 138.218 135.743 139.008 135.277V135.275Z" fill="#FFB44A"/>
<path d="M136.911 138.239C136.651 138.239 136.391 138.15 136.18 137.966L129.805 132.44C129.339 132.036 129.288 131.331 129.693 130.863C130.097 130.397 130.804 130.346 131.269 130.751L137.644 136.277C138.11 136.681 138.161 137.387 137.756 137.854C137.535 138.11 137.224 138.239 136.911 138.239Z" fill="#9B5DB5"/>
<path d="M143.481 133.977C142.91 133.977 142.423 133.542 142.37 132.961L141.869 127.438C141.813 126.823 142.266 126.28 142.881 126.225C143.495 126.167 144.038 126.622 144.094 127.237L144.595 132.759C144.651 133.374 144.198 133.917 143.583 133.973C143.548 133.976 143.515 133.977 143.481 133.977Z" fill="#9B5DB5"/>
<path d="M173.271 120.845L171.673 125.145L178.191 126.352C178.191 126.352 175.675 122.178 173.271 120.845Z" fill="#4F3A2C"/>
<path d="M110.368 55.2137C98.6373 58.9265 82.969 67.8828 86.2764 86.544C86.2764 86.544 88.8414 88.1625 92.9469 86.4466C97.0523 84.7307 97.5471 81.484 97.5471 81.484C97.5471 81.484 107.469 87.8513 120.761 83.6469C128.936 81.061 131.664 75.7983 130.083 70.7623C130.083 70.7623 133.891 73.3258 139.628 72.1638C146.883 70.6937 148.097 66.9729 148.097 66.9729C140.065 49.8074 122.095 51.4994 110.365 55.2137H110.368Z" fill="#704F34"/>
<path d="M154.622 80.1401C151.805 75.4951 150.772 72.689 148.099 66.9746C148.099 66.9746 146.884 70.6954 139.629 72.1655C133.891 73.3275 130.084 70.764 130.084 70.764C131.664 75.8 128.938 81.0627 120.762 83.6485C107.471 87.8529 97.5486 81.4857 97.5486 81.4857C97.5486 81.4857 97.0522 84.7324 92.9484 86.4483C88.8429 88.1642 86.2778 86.5456 86.2778 86.5456C87.3792 92.7565 88.1486 95.6456 88.5189 101.066C88.8557 105.999 88.6817 111.684 91.0808 118.053C95.804 130.591 106.696 139.219 134.205 130.51C161.714 121.803 165.657 108.479 162.305 95.5067C160.602 88.9176 157.187 84.3668 154.626 80.1401H154.622Z" fill="#FFB44A"/>
<path d="M135.767 104.806C134.166 100.977 131.5 98.6402 124.726 100.613C118.049 102.897 117.061 106.68 118.108 110.396C119.235 114.393 123.565 117.188 129.478 115.394C135.476 113.574 137.368 108.636 135.767 104.806Z" fill="white"/>
<path d="M124.244 98.8618C123.019 99.2257 122.234 99.9791 122.1 100.908C121.991 101.657 122.17 102.385 122.718 102.881C123.378 103.48 124.387 103.62 125.49 103.272C125.5 103.269 125.509 103.266 125.519 103.262C126.914 102.811 128.081 101.594 127.616 100.142C127.288 99.1155 126.09 98.3127 124.244 98.8618Z" fill="#4F3A2C"/>
<path d="M100.116 108.496C99.5951 108.496 99.129 108.13 99.0221 107.601C98.8992 106.996 99.2903 106.407 99.8952 106.284L104.127 105.425C104.732 105.302 105.321 105.693 105.444 106.298C105.567 106.903 105.175 107.492 104.57 107.615L100.339 108.474C100.264 108.49 100.189 108.496 100.116 108.496Z" fill="white"/>
<path d="M102.074 114.678C101.643 114.678 101.234 114.428 101.049 114.01C100.802 113.445 101.059 112.785 101.624 112.538L105.579 110.806C106.144 110.559 106.804 110.816 107.051 111.381C107.298 111.946 107.041 112.605 106.476 112.852L102.521 114.584C102.376 114.648 102.222 114.678 102.074 114.678Z" fill="white"/>
<path d="M144.816 94.8269C144.385 94.8269 143.976 94.5763 143.791 94.1581C143.543 93.593 143.8 92.9338 144.365 92.6864L148.321 90.9545C148.886 90.7071 149.545 90.9641 149.793 91.5291C150.04 92.0942 149.783 92.7534 149.218 93.0008L145.262 94.7327C145.117 94.7965 144.964 94.8269 144.816 94.8269Z" fill="white"/>
<path d="M146.493 100.136C145.973 100.136 145.507 99.7701 145.4 99.2402C145.277 98.6352 145.668 98.0462 146.273 97.9233L150.505 97.0646C151.11 96.9417 151.699 97.3327 151.821 97.9377C151.944 98.5427 151.553 99.1317 150.948 99.2546L146.717 100.113C146.642 100.129 146.567 100.136 146.493 100.136Z" fill="white"/>
<path d="M111.788 95.2994C111.587 94.9882 111.252 94.7982 110.82 94.7503C109.908 94.6498 108.601 95.1893 107.788 95.9938C107.276 96.4231 106.583 97.424 106.907 98.2891C107.049 98.6674 107.306 98.918 107.673 99.0377C108.093 99.1734 108.604 99.1159 109.116 98.9531C109.629 98.7903 110.136 98.5269 110.556 98.2492C111.439 97.665 112.496 96.3976 111.787 95.301L111.788 95.2994Z" fill="#4F3A2C"/>
<path d="M135.956 87.0816C134.815 86.8901 133.436 87.2014 132.748 87.8079C132.422 88.0952 132.256 88.4432 132.272 88.8135C132.325 90.1176 133.918 90.547 134.976 90.5167C135.481 90.5023 136.051 90.4257 136.56 90.2645C137.072 90.1033 137.522 89.8558 137.787 89.5031C138.019 89.195 138.084 88.8407 137.984 88.4496C137.752 87.5557 136.609 87.1343 135.956 87.0816Z" fill="#4F3A2C"/>
<path d="M114.658 135.163C102.361 135.163 94.2428 129.617 90.0336 118.446C87.9968 113.041 87.759 108.137 87.5499 103.812C87.5052 102.883 87.4621 102.005 87.403 101.141C87.1317 97.1603 86.6369 94.5457 85.9505 90.9271C85.719 89.7044 85.4557 88.3189 85.1763 86.7403C85.0694 86.1321 85.4732 85.5527 86.0814 85.4458C86.6895 85.3388 87.269 85.7427 87.3759 86.3508C87.6537 87.9167 87.9154 89.2958 88.1453 90.5121C88.8444 94.2073 89.3504 96.8762 89.6313 100.991C89.692 101.875 89.7351 102.765 89.7798 103.705C89.9825 107.866 90.2108 112.583 92.123 117.66C94.7136 124.537 98.7632 128.969 104.502 131.209C111.571 133.969 121.45 133.375 133.864 129.447C146.277 125.517 154.699 120.318 158.892 113.992C162.297 108.859 163.057 102.903 161.219 95.7876C159.863 90.5361 157.336 86.5456 155.106 83.0259C154.602 82.231 154.126 81.4792 153.666 80.721C151.527 77.195 150.405 74.7209 148.852 71.2971C148.341 70.1701 147.76 68.8916 147.087 67.4502C146.825 66.8915 147.066 66.2259 147.625 65.9641C148.183 65.7024 148.849 65.9434 149.111 66.5021C149.791 67.9546 150.373 69.2395 150.887 70.3729C152.408 73.7265 153.508 76.1495 155.577 79.5622C156.025 80.3012 156.496 81.0435 156.994 81.8304C159.312 85.4889 161.939 89.6358 163.384 95.2289C167.757 112.158 158.322 124.048 134.539 131.578C126.992 133.967 120.373 135.166 114.657 135.166L114.658 135.163Z" fill="#4F3A2C"/>
<path d="M89.2613 88.3637C87.2932 88.3637 86.0417 87.706 85.7113 87.5081C85.1766 87.2016 84.9962 86.5201 85.3027 85.9853C85.6092 85.4506 86.2971 85.2686 86.8318 85.5751C86.8382 85.5783 86.851 85.5863 86.8574 85.5895C87.0777 85.722 89.1144 86.8377 92.5159 85.4155C95.9414 83.9837 96.425 81.4138 96.4442 81.3053C96.5016 80.9318 96.7427 80.6173 97.0874 80.4609C97.4322 80.3045 97.8313 80.3396 98.1505 80.5439C98.1729 80.5583 100.59 82.0794 104.535 83.0835C108.154 84.0029 113.849 84.6621 120.424 82.5822C124.031 81.441 126.702 79.6851 128.15 77.5063C129.428 75.5813 129.728 73.3642 129.016 71.0976C128.874 70.6443 129.034 70.151 129.414 69.8669C129.794 69.5828 130.312 69.57 130.707 69.835C130.737 69.8557 134.237 72.1144 139.406 71.0688C142.847 70.3713 144.753 69.171 145.744 68.2883C146.726 67.4135 147.015 66.6793 147.045 66.5979C147.05 66.5851 147.06 66.5596 147.065 66.5468C147.299 65.977 147.952 65.704 148.523 65.9387C149.085 66.1701 149.358 66.807 149.143 67.3704C148.87 68.1095 147.163 71.776 139.851 73.2572C136.293 73.9787 133.42 73.3706 131.604 72.7129C131.778 74.8391 131.241 76.8902 130.012 78.7402C128.279 81.35 125.197 83.4139 121.099 84.7116C113.98 86.9638 107.812 86.2328 103.892 85.224C101.305 84.5583 99.3413 83.6964 98.1713 83.1042C97.5663 84.4051 96.2351 86.2822 93.3779 87.4762C91.7896 88.1402 90.4041 88.3621 89.2613 88.3621V88.3637Z" fill="#4F3A2C"/>
<path d="M126.237 105.345L123.972 108.232C123.972 108.232 124.965 112.449 128.165 111.436C131.366 110.422 129.75 106.403 129.75 106.403L126.237 105.345Z" fill="#FF6477"/>
<path d="M127.212 112.708C126.579 112.708 125.974 112.55 125.423 112.237C123.567 111.182 122.95 108.759 122.885 108.486C122.743 107.886 123.116 107.284 123.717 107.142C124.317 107.001 124.917 107.372 125.059 107.97C125.176 108.452 125.669 109.809 126.531 110.296C126.906 110.507 127.318 110.531 127.828 110.369C128.339 110.208 128.663 109.951 128.847 109.563C129.273 108.669 128.893 107.276 128.711 106.815C128.486 106.242 128.765 105.592 129.337 105.365C129.908 105.137 130.556 105.413 130.786 105.985C130.89 106.245 131.781 108.582 130.869 110.513C130.419 111.464 129.6 112.152 128.502 112.5C128.065 112.639 127.632 112.708 127.212 112.708Z" fill="#4F3A2C"/>
<path d="M122.796 108.857C121.967 108.857 121.383 108.614 121.045 108.415C120.513 108.102 120.336 107.417 120.649 106.886C120.962 106.354 121.646 106.177 122.178 106.49C122.274 106.546 122.802 106.804 123.907 106.391C124.647 106.113 125.056 105.73 125.12 105.251C125.129 105.184 125.137 105.133 125.145 105.101C125.279 104.499 125.878 104.119 126.48 104.255C127.066 104.386 127.441 104.956 127.335 105.54V105.546C127.158 106.868 126.22 107.91 124.69 108.483C123.956 108.758 123.324 108.858 122.794 108.858L122.796 108.857ZM127.335 105.554C127.334 105.566 127.331 105.577 127.329 105.589C127.331 105.58 127.334 105.569 127.335 105.554Z" fill="#4F3A2C"/>
<path d="M128.004 107.199C126.979 107.199 126.1 106.839 125.455 106.142L125.45 106.137C125.027 105.719 125.006 105.037 125.41 104.594C125.825 104.137 126.532 104.102 126.989 104.517C127.013 104.539 127.05 104.574 127.096 104.626C127.423 104.98 127.979 105.06 128.745 104.86C129.886 104.563 130.17 104.046 130.216 103.947C130.472 103.385 131.133 103.135 131.695 103.39C132.256 103.644 132.505 104.306 132.252 104.868C131.985 105.456 131.249 106.517 129.308 107.023C128.855 107.141 128.418 107.2 128.004 107.2V107.199ZM125.461 106.148C125.471 106.158 125.481 106.166 125.487 106.172C125.479 106.164 125.469 106.156 125.461 106.148Z" fill="#4F3A2C"/>
<path d="M168.802 130.194C171.79 127.722 176.084 113.64 175.18 107.678C174.54 103.455 170.388 101.33 167.751 100.901C164.701 100.404 161.766 101.724 160.28 104.436C158.794 107.148 158.996 109.755 157.585 113.996C156.173 118.239 154.208 121.097 154.208 121.097" fill="#FFB44A"/>
<path d="M167.703 106.827C168.31 106.827 168.802 106.336 168.802 105.729C168.802 105.123 168.31 104.631 167.703 104.631C167.097 104.631 166.605 105.123 166.605 105.729C166.605 106.336 167.097 106.827 167.703 106.827Z" fill="white"/>
<path d="M164.596 107.75C165.202 107.75 165.694 107.258 165.694 106.652C165.694 106.045 165.202 105.554 164.596 105.554C163.989 105.554 163.497 106.045 163.497 106.652C163.497 107.258 163.989 107.75 164.596 107.75Z" fill="white"/>
<path d="M170.351 108.696C170.958 108.696 171.45 108.205 171.45 107.598C171.45 106.992 170.958 106.5 170.351 106.5C169.745 106.5 169.253 106.992 169.253 107.598C169.253 108.205 169.745 108.696 170.351 108.696Z" fill="white"/>
<path d="M169.031 110.625C169.244 109.323 168.485 108.114 167.335 107.926C166.185 107.737 165.08 108.64 164.866 109.942C164.652 111.244 165.411 112.453 166.561 112.642C167.711 112.83 168.817 111.928 169.031 110.625Z" fill="white"/>
<path d="M122.844 164.356C122.579 164.356 122.312 164.262 122.098 164.072C115.168 157.871 111.321 150.946 111.161 150.654C110.864 150.113 111.062 149.435 111.602 149.136C112.143 148.839 112.821 149.037 113.12 149.577C113.171 149.669 116.967 156.48 123.589 162.405C124.049 162.817 124.089 163.523 123.677 163.982C123.457 164.228 123.15 164.354 122.844 164.354V164.356Z" fill="#4F3A2C"/>
<path d="M232.591 130.67C239.592 127.869 247.87 133.363 247.809 144.121C247.737 156.808 239.027 168.992 220.57 171.099C203.915 173 193.501 166.827 189.734 153.778C186.438 142.364 189.503 132.704 189.503 132.704" fill="#7BDEFF"/>
<path d="M214.678 172.609C201.288 172.609 192.149 166.171 188.66 154.088C185.31 142.482 188.307 132.772 188.436 132.365C188.623 131.776 189.251 131.452 189.84 131.637C190.427 131.824 190.753 132.451 190.567 133.04C190.539 133.133 187.653 142.538 190.808 153.468C192.615 159.726 196.038 164.329 200.981 167.148C206.049 170.039 212.592 170.995 220.429 169.991C228.782 168.921 235.636 165.718 240.252 160.725C244.43 156.208 246.656 150.464 246.691 144.116C246.72 139.128 244.824 134.965 241.493 132.696C238.918 130.941 235.825 130.582 233.007 131.709C232.434 131.939 231.785 131.66 231.555 131.087C231.325 130.514 231.604 129.864 232.177 129.634C235.697 128.226 239.55 128.668 242.75 130.849C246.707 133.545 248.96 138.384 248.926 144.129C248.888 150.946 246.39 157.379 241.893 162.243C236.916 167.625 229.591 171.071 220.713 172.208C218.617 172.476 216.605 172.609 214.68 172.609H214.678Z" fill="#4F3A2C"/>
<path d="M225.475 148.759C224.873 148.759 224.375 148.279 224.359 147.674C224.043 136.371 225.679 130.642 225.748 130.404C225.922 129.812 226.541 129.472 227.135 129.646C227.727 129.82 228.065 130.439 227.893 131.032C227.885 131.06 227.484 132.465 227.127 135.183C226.795 137.707 226.433 141.913 226.592 147.611C226.61 148.228 226.123 148.741 225.507 148.759C225.496 148.759 225.486 148.759 225.475 148.759Z" fill="#4F3A2C"/>
<path d="M216.744 76.9207C196.547 73.6916 183.506 85.6711 180.914 104.854C178.392 123.522 187.634 137.276 206.611 140.309C225.588 143.342 238.658 133.155 242.08 114.631C245.597 95.5963 236.94 80.1498 216.742 76.9207H216.744Z" fill="#7BDEFF"/>
<path d="M224.67 139.777C224.231 139.777 223.815 139.516 223.638 139.085C223.403 138.516 223.674 137.861 224.244 137.627C228.579 135.837 232.219 132.943 235.062 129.023C237.933 125.063 239.925 120.153 240.984 114.429C242.794 104.63 241.322 96.0104 236.726 89.5011C232.428 83.4131 225.457 79.445 216.568 78.0244C207.677 76.6038 199.817 78.2015 193.837 82.6454C187.441 87.3973 183.356 95.1277 182.021 105.003C181.242 110.772 181.605 116.059 183.099 120.716C184.579 125.328 187.134 129.213 190.695 132.263C191.164 132.666 191.219 133.369 190.817 133.839C190.414 134.308 189.709 134.362 189.241 133.96C185.361 130.635 182.579 126.41 180.971 121.398C179.375 116.421 178.982 110.804 179.808 104.703C181.225 94.2178 185.614 85.9687 192.504 80.8512C198.979 76.0403 207.423 74.2988 216.921 75.8168C226.418 77.3348 233.898 81.6206 238.553 88.2113C243.502 95.2234 245.103 104.429 243.181 114.834C242.063 120.887 239.94 126.104 236.872 130.333C233.781 134.594 229.821 137.743 225.098 139.69C224.959 139.748 224.814 139.775 224.672 139.775L224.67 139.777Z" fill="#4F3A2C"/>
<path d="M203.913 148.774C203.396 148.774 202.933 148.413 202.821 147.888L201.169 140.1C201.042 139.497 201.426 138.903 202.031 138.775C202.635 138.648 203.228 139.032 203.356 139.637L205.008 147.425C205.136 148.029 204.751 148.622 204.146 148.75C204.068 148.766 203.99 148.774 203.913 148.774Z" fill="white"/>
<path d="M214.056 149.542C213.61 149.542 213.19 149.273 213.016 148.834L210.204 141.715C209.977 141.142 210.258 140.493 210.833 140.266C211.406 140.039 212.056 140.32 212.282 140.895L215.095 148.014C215.321 148.587 215.04 149.237 214.466 149.463C214.332 149.516 214.193 149.542 214.056 149.542Z" fill="white"/>
<path d="M204.379 144.746C202.775 144.489 201.262 145.586 201.005 147.19C200.748 148.794 201.845 150.308 203.449 150.564C205.053 150.821 206.566 149.725 206.823 148.121C207.08 146.517 205.984 145.003 204.379 144.746Z" fill="white"/>
<path d="M214.52 145.512C212.916 145.255 211.403 146.352 211.146 147.956C210.889 149.56 211.985 151.073 213.59 151.33C215.194 151.587 216.707 150.491 216.964 148.886C217.221 147.282 216.124 145.769 214.52 145.512Z" fill="white"/>
<path d="M215.015 87.7345C203.337 85.8685 194.628 93.4122 192.973 105.599C191.362 117.459 196.429 125.847 208.613 127.793C220.795 129.743 228.223 123.352 230.391 111.58C232.618 99.4841 226.694 89.6005 215.017 87.7345H215.015Z" fill="#FFD9A1"/>
<path d="M212.731 129.253C211.358 129.253 209.926 129.135 208.435 128.897C196.148 126.936 190.109 118.39 191.865 105.451C192.767 98.8105 195.752 93.3053 200.273 89.95C204.407 86.8805 209.566 85.7329 215.191 86.6331C220.817 87.5318 225.362 90.231 228.332 94.4354C231.58 99.0324 232.701 105.194 231.488 111.784C229.411 123.068 222.669 129.255 212.729 129.255L212.731 129.253ZM211.546 88.5709C207.823 88.5709 204.432 89.6452 201.605 91.7442C197.573 94.737 194.901 99.7124 194.081 105.751C193.3 111.497 194.13 116.22 196.545 119.789C199.037 123.47 203.157 125.791 208.788 126.691C214.421 127.593 219.058 126.671 222.573 123.951C225.981 121.314 228.241 117.084 229.291 111.381C230.394 105.387 229.406 99.8273 226.509 95.7267C223.893 92.0235 219.858 89.6436 214.839 88.8407C213.717 88.6619 212.618 88.5725 211.546 88.5725V88.5709Z" fill="#4F3A2C"/>
<path d="M217.958 110.444L211.55 109.419L205.141 108.395C204.683 111.261 202.676 119.621 209.739 120.749C216.803 121.878 217.502 113.311 217.96 110.442L217.958 110.444Z" fill="#FF6666"/>
<path d="M217.96 110.444L205.141 108.395C204.892 109.949 204.189 113.114 204.723 115.87C205.189 115.688 205.671 115.552 206.161 115.466C206.927 115.07 207.749 114.818 208.63 114.715L210.536 114.763C211.361 114.864 212.113 115.131 212.79 115.558C213.446 115.783 214.046 116.133 214.589 116.61C215.099 116.936 215.561 117.322 215.974 117.766C217.382 115.304 217.708 112.016 217.958 110.442L217.96 110.444Z" fill="#4F3A2C"/>
<path d="M215.886 117.769C215.574 117.769 215.264 117.638 215.044 117.386C214.973 117.306 213.602 115.814 210.605 115.335C207.589 114.853 205.821 115.857 205.747 115.9C205.219 116.219 204.536 116.049 204.217 115.522C203.897 114.993 204.07 114.304 204.596 113.985C204.695 113.924 207.087 112.51 210.957 113.128C214.828 113.747 216.657 115.835 216.734 115.924C217.136 116.393 217.082 117.097 216.613 117.499C216.402 117.68 216.143 117.769 215.886 117.769Z" fill="#4F3A2C"/>
<path d="M210.967 121.969C210.515 121.969 210.046 121.93 209.562 121.852C207.5 121.523 205.925 120.612 204.877 119.146C202.673 116.056 203.486 111.391 203.923 108.885C203.966 108.639 204.004 108.415 204.036 108.219C204.134 107.609 204.707 107.194 205.316 107.292L218.135 109.341C218.428 109.387 218.691 109.549 218.863 109.79C219.036 110.031 219.109 110.329 219.061 110.621C219.029 110.818 218.997 111.043 218.961 111.29C218.595 113.809 217.912 118.495 214.855 120.743C213.744 121.558 212.44 121.97 210.965 121.97L210.967 121.969ZM206.055 109.671C205.669 111.925 205.133 115.656 206.697 117.847C207.393 118.822 208.445 119.41 209.915 119.645C211.385 119.879 212.568 119.649 213.534 118.939C215.703 117.344 216.357 113.632 216.693 111.37L206.055 109.67V109.671Z" fill="#4F3A2C"/>
<path d="M223.816 101.386C223.794 99.9442 223.309 98.7263 222.413 97.8643C221.484 96.9673 220.19 96.5092 218.67 96.5395C215.976 96.5938 214.108 98.8205 214.129 101.952C214.139 103.43 214.745 104.806 215.792 105.729C216.429 106.289 217.189 106.645 218.008 106.776C218.424 106.843 218.857 106.851 219.294 106.798C221.958 106.477 223.861 104.201 223.815 101.384L223.816 101.386Z" fill="#4F3A2C"/>
<path d="M219.355 98.2397C218.111 97.357 216.407 98.7138 215.922 100.032C215.7 100.637 215.471 101.648 216.03 102.372C216.617 103.135 217.88 103.154 218.659 102.522C219.799 101.597 220.236 98.8638 219.355 98.2381V98.2397Z" fill="white"/>
<path d="M222.144 103.962C222.394 103.425 222.194 102.802 221.696 102.57C221.199 102.339 220.594 102.587 220.344 103.124C220.094 103.661 220.294 104.284 220.791 104.515C221.289 104.747 221.894 104.499 222.144 103.962Z" fill="white"/>
<path d="M210.166 95.9054C209.237 95.0083 207.942 94.5502 206.423 94.5805C203.728 94.6348 201.861 96.8615 201.881 99.9932C201.891 101.471 202.498 102.847 203.545 103.77C204.182 104.33 204.941 104.686 205.76 104.817C206.177 104.884 206.609 104.892 207.047 104.839C209.711 104.518 211.613 102.242 211.567 99.425C211.545 97.9836 211.06 96.7657 210.164 95.9038L210.166 95.9054Z" fill="#4F3A2C"/>
<path d="M207.107 96.2817C205.864 95.399 204.159 96.7558 203.674 98.0742C203.452 98.6792 203.224 99.6896 203.782 100.414C204.37 101.177 205.632 101.196 206.411 100.564C207.551 99.6385 207.988 96.9058 207.107 96.2801V96.2817Z" fill="white"/>
<path d="M209.896 102.003C210.146 101.466 209.946 100.843 209.448 100.611C208.951 100.38 208.346 100.628 208.096 101.165C207.846 101.702 208.046 102.325 208.543 102.556C209.041 102.788 209.646 102.54 209.896 102.003Z" fill="white"/>
<path d="M108.32 143.872C109.168 141.368 109.774 138.8 110.165 136.187C110.365 134.474 110.48 132.755 110.515 131.029C110.516 130.948 110.52 130.866 110.526 130.785C110.502 130.771 110.48 130.756 110.456 130.742C106.662 128.378 105.175 126.083 102.301 124.945C99.4259 123.806 96.3006 124.822 94.2702 127.15C92.5144 129.165 91.1177 133.025 93.0826 136.819C95.2231 140.953 101.779 145.334 106.847 147.834C107.364 146.524 107.868 145.207 108.32 143.872Z" fill="#FFB44A"/>
<path d="M98.0805 130.933C98.687 130.933 99.1787 130.441 99.1787 129.835C99.1787 129.228 98.687 128.736 98.0805 128.736C97.474 128.736 96.9823 129.228 96.9823 129.835C96.9823 130.441 97.474 130.933 98.0805 130.933Z" fill="white"/>
<path d="M101.211 130.093C101.817 130.093 102.309 129.601 102.309 128.995C102.309 128.388 101.817 127.896 101.211 127.896C100.604 127.896 100.112 128.388 100.112 128.995C100.112 129.601 100.604 130.093 101.211 130.093Z" fill="white"/>
<path d="M96.8002 133.911C97.4067 133.911 97.8984 133.42 97.8984 132.813C97.8984 132.207 97.4067 131.715 96.8002 131.715C96.1937 131.715 95.702 132.207 95.702 132.813C95.702 133.42 96.1937 133.911 96.8002 133.911Z" fill="white"/>
<path d="M102.669 135.131C103.55 134.368 103.564 132.941 102.701 131.943C101.837 130.945 100.422 130.755 99.5413 131.517C98.6601 132.28 98.646 133.707 99.5097 134.705C100.373 135.703 101.788 135.893 102.669 135.131Z" fill="white"/>
<path d="M136.461 54.5916C148.276 52.3377 150.445 46.5834 149.385 40.5594C148.638 36.3182 145.037 30.8991 136.809 30.1457C130.673 29.5839 126.341 31.7755 126.341 31.7755C126.341 31.7755 118.667 26.1441 107.166 28.3755C97.6206 30.2287 92.6117 35.6542 91.7705 41.565C90.9277 47.4901 94.4218 54.1255 104.042 55.6754C113.179 57.1487 120.347 53.4439 120.347 53.4439C120.347 53.4439 126.948 56.4048 136.459 54.59L136.461 54.5916Z" fill="#B776CE"/>
<path d="M101.867 45.9161C95.2535 45.9161 91.4402 44.2593 91.2231 44.1635C90.6596 43.9113 90.4074 43.2505 90.658 42.687C90.9086 42.1235 91.5679 41.8713 92.1313 42.122C92.2111 42.1571 98.9471 45.035 110.009 42.8562C115.61 41.7532 118.971 39.4467 120.805 37.7069C122.786 35.8281 123.465 34.184 123.471 34.1681C123.701 33.5982 124.351 33.3189 124.922 33.5456C125.494 33.7722 125.774 34.4155 125.551 34.9885C125.428 35.3014 122.406 42.6918 110.441 45.0494C107.217 45.6847 104.345 45.9177 101.867 45.9177V45.9161Z" fill="#9B5DB5"/>
<path d="M135.634 46.0918C135.114 46.0918 134.579 46.079 134.03 46.0535C123.65 45.5586 118.995 41.3638 118.802 41.1851C118.349 40.7668 118.32 40.0597 118.74 39.6064C119.158 39.1547 119.862 39.1244 120.315 39.541C120.378 39.5968 124.663 43.3703 134.137 43.822C143.807 44.2833 148.662 40.1379 148.71 40.0964C149.175 39.691 149.88 39.7373 150.287 40.2018C150.694 40.6663 150.646 41.3718 150.182 41.7788C149.97 41.964 145.135 46.0934 135.634 46.0934V46.0918Z" fill="#9B5DB5"/>
<path d="M108.432 57.1424C106.985 57.1424 105.455 57.0355 103.865 56.7785C99.1449 56.0171 95.4194 53.9979 93.0937 50.9364C91.0378 48.2308 90.1759 44.8469 90.6643 41.4071C91.6699 34.3439 97.7578 29.062 106.952 27.2775C117.171 25.2934 124.435 29.2296 126.448 30.5018C127.902 29.9001 131.805 28.5624 136.909 29.0301C140.855 29.3909 144.234 30.8482 146.681 33.2441C148.667 35.1867 150.017 37.7151 150.484 40.3632C151.919 48.5086 147.27 53.6643 136.668 55.6867C131.586 56.6556 127.321 56.2805 124.638 55.7952C122.576 55.4217 121.105 54.9317 120.387 54.6619C118.946 55.318 114.403 57.1408 108.432 57.1408V57.1424ZM112.494 28.9743C110.896 28.9743 109.185 29.1211 107.377 29.4707C99.1609 31.0653 93.7402 35.6448 92.8751 41.7215C92.4696 44.566 93.1783 47.3577 94.8703 49.5844C96.8432 52.1798 100.076 53.9053 104.218 54.5725C112.856 55.9644 119.765 52.4863 119.833 52.4512C120.135 52.2964 120.493 52.2868 120.802 52.4256C120.817 52.432 122.418 53.1344 125.115 53.6132C127.596 54.0538 131.541 54.3906 136.249 53.4935C141.419 52.5071 144.989 50.764 146.86 48.3106C148.365 46.3377 148.83 43.8652 148.281 40.7526C148.057 39.4836 147.349 37.0271 145.117 34.8419C143.012 32.7812 140.182 31.5761 136.704 31.2568C130.994 30.7349 126.881 32.7525 126.839 32.7716C126.464 32.9584 126.014 32.9217 125.675 32.6743C125.616 32.6312 120.478 28.9727 112.491 28.9727L112.494 28.9743Z" fill="#4F3A2C"/>
<path d="M133.013 30.41C133.381 27.2614 130.469 24.3334 126.507 23.8702C122.546 23.4069 119.037 25.5839 118.668 28.7325C118.3 31.8811 121.213 34.8091 125.174 35.2723C129.135 35.7356 132.645 33.5586 133.013 30.41Z" fill="#00FFFF"/>
<path d="M124.113 26.8926C125.147 26.7161 125.888 26.0044 125.769 25.3032C125.649 24.6019 124.713 24.1766 123.679 24.3531C122.645 24.5297 121.904 25.2413 122.024 25.9426C122.144 26.6439 123.079 27.0692 124.113 26.8926Z" fill="white"/>
<path d="M126.238 36.4502C125.843 36.4502 125.444 36.4262 125.044 36.3799C120.477 35.8452 117.119 32.3559 117.557 28.6017C117.776 26.7341 118.874 25.098 120.651 23.9966C122.345 22.9463 124.471 22.5058 126.637 22.7596C128.803 23.0133 130.769 23.9312 132.176 25.3438C133.649 26.8251 134.342 28.6703 134.123 30.5378C133.904 32.4054 132.806 34.0415 131.029 35.1429C129.649 36 127.981 36.4502 126.238 36.4502ZM125.304 34.1612C126.97 34.356 128.586 34.0303 129.851 33.245C131.036 32.5108 131.765 31.4573 131.903 30.2793C132.04 29.1013 131.574 27.9089 130.59 26.9209C129.539 25.8642 128.043 25.1746 126.377 24.9799C124.71 24.7851 123.095 25.1108 121.829 25.8961C120.645 26.6303 119.915 27.6838 119.778 28.8618C119.483 31.3934 121.961 33.7702 125.304 34.1612Z" fill="#4F3A2C"/>
<path d="M236.971 95.0873C243.777 98.9741 247.289 97.0427 249.314 93.6093C250.74 91.1926 251.25 86.9818 247.494 83.1254C244.693 80.2491 241.619 79.5004 241.619 79.5004C241.619 79.5004 240.201 73.4604 233.56 69.6966C228.048 66.5728 223.269 67.1394 220.349 69.7109C217.424 72.2888 216.345 77.0551 220.453 81.8979C224.356 86.4966 229.475 87.6969 229.475 87.6969C229.475 87.6969 231.491 91.9588 236.971 95.0873Z" fill="#B776CE"/>
<path d="M235.823 81.9537C233.778 81.9537 231.081 81.4509 227.934 79.6791C220.985 75.7668 218.723 71.1266 218.629 70.9303C218.364 70.3732 218.601 69.706 219.159 69.441C219.714 69.1777 220.38 69.4123 220.645 69.9662C220.665 70.0077 222.745 74.1913 229.029 77.7301C235.082 81.138 238.961 79.1459 238.999 79.1252C239.544 78.8347 240.22 79.0406 240.511 79.5849C240.801 80.1292 240.596 80.806 240.051 81.0965C239.939 81.1572 238.396 81.9521 235.823 81.9521V81.9537Z" fill="#9B5DB5"/>
<path d="M249.18 94.9389C248.8 94.9389 244.141 94.8383 239.116 90.112C234.082 85.3761 233.536 81.1908 233.515 81.0136C233.443 80.4007 233.88 79.8452 234.493 79.7734C235.103 79.7016 235.657 80.1357 235.734 80.7439C235.742 80.8077 236.275 84.3689 240.648 88.4839C242.968 90.6659 245.162 91.6954 246.596 92.1775C248.149 92.6978 249.17 92.7042 249.18 92.7042C249.795 92.7042 250.297 93.2006 250.301 93.8152C250.304 94.4297 249.814 94.9309 249.199 94.9389C249.194 94.9389 249.188 94.9389 249.18 94.9389Z" fill="#9B5DB5"/>
<path d="M243.528 98.357C241.456 98.357 239.113 97.5972 236.417 96.0585C231.713 93.3721 229.427 89.8987 228.715 88.6457C227.264 88.2068 223.014 86.6425 219.603 82.6217C217.521 80.1683 216.5 77.4947 216.65 74.8929C216.782 72.5784 217.836 70.441 219.614 68.8752C223.232 65.6876 228.653 65.6317 234.114 68.7267C239.893 72.0021 241.949 76.8769 242.524 78.6136C243.645 79.0031 246.053 80.0438 248.297 82.3487C250.162 84.2641 251.257 86.4988 251.463 88.8101C251.63 90.6937 251.211 92.5995 250.278 94.1782C248.974 96.3905 247.255 97.7393 245.172 98.1862C244.644 98.2996 244.096 98.357 243.53 98.357H243.528ZM237.525 94.1175C244.358 98.0202 246.977 95.3737 248.352 93.0417C248.808 92.2691 250.872 88.194 246.695 83.905C244.173 81.316 241.38 80.5913 241.352 80.5849C240.947 80.4827 240.628 80.1619 240.534 79.7549C240.521 79.7022 239.115 74.1267 233.012 70.6677C228.418 68.0643 223.962 68.0196 221.09 70.548C218.768 72.5943 217.43 76.604 221.307 81.1723C224.907 85.415 229.686 86.5962 229.734 86.6074C230.062 86.6856 230.342 86.9107 230.487 87.2171C230.49 87.2235 230.977 88.2259 232.088 89.5747C233.108 90.8118 234.878 92.6043 237.526 94.1159L237.525 94.1175Z" fill="#4F3A2C"/>
<path d="M245.51 81.6689C247.026 80.2655 246.823 77.5821 245.057 75.6752C243.292 73.7684 240.632 73.3603 239.116 74.7636C237.601 76.167 237.803 78.8505 239.569 80.7573C241.335 82.6642 243.995 83.0723 245.51 81.6689Z" fill="#00FFFF"/>
<path d="M243.95 76.2926C244.188 75.8944 243.905 75.2878 243.319 74.9375C242.732 74.5873 242.064 74.6261 241.826 75.0242C241.588 75.4224 241.871 76.029 242.458 76.3793C243.044 76.7295 243.713 76.6907 243.95 76.2926Z" fill="white"/>
<path d="M243.263 83.5938C241.694 83.5938 240.015 82.8723 238.741 81.4979C236.559 79.1419 236.383 75.7452 238.348 73.9256C239.336 73.0109 240.688 72.631 242.154 72.8545C243.525 73.0652 244.843 73.7899 245.868 74.8961C246.893 76.0022 247.515 77.3734 247.621 78.7573C247.732 80.2353 247.25 81.5538 246.262 82.47C245.445 83.2282 244.382 83.5938 243.263 83.5938ZM240.38 79.98C241.702 81.407 243.7 81.7964 244.743 80.8307C245.22 80.3886 245.451 79.7118 245.391 78.9265C245.324 78.0454 244.912 77.1531 244.227 76.4156C243.544 75.6782 242.687 75.1977 241.814 75.0637C241.035 74.9439 240.344 75.1227 239.865 75.5649C238.821 76.5306 239.057 78.553 240.379 79.98H240.38Z" fill="#4F3A2C"/>
<path d="M177.55 127.792C177.293 127.792 177.036 127.704 176.826 127.525C176.393 127.157 176.312 126.528 176.615 126.065C176.483 125.332 174.615 123.314 172.583 121.725C172.098 121.345 172.012 120.642 172.392 120.156C172.771 119.669 173.474 119.584 173.961 119.964C175.052 120.818 178.631 123.769 178.847 125.904C178.904 126.475 178.751 126.992 178.401 127.401C178.181 127.659 177.866 127.793 177.55 127.793V127.792Z" fill="#4F3A2C"/>
<path d="M159.186 115.092L157.651 113.645L153.416 122.357L154.727 129.134L173.496 131.369C176.109 128.92 177.552 126.674 177.552 126.674C177.552 126.674 166.83 123.199 159.188 115.091L159.186 115.092Z" fill="#B776CE"/>
<path d="M156.982 117.872C163.986 125.125 173.41 128.632 175.469 129.337C176.824 127.805 177.552 126.673 177.552 126.673C177.552 126.673 166.83 123.198 159.188 115.089L157.652 113.642L156.026 116.989L156.983 117.87L156.982 117.872Z" fill="white"/>
<path d="M101.084 144.543L106.783 148.026C106.783 148.026 104.553 157.041 101.105 156.069C98.0596 155.21 101.084 144.541 101.084 144.541V144.543Z" fill="#4F3A2C"/>
<path d="M101.397 157.155C101.308 157.155 101.219 157.144 101.129 157.121C98.58 156.493 98.7492 152.537 98.8051 151.236C98.9312 148.274 99.6335 145.185 99.8458 144.31C99.9911 143.71 100.594 143.341 101.195 143.487C101.795 143.632 102.164 144.235 102.018 144.836C101.606 146.537 101.132 149.137 101.038 151.33C100.918 154.13 101.464 154.901 101.666 154.951C102.264 155.099 102.63 155.704 102.483 156.303C102.357 156.812 101.9 157.152 101.399 157.152L101.397 157.155Z" fill="#4F3A2C"/>
<path d="M118.521 134.252L110.379 130.408C110.379 130.408 110.358 136.218 108.135 142.892C105.42 151.044 101.397 156.035 101.397 156.035C101.397 156.035 107.522 157.497 116.569 156.035L118.523 134.252H118.521Z" fill="#B776CE"/>
<path d="M111.715 144.405C113.682 138.721 114.057 133.642 114.127 132.177L110.379 130.408C110.379 130.408 110.358 136.218 108.135 142.892C105.42 151.044 101.397 156.035 101.397 156.035L105.635 156.447C107.018 154.485 109.691 150.259 111.717 144.405H111.715Z" fill="white"/>
<path d="M108.59 157.801C107.405 157.801 106.371 157.758 105.512 157.699C102.789 157.512 101.203 157.139 101.135 157.123C100.762 157.033 100.462 156.76 100.337 156.396C100.213 156.034 100.285 155.633 100.524 155.335C100.562 155.287 104.459 150.382 107.072 142.54C109.214 136.11 109.259 130.461 109.26 130.406C109.262 129.789 109.763 129.293 110.377 129.293H110.382C111 129.295 111.498 129.797 111.495 130.415C111.495 130.659 111.447 136.482 109.193 143.247C107.286 148.973 104.768 153.15 103.353 155.239C103.988 155.325 104.788 155.412 105.731 155.475C108.089 155.633 111.851 155.667 116.39 154.934C117 154.835 117.573 155.25 117.672 155.859C117.771 156.468 117.356 157.041 116.748 157.14C113.619 157.646 110.837 157.803 108.591 157.803L108.59 157.801Z" fill="#4F3A2C"/>
<path d="M106.293 148.643C106.13 148.643 105.964 148.608 105.808 148.531C98.7172 145.112 94.0994 141.338 92.0834 137.318C90.0642 133.29 90.4824 129.488 93.2934 126.323C95.8106 123.487 99.6223 122.53 103.003 123.886C104.791 124.602 106.074 125.625 107.56 126.81C108.62 127.654 109.82 128.61 111.405 129.598C115.04 131.863 118.845 133.182 118.884 133.195C119.468 133.394 119.778 134.031 119.578 134.614C119.378 135.198 118.743 135.508 118.159 135.308C117.995 135.252 114.082 133.899 110.223 131.495C108.529 130.44 107.274 129.439 106.167 128.558C104.762 127.439 103.654 126.554 102.17 125.961C99.6367 124.945 96.8752 125.653 94.963 127.807C92.7475 130.302 92.4585 133.086 94.0787 136.317C95.868 139.888 100.141 143.319 106.776 146.52C107.332 146.788 107.565 147.455 107.297 148.012C107.104 148.411 106.705 148.644 106.29 148.644L106.293 148.643Z" fill="#4F3A2C"/>
<path d="M173.496 132.485C173.198 132.485 172.901 132.367 172.68 132.132C172.259 131.682 172.281 130.975 172.732 130.554C174.087 129.285 175.118 128.065 175.776 127.219C172.256 125.856 163.081 121.759 156.784 114.05C156.393 113.573 156.465 112.869 156.942 112.478C157.419 112.089 158.123 112.159 158.514 112.636C165.854 121.621 177.776 125.572 177.895 125.612C178.224 125.719 178.486 125.972 178.602 126.298C178.719 126.624 178.677 126.986 178.491 127.278C178.428 127.374 176.944 129.669 174.259 132.183C174.044 132.384 173.769 132.485 173.495 132.485H173.496Z" fill="#4F3A2C"/>
<path d="M172.074 125.467C171.941 125.467 171.806 125.443 171.673 125.392C171.097 125.17 170.81 124.524 171.032 123.948C173.587 117.299 174.507 110.689 174.074 107.843C173.365 103.17 169.378 102.137 167.696 101.909C164.802 101.518 162.347 102.667 161.287 104.91C160.588 106.391 160.224 107.89 159.802 109.625C159.462 111.023 159.078 112.608 158.449 114.5C157.009 118.827 154.86 122.165 154.771 122.303C154.436 122.821 153.743 122.969 153.226 122.634C152.709 122.299 152.56 121.606 152.896 121.089C152.916 121.057 154.982 117.84 156.329 113.794C156.929 111.992 157.303 110.455 157.631 109.098C158.082 107.243 158.469 105.642 159.266 103.955C160.755 100.799 164.099 99.1665 167.994 99.6932C172.534 100.308 175.632 103.229 176.281 107.507C176.925 111.743 175.175 119.387 173.115 124.747C172.944 125.191 172.521 125.464 172.071 125.464L172.074 125.467Z" fill="#4F3A2C"/>
<path d="M160.982 213.071C184.069 213.071 202.785 194.355 202.785 171.268C202.785 148.181 184.069 129.465 160.982 129.465C137.895 129.465 119.179 148.181 119.179 171.268C119.179 194.355 137.895 213.071 160.982 213.071Z" fill="#FF8AE3"/>
<path d="M124.204 176.114C124.204 153.026 142.919 134.311 166.007 134.311C176.017 134.311 185.204 137.831 192.402 143.7C184.74 134.975 173.504 129.465 160.98 129.465C137.893 129.465 119.177 148.18 119.177 171.268C119.177 184.345 125.184 196.017 134.585 203.683C128.124 196.325 124.204 186.677 124.204 176.114Z" fill="#FFD7F9"/>
<path d="M142.5 156.158C146.11 151.961 146.799 146.634 144.038 144.26C141.278 141.886 136.114 143.363 132.504 147.561C128.894 151.758 128.205 157.085 130.965 159.459C133.725 161.833 138.889 160.355 142.5 156.158Z" fill="#FFD7F9"/>
<path d="M158.024 152.221C158.776 150.361 158.071 148.321 156.448 147.665C154.826 147.009 152.901 147.985 152.149 149.845C151.397 151.705 152.102 153.745 153.724 154.401C155.346 155.057 157.271 154.081 158.024 152.221Z" fill="#FFD7F9"/>
<path opacity="0.6" d="M173.038 140.891C163.874 137.989 156.905 139.917 156.905 139.917C156.905 139.917 165.277 143.309 166.818 152.11C168.068 159.256 164.4 170.042 151.518 171.811C139.203 173.501 131.42 166.053 131.42 166.053C131.42 166.053 129.248 175.404 137.468 184.39C146.479 194.24 167.86 196.716 180.883 186.574C191.832 178.047 192.395 163.009 189.155 155.18C186.884 149.692 181.88 143.69 173.038 140.891Z" fill="#F75CDA"/>
<g style="mix-blend-mode:multiply" opacity="0.55">
<path d="M160.982 197.156C143.275 197.156 138.243 199.3 138.243 199.3C138.243 199.3 145.989 202.243 160.982 202.243C175.975 202.243 183.722 199.3 183.722 199.3C183.722 199.3 178.689 197.156 160.982 197.156Z" fill="#BC68BC"/>
</g>
<path style="mix-blend-mode:multiply" opacity="0.8" d="M160.982 213.229C184.069 213.229 202.785 194.513 202.785 171.426C202.785 148.339 184.069 129.623 160.982 129.623C137.895 129.623 119.179 148.339 119.179 171.426C119.179 194.513 137.895 213.229 160.982 213.229Z" fill="url(#paint0_linear_109_21449)"/>
<path d="M160.982 214.249C149.5 214.249 138.707 209.778 130.589 201.66C122.47 193.542 117.999 182.748 117.999 171.267C117.999 159.785 122.47 148.992 130.589 140.873C138.707 132.755 149.5 128.284 160.982 128.284C172.463 128.284 183.257 132.755 191.375 140.873C199.493 148.992 203.964 159.785 203.964 171.267C203.964 182.748 199.493 193.542 191.375 201.66C183.257 209.778 172.463 214.249 160.982 214.249ZM160.982 130.642C150.131 130.642 139.928 134.867 132.255 142.54C124.582 150.213 120.355 160.416 120.355 171.267C120.355 182.118 124.58 192.321 132.255 199.994C139.928 207.666 150.131 211.892 160.982 211.892C171.833 211.892 182.036 207.666 189.709 199.994C197.382 192.321 201.608 182.118 201.608 171.267C201.608 160.416 197.383 150.213 189.709 142.54C182.036 134.867 171.833 130.642 160.982 130.642Z" fill="#4F3A2C"/>
<path d="M135.13 216.174C135.13 216.174 133.577 216.405 133.058 217.577C132.611 218.587 132.549 220.444 135.297 221.717C139.467 223.652 147.834 225.382 160.982 225.382C174.13 225.382 182.497 223.652 186.666 221.717C189.415 220.442 189.353 218.587 188.906 217.577C188.389 216.405 186.834 216.174 186.834 216.174" fill="#B98D00"/>
<path d="M160.982 226.498C149.523 226.498 139.989 225.126 134.827 222.73C131.599 221.233 131.306 218.774 132.035 217.124C132.78 215.438 134.742 215.1 134.964 215.068C135.574 214.977 136.144 215.398 136.233 216.008C136.324 216.616 135.906 217.183 135.299 217.277C135.049 217.319 134.29 217.545 134.078 218.027C133.82 218.615 133.693 219.742 135.765 220.704C140.643 222.968 149.833 224.265 160.981 224.265C172.128 224.265 181.318 222.968 186.196 220.704C188.268 219.743 188.142 218.615 187.883 218.027C187.669 217.544 186.909 217.319 186.66 217.277C186.05 217.186 185.632 216.618 185.723 216.008C185.814 215.397 186.387 214.977 186.997 215.068C187.219 215.102 189.181 215.438 189.926 217.124C190.656 218.774 190.362 221.233 187.136 222.73C181.974 225.124 172.441 226.498 160.981 226.498H160.982Z" fill="#4F3A2C"/>
<path d="M194.218 207.695C193.671 202.772 189.487 201.586 189.487 201.586C189.487 201.586 178.049 206.092 160.981 206.092C143.912 206.092 132.474 201.586 132.474 201.586C132.474 201.586 128.292 202.772 127.743 207.695C127.39 210.866 128.555 213.706 131.609 215.615C137.355 219.206 148.664 220.638 160.981 220.638C173.297 220.638 184.606 219.206 190.352 215.615C193.406 213.706 194.571 210.866 194.218 207.695Z" fill="#FFD200"/>
<path d="M160.982 221.756C143.086 221.756 134.809 218.93 131.018 216.562C127.772 214.533 126.215 211.339 126.635 207.57C127.259 201.966 131.971 200.568 132.171 200.51C132.407 200.443 132.658 200.456 132.886 200.545C132.913 200.557 135.762 201.666 140.632 202.761C145.121 203.77 152.296 204.973 160.982 204.973C169.669 204.973 176.844 203.77 181.332 202.761C186.202 201.666 189.051 200.557 189.079 200.545C189.305 200.456 189.557 200.443 189.792 200.51C189.992 200.568 194.704 201.966 195.328 207.57C195.747 211.339 194.19 214.531 190.944 216.562C187.153 218.93 178.879 221.756 160.981 221.756H160.982ZM132.468 202.777C131.601 203.139 129.234 204.427 128.855 207.818C128.527 210.769 129.654 213.072 132.203 214.667C137.21 217.797 147.43 219.521 160.982 219.521C174.534 219.521 184.753 217.797 189.762 214.667C192.311 213.074 193.438 210.769 193.109 207.818C192.732 204.432 190.37 203.141 189.497 202.777C187.291 203.583 176.497 207.21 160.982 207.21C145.467 207.21 134.672 203.581 132.468 202.777Z" fill="#4F3A2C"/>
<path d="M163.319 212.557L162.039 211.816L161.729 210.407C161.657 210.079 161.373 209.84 161.038 209.824C160.704 209.808 160.4 210.02 160.297 210.341L159.868 211.696L158.693 212.271C158.449 212.391 158.291 212.632 158.278 212.903C158.265 213.174 158.401 213.43 158.633 213.57L159.887 214.335L160.171 215.724C160.24 216.059 160.529 216.303 160.87 216.316C160.88 216.316 160.89 216.316 160.898 216.316C161.228 216.316 161.52 216.097 161.611 215.776L162.004 214.394L163.234 213.882C163.495 213.773 163.672 213.527 163.689 213.245C163.707 212.964 163.565 212.696 163.321 212.555L163.319 212.557Z" fill="white"/>
<path d="M139.393 209.859L138.271 208.958L138.18 207.559C138.16 207.233 137.922 206.962 137.601 206.898C137.282 206.834 136.958 206.994 136.812 207.286L136.201 208.524L134.986 208.904C134.734 208.982 134.546 209.193 134.495 209.452C134.444 209.71 134.536 209.977 134.737 210.146L135.831 211.065L135.901 212.443C135.918 212.775 136.159 213.053 136.487 213.115C136.495 213.117 136.504 213.118 136.514 213.12C136.831 213.168 137.144 213 137.278 212.706L137.858 211.436L139.116 211.123C139.382 211.057 139.588 210.845 139.647 210.577C139.706 210.309 139.607 210.031 139.393 209.859Z" fill="white"/>
<path d="M182.569 209.859L183.691 208.958L183.782 207.559C183.803 207.233 184.041 206.962 184.362 206.898C184.681 206.834 185.005 206.994 185.15 207.286L185.762 208.524L186.976 208.904C187.228 208.982 187.417 209.193 187.468 209.452C187.519 209.71 187.426 209.977 187.225 210.146L186.132 211.065L186.062 212.443C186.044 212.775 185.803 213.053 185.476 213.115C185.468 213.117 185.458 213.118 185.449 213.12C185.131 213.168 184.818 213 184.684 212.706L184.105 211.436L182.847 211.123C182.58 211.057 182.374 210.845 182.315 210.577C182.256 210.309 182.355 210.031 182.569 209.859Z" fill="white"/>
<path d="M148.326 213.366C148.948 213.366 149.453 212.862 149.453 212.239C149.453 211.617 148.948 211.112 148.326 211.112C147.704 211.112 147.199 211.617 147.199 212.239C147.199 212.862 147.704 213.366 148.326 213.366Z" fill="white"/>
<path d="M173.638 213.366C174.261 213.366 174.765 212.862 174.765 212.239C174.765 211.617 174.261 211.112 173.638 211.112C173.016 211.112 172.511 211.617 172.511 212.239C172.511 212.862 173.016 213.366 173.638 213.366Z" fill="white"/>
<defs>
<linearGradient id="paint0_linear_109_21449" x1="203.031" y1="218.832" x2="153.81" y2="163.341" gradientUnits="userSpaceOnUse">
<stop stop-color="#1E59AF"/>
<stop offset="0.13" stop-color="#3268B6" stop-opacity="0.91"/>
<stop offset="0.39" stop-color="#678FC9" stop-opacity="0.67"/>
<stop offset="0.75" stop-color="#BDCEE7" stop-opacity="0.29"/>
<stop offset="1" stop-color="white" stop-opacity="0"/>
</linearGradient>
</defs>
</svg>
