<svg width="879" height="415" viewBox="0 0 879 415" fill="none" xmlns="http://www.w3.org/2000/svg">
<path d="M1.49025 350.542C1.48114 329.111 6.81898 310.455 14.1335 308.043C21.1747 305.725 26.467 319.973 26.3121 340.315C26.139 367.664 31.8321 384.441 39.7387 380.656C45.614 377.873 50.4417 363.887 50.6512 348.198C51.4346 287.852 2.97502 294.841 2.90215 199.197C2.84749 146.54 16.4836 114.352 43.0817 114.808C62.6841 115.086 80.4374 135.015 79.6359 176.165C79.2806 195.209 73.5784 210.73 66.182 211.986C58.7855 213.242 53.4476 198.826 53.6936 178.82C54.0306 154.389 48.0643 135.816 40.9866 135.968C34.3462 136.154 29.646 147.897 29.5094 167.11C29.0995 236.915 80.9111 241.493 79.481 313.582C78.7158 353.56 64.2782 387.813 39.5383 400.585C17.4127 412.076 1.57223 397.087 1.49025 350.542Z" fill="white"/>
<path d="M121.355 345.801C122.065 345.557 122.776 345.304 123.486 345.059C125.763 344.267 127.23 342.1 126.392 330.921C124.315 311.481 122.229 291.821 120.125 271.925C114.414 273.282 108.711 274.673 103.027 276.106C100.003 297.225 96.9973 318.596 94.0187 340.229C92.7343 354.544 95.6492 355.201 98.3181 354.181C99.0195 353.911 99.7209 353.65 100.431 353.389C100.322 358.101 100.222 362.814 100.113 367.527C92.3335 370.629 84.6001 373.841 76.9121 377.163C77.0032 372.273 77.0943 367.375 77.1854 362.485C77.4131 362.392 77.6499 362.3 77.8777 362.199C81.6396 360.647 86.8226 351.02 88.7993 336.393C99.0468 261.209 109.604 189.179 120.353 119.948C123.732 119.922 127.111 119.889 130.491 119.863C137.742 187.914 144.847 253.251 151.906 316.244C153.509 329.758 154.211 335.01 157.809 333.914C158.045 333.838 158.291 333.771 158.528 333.695C158.401 338.02 158.273 342.345 158.146 346.67C145.676 350.666 133.287 354.94 120.999 359.484C121.118 354.923 121.236 350.354 121.355 345.793V345.801ZM118.759 258.545C116.909 241.457 115.051 224.199 113.184 206.748C110.506 224.832 107.846 243.101 105.195 261.563C109.704 260.535 114.231 259.532 118.759 258.545Z" fill="white"/>
<path d="M212.726 131.492C212.435 131.492 212.143 131.5 211.861 131.509C178.65 131.939 177.265 168.873 176.946 179.049C175.015 179.217 173.084 179.386 171.153 179.554C171.754 159.557 172.355 139.56 172.947 119.563C196.813 119.394 220.687 119.259 244.562 119.133C228.43 183.904 212.08 251.627 195.738 323.278C197.578 322.797 199.427 322.334 201.276 321.861C234.752 313.465 236.191 280.181 236.446 270.587C238.404 270.258 240.354 269.938 242.312 269.618C241.756 287.903 241.201 306.189 240.645 324.475C214.794 330.149 189.18 336.944 163.902 344.86C180.098 269.651 196.458 198.852 212.717 131.5L212.726 131.492Z" fill="white"/>
<path d="M291.957 303.586C292.704 303.476 293.441 303.358 294.188 303.248C296.575 302.886 298.096 301.284 297.149 291.977C294.844 275.723 292.567 259.376 290.308 242.92C284.405 243.544 278.512 244.21 272.628 244.918C269.512 261.762 266.379 278.733 263.236 295.838C261.879 307.219 264.94 308.088 267.754 307.582C268.492 307.447 269.239 307.32 269.977 307.186C269.867 310.988 269.758 314.79 269.649 318.592C261.442 320.118 253.244 321.753 245.082 323.507C245.2 319.612 245.319 315.717 245.437 311.822C245.683 311.772 245.929 311.721 246.175 311.671C250.156 310.853 255.658 303.729 257.762 292.188C268.656 232.879 279.414 175.239 289.971 118.915C293.359 118.898 296.739 118.89 300.127 118.873C307.733 174.658 315.558 229.212 323.647 282.914C325.478 294.447 326.279 298.966 330.014 298.544C330.26 298.519 330.515 298.485 330.761 298.46C330.688 302.094 330.606 305.719 330.533 309.352C317.544 310.887 304.591 312.691 291.674 314.765C291.774 311.03 291.866 307.304 291.966 303.569L291.957 303.586ZM288.832 231.876C286.856 217.78 284.897 203.6 282.957 189.335C280.27 203.903 277.565 218.564 274.859 233.317C279.514 232.82 284.178 232.339 288.832 231.876Z" fill="white"/>
<path d="M453.785 282.248C453.758 273.025 450.734 265.084 445.943 257.682C436.123 287.146 424.719 307.38 405.836 308.062C383.146 309.007 369.865 281.675 370.256 256.198C370.748 223.024 385.915 205.396 399.223 198.828C395.024 189.656 392.337 179.371 392.464 166.91C392.81 135.852 405.344 114.388 423.863 114.422C436.606 114.422 446.189 126.798 446.225 143.389C446.271 162.881 435.276 178.654 427.297 183.443C434.62 196.046 444.959 206.551 454.031 217.966C455.789 210.344 456.928 199.545 457.01 181.099C456.964 166.868 463.067 155.824 470.956 155.883C478.844 155.934 485.093 167.13 485.239 181.453C485.384 195.768 479.136 206.728 471.439 206.593C463.313 206.989 459.497 213.548 456.855 221.683C466.839 234.692 474.7 249.445 474.854 269.796C475.191 308.678 453.312 319.832 430.567 320.118C430.567 316.603 430.576 313.096 430.585 309.58C443.893 309.445 453.831 298.325 453.776 282.24L453.785 282.248ZM418.215 273.674C426.313 273.506 435.64 265.809 442.645 253.188C431.132 237.592 413.196 223.909 402.129 204.586C396.472 210.783 394.122 223.833 394.013 234.961C393.83 252.75 402.302 274.028 418.215 273.674ZM424.819 178.713C429.984 175.257 435.713 160.764 435.722 145.497C435.722 134.697 432.398 125.753 426.878 125.753C421.795 125.753 417.541 134.461 417.477 146.601C417.413 159.264 420.292 169.524 424.819 178.721V178.713Z" fill="white"/>
<path d="M592.215 290.297C592.187 289.361 592.169 288.426 592.142 287.49C589.045 304.157 582.741 318.354 570.171 316.491C547.963 312.984 524.818 268.74 523.952 212.804C523.096 156.859 543.974 114.706 571.574 114.42C595.457 114.15 614.204 145.478 615.451 187.487C615.889 202.476 610.66 213.436 603.027 212.728C595.394 212.02 589.218 200.318 588.835 185.75C587.915 151.691 580.564 126.071 571.565 126.071C559.395 126.071 550.924 157.677 551.816 199.914C552.746 244.098 561.08 278.064 578.041 280.299C589.036 281.74 591.595 267.299 591.021 245.91C590.939 242.918 590.857 239.916 590.784 236.924C584.991 236.333 579.189 235.769 573.377 235.246C573.277 230.997 573.168 226.748 573.068 222.499C587.797 223.696 602.508 225.087 617.173 226.68C617.865 250.471 618.558 274.262 619.259 298.062C619.505 306.695 620.47 309.156 623.276 309.696C623.968 309.831 624.651 309.957 625.344 310.092C625.462 313.953 625.572 317.814 625.69 321.667C618.348 320.166 610.979 318.759 603.601 317.443C596.76 316.204 592.652 306.593 592.215 290.306V290.297Z" fill="white"/>
<path d="M677.319 321.599C678.048 321.784 678.777 321.97 679.506 322.147C681.837 322.745 683.249 321.565 681.756 310.791C678.513 291.755 675.27 272.904 672.027 254.239C666.197 253.261 660.368 252.317 654.52 251.415C652.425 268.36 650.33 285.154 648.207 301.812C647.533 313.151 650.667 315.301 653.454 315.933C654.192 316.094 654.921 316.262 655.658 316.431C655.786 320.419 655.904 324.398 656.032 328.385C647.907 326.438 639.754 324.609 631.583 322.88C631.465 318.994 631.356 315.116 631.237 311.238C631.483 311.288 631.729 311.339 631.975 311.381C635.956 312.182 641.075 307.14 642.487 295.978C649.847 238.803 657.061 180.025 664.193 119.283C667.573 119.3 670.961 119.325 674.341 119.342C685.299 180.944 696.293 244.603 707.233 310.673C709.674 324.912 710.704 330.619 714.311 331.673C714.548 331.741 714.794 331.817 715.03 331.884C715.158 336.175 715.285 340.466 715.413 344.749C702.916 340.837 690.336 337.204 677.693 333.848C677.565 329.76 677.438 325.679 677.31 321.59L677.319 321.599ZM669.905 241.77C667.09 225.879 664.275 210.122 661.47 194.492C659.666 209.692 657.863 224.766 656.05 239.73C660.668 240.388 665.287 241.07 669.905 241.77Z" fill="white"/>
<path d="M757.305 133.716C757.013 133.708 756.722 133.699 756.439 133.691C723.283 133.076 724.084 170.499 724.385 180.986C722.454 180.809 720.532 180.632 718.601 180.455C718.009 160.18 717.417 139.904 716.815 119.629C740.681 119.798 764.537 119.991 788.384 120.211C775.86 199.609 763.799 273.756 751.867 343.602C753.67 344.218 755.474 344.833 757.268 345.457C789.687 357.378 788.949 316.262 788.758 304.62C790.643 305.193 792.52 305.766 794.396 306.348C794.843 328.959 795.298 351.578 795.744 374.188C771.287 363.869 746.401 354.663 721.169 346.587C733.12 279.75 745.062 209.119 757.286 133.716H757.305Z" fill="white"/>
<path d="M843.001 380.149C843.685 380.47 844.368 380.782 845.051 381.102C847.228 382.131 848.576 380.773 847.374 366.804C844.668 342.052 841.918 317.629 839.121 293.509C833.546 291.806 827.954 290.137 822.352 288.501C820.138 309.814 817.961 330.856 815.802 351.629C815.064 365.86 818.007 368.954 820.63 370.1C821.322 370.395 822.015 370.699 822.698 371.002C822.771 376.061 822.843 381.127 822.916 386.186C815.301 382.662 807.65 379.256 799.944 375.96C799.852 371.087 799.761 366.222 799.661 361.349C799.898 361.442 800.126 361.535 800.363 361.628C804.125 363.162 808.989 357.497 810.419 343.595C817.843 272.483 825.558 198.286 833.71 120.633C837.09 120.667 840.469 120.7 843.849 120.734C853.568 199.88 862.804 282.575 871.394 369.165C873.316 387.83 874.127 395.35 877.47 397.078C877.697 397.196 877.916 397.306 878.135 397.424V414.167C866.603 407.793 854.934 401.689 843.147 395.864C843.093 390.62 843.047 385.385 842.992 380.141L843.001 380.149ZM837.272 277.407C834.822 256.904 832.335 236.628 829.821 216.581C827.835 235.861 825.886 254.931 823.946 273.79C828.4 274.979 832.836 276.184 837.272 277.407Z" fill="white"/>
<path d="M25.1364 77.4012H26.8671C29.2172 77.4012 29.9641 76.4823 29.9641 70.5304V6.52588C6.08956 7.78202 5.84361 19.8039 5.84361 23.2436H0.897461V1.83008H81.5571V23.2436H76.611C76.611 19.8124 76.365 7.79045 52.4814 6.52588V70.5304C52.4814 76.4823 53.2283 77.4012 55.5784 77.4012H57.3091V81.979H25.1455V77.4012H25.1364Z" fill="white"/>
<path d="M109.631 77.4012H111.489C113.466 77.4012 114.705 76.828 113.712 72.9331L106.907 52.4385H92.0597L85.3829 72.3598C84.5175 76.828 87.1136 77.4012 89.4637 77.4012H91.3219V81.979H70.7812V77.4012H71.4007C74.7436 77.4012 79.1979 74.9985 80.6827 70.5304L103.819 1.83008H112.482L135.619 70.5304C137.349 75.4538 138.096 77.4012 141.184 77.4012H141.804V81.979H109.64V77.4012H109.631ZM105.423 47.8607L99.4835 30.3421L93.672 47.8607H105.423Z" fill="white"/>
<path d="M141.539 77.4012H143.27C145.62 77.4012 146.367 76.4823 146.367 70.5304V10.758C146.367 7.31834 145.747 6.40784 143.27 6.40784H141.539V1.83008H178.53C199.563 1.94811 210.94 10.6484 210.94 27.0205C210.94 40.6442 203.143 49.2349 188.423 51.8652C195.355 53.6946 200.419 57.1343 203.389 63.4319L206.978 71.1036C209.701 76.1451 213.163 77.4012 216.132 77.4012H216.752V81.979H184.342C184.342 78.3117 183.969 74.4253 183.231 70.64C181.5 61.1388 177.784 52.6661 172.464 52.6661C170.114 52.6661 168.875 54.6135 168.875 58.1628V70.5304C168.875 76.4823 169.622 77.4012 171.972 77.4012H173.703V81.979H141.539V77.4012ZM178.039 48.0883C184.715 48.0883 188.058 39.9613 188.058 27.0205C188.058 14.0796 184.715 6.40784 178.039 6.40784H168.884V48.0883H178.039Z" fill="white"/>
<path d="M217.135 41.9081C217.135 17.9739 234.332 0 257.342 0C280.351 0 297.421 17.9739 297.421 41.9081C297.421 65.8424 280.223 83.8162 257.214 83.8162C234.205 83.8162 217.135 65.8424 217.135 41.9081ZM257.342 79.0108C265.758 79.0108 272.062 63.094 272.062 41.9081C272.062 20.7222 265.631 4.81383 257.214 4.81383C248.797 4.81383 242.494 20.7306 242.494 41.9081C242.494 63.0856 248.925 79.0108 257.342 79.0108Z" fill="white"/>
<path d="M321.796 77.4012H323.527C325.877 77.4012 326.624 76.4823 326.624 70.5304V6.52588C302.75 7.78202 302.504 19.8039 302.504 23.2436H297.558V1.83008H378.217V23.2436H373.271C373.271 19.8124 373.025 7.79045 349.151 6.52588V70.5304C349.151 76.4823 349.888 77.4012 352.239 77.4012H353.969V81.979H321.806V77.4012H321.796Z" fill="white"/>
<path d="M420.146 17.2916V73.0511C420.146 76.4823 420.765 77.4012 423.243 77.4012H424.974V81.979H410.372V77.4012H412.103C414.453 77.4012 415.2 76.4823 415.2 73.0511V10.758C415.2 7.31834 414.462 6.40784 412.103 6.40784H410.372V1.83008H438.582L454.049 47.8607L469.762 1.83008H497.107V6.40784H495.377C492.899 6.40784 492.28 7.32677 492.28 10.758V70.5304C492.28 76.4823 493.017 77.4012 495.377 77.4012H497.107V81.979H464.944V77.4012H466.674C469.025 77.4012 469.771 76.4823 469.771 70.5304V16.946L447.382 81.9874H442.308L442.436 81.4142L441.944 81.9874L420.173 17.2916H420.146Z" fill="white"/>
<path d="M539.645 77.4012H541.504C543.48 77.4012 544.719 76.828 543.726 72.9331L536.922 52.4385H522.074L515.398 72.3598C514.532 76.828 517.128 77.4012 519.478 77.4012H521.337V81.979H500.796V77.4012H501.415C504.758 77.4012 509.213 74.9985 510.697 70.5304L533.834 1.83008H542.497L565.633 70.5304C567.364 75.4538 568.111 77.4012 571.199 77.4012H571.818V81.979H539.655V77.4012H539.645ZM535.437 47.8607L529.498 30.3421L523.687 47.8607H535.437Z" fill="white"/>
<path d="M574.287 64.5795C574.287 58.7372 579.115 54.1594 585.674 54.1594C592.232 54.1594 596.805 58.7372 596.805 64.5795C596.805 72.3693 602.124 77.9756 609.302 77.9756C614.622 77.9756 618.83 74.4263 618.83 69.7305C618.83 51.5206 575.526 49.1179 575.526 23.2447C575.526 8.92965 587.158 0.111328 609.794 0.111328C626.5 0.111328 641.958 6.2909 641.958 19.2317C641.958 25.1837 637.258 29.7699 630.827 29.7699C624.396 29.7699 619.568 25.1921 619.568 19.2317C619.568 11.9056 614.248 6.29089 608.182 6.29089C602.489 6.29089 598.535 9.61252 598.535 15.1092C598.535 34.8029 644.062 39.3807 644.062 62.2864C644.062 74.8816 631.81 83.8095 609.293 83.8095C589.126 83.8095 574.278 77.1663 574.278 64.5711L574.287 64.5795Z" fill="white"/>
<path d="M672.017 77.4012H673.747C676.097 77.4012 676.844 76.4823 676.844 70.5304V6.52588C652.97 7.78202 652.715 19.8039 652.715 23.2436H647.769V1.83008H728.428V23.2436H723.482C723.482 19.8124 723.236 7.79045 699.362 6.52588V70.5304C699.362 76.4823 700.099 77.4012 702.45 77.4012H704.18V81.979H672.017V77.4012Z" fill="white"/>
<path d="M734.614 77.4012H736.344C738.822 77.4012 739.441 76.4823 739.441 73.0511V10.758C739.441 7.31834 738.822 6.40784 736.344 6.40784H734.614V1.83008H792.884V23.2436H788.056C788.056 19.6943 787.81 7.21717 761.95 6.41628V37.331C779.885 37.1034 781.005 35.2739 781.005 27.2565H785.952V52.2193H781.005C781.005 44.2019 779.894 42.3724 761.95 42.1448V77.4097C788.429 76.8364 788.675 64.1316 788.675 60.5824H793.621V81.9959H734.604V77.4181L734.614 77.4012Z" fill="white"/>
<path d="M803.522 77.4012H805.253C807.603 77.4012 808.341 76.4823 808.341 70.5304V10.758C808.341 7.31834 807.722 6.40784 805.253 6.40784H803.522V1.83008H840.514C861.546 1.94811 872.924 10.6484 872.924 27.0205C872.924 40.6442 865.126 49.2349 850.406 51.8652C857.338 53.6946 862.403 57.1343 865.372 63.4319L868.961 71.1036C871.685 76.1451 875.146 77.4012 878.116 77.4012H878.735V81.979H846.325C846.325 78.3117 845.952 74.4253 845.214 70.64C843.483 61.1388 839.767 52.6661 834.447 52.6661C832.097 52.6661 830.858 54.6135 830.858 58.1628V70.5304C830.858 76.4823 831.605 77.4012 833.955 77.4012H835.686V81.979H803.522V77.4012ZM840.022 48.0883C846.699 48.0883 850.042 39.9613 850.042 27.0205C850.042 14.0796 846.699 6.40784 840.022 6.40784H830.868V48.0883H840.022Z" fill="white"/>
</svg>
