<svg width="358" height="789" viewBox="0 0 358 789" fill="none" xmlns="http://www.w3.org/2000/svg">
<path d="M302.97 782H54.06C53.57 782 53.14 781.742 53.06 781.382C48.32 761.893 27.33 746.45 0.84 742.963C0.35 742.897 0 742.588 0 742.227V47.7727C0 47.4122 0.35 47.0958 0.84 47.037C27.33 43.5423 48.31 28.107 53.06 8.618C53.15 8.2575 53.57 8 54.06 8H302.97C303.46 8 303.89 8.2575 303.97 8.618C308.71 28.107 329.7 43.5497 356.19 47.037C356.68 47.1032 357.03 47.4122 357.03 47.7727V742.22C357.03 742.58 356.68 742.897 356.19 742.956C329.7 746.443 308.71 761.885 303.97 781.375C303.88 781.735 303.46 781.993 302.97 781.993V782ZM54.9 780.499H302.12C307.25 760.892 328.34 745.376 354.99 741.602V48.398C328.34 44.6238 307.25 29.1076 302.12 9.50086H54.91C49.78 29.1076 28.69 44.6238 2.04 48.398V741.602C28.69 745.376 49.78 760.892 54.91 780.499H54.9Z" fill="#269E45"/>
<path d="M296.79 14.4453C300.13 23.4798 306.6 31.683 315.72 38.3927C324.84 45.1025 336 49.8625 348.27 52.3198V737.666C335.99 740.124 324.84 744.884 315.72 751.593C306.6 758.303 300.13 766.506 296.79 775.541H60.25C56.91 766.506 50.44 758.303 41.32 751.593C32.2 744.884 21.04 740.124 8.77003 737.666V52.3272C21.05 49.8699 32.2 45.1098 41.32 38.4001C50.44 31.6904 56.91 23.4798 60.25 14.4526H296.79M296.79 13.9156H60.25C59.92 13.9156 59.63 14.0774 59.55 14.3128C56.25 23.2297 49.77 31.4329 40.8 38.0249C31.83 44.6169 20.69 49.3917 8.57003 51.8195C8.25003 51.8857 8.03003 52.0917 8.03003 52.3345V737.681C8.03003 737.924 8.25003 738.137 8.57003 738.196C20.69 740.624 31.84 745.391 40.8 751.991C49.76 758.583 56.25 766.786 59.55 775.703C59.64 775.938 59.92 776.1 60.25 776.1H296.79C297.12 776.1 297.41 775.938 297.49 775.703C300.79 766.786 307.27 758.583 316.24 751.991C325.2 745.399 336.35 740.624 348.47 738.196C348.79 738.13 349.01 737.924 349.01 737.681V52.3272C349.01 52.0844 348.79 51.871 348.47 51.8122C336.35 49.3843 325.2 44.6095 316.24 38.0175C307.28 31.4255 300.8 23.2223 297.49 14.3055C297.4 14.0701 297.12 13.9082 296.79 13.9082V13.9156Z" fill="#269E45"/>
<path d="M21.58 15.5422C21.32 15.5422 21.06 15.4486 20.86 15.2613C17.24 11.8813 11.89 11.3758 8.93 14.1471C8.53 14.5216 7.89 14.5216 7.49 14.1471C7.29 13.9599 7.19 13.7164 7.19 13.473C7.19 13.2296 7.29 12.9862 7.49 12.7989C10.45 10.0275 9.92 5.01844 6.3 1.62912C6.1 1.44187 6 1.19843 6 0.955002C6 0.71157 6.1 0.468138 6.3 0.280883C6.7 -0.0936276 7.34 -0.0936276 7.74 0.280883C9.51 1.94745 11.75 2.95863 14.04 3.15525C16.25 3.34251 18.26 2.7152 19.67 1.39505C20.07 1.02054 20.71 1.02054 21.11 1.39505C21.31 1.58231 21.41 1.82574 21.41 2.06917C21.41 2.3126 21.31 2.55603 21.11 2.74329C19.7 4.06344 19.03 5.93599 19.23 8.01452C19.43 10.1586 20.52 12.2465 22.3 13.9131C22.5 14.1003 22.6 14.3438 22.6 14.5872C22.6 14.8306 22.5 15.074 22.3 15.2613C22.1 15.4486 21.84 15.5422 21.58 15.5422ZM13.81 10.4582C15.19 10.4582 16.62 10.7204 17.99 11.2353C17.57 10.2522 17.3 9.22232 17.2 8.18305C17.08 6.96589 17.2 5.80491 17.55 4.7282C16.4 5.04653 15.15 5.16824 13.86 5.05589C12.75 4.96226 11.65 4.70947 10.6 4.31623C11.53 6.48839 11.68 8.801 11.03 10.8327C11.91 10.5799 12.85 10.4582 13.8 10.4582H13.81Z" fill="#269E45"/>
<path d="M16.06 30.2418C15.74 30.2418 15.43 30.223 15.15 30.195C12.59 29.9328 10.16 28.5378 8.63003 26.4686C6.20003 23.1635 6.95003 19.2499 10.45 16.9467C13.76 14.7651 17.26 16.0572 19.12 18.1732C20.87 20.1674 20.98 22.555 19.39 23.9781C18.98 24.3432 18.34 24.3245 17.95 23.95C17.56 23.5661 17.58 22.9669 17.98 22.6018C18.9 21.7778 18.4 20.3547 17.54 19.3903C16.55 18.2668 14.19 16.8156 11.61 18.5102C9.00003 20.233 8.49003 22.9295 10.3 25.3919C11.49 27.0116 13.39 28.1071 15.36 28.3037C17.34 28.5097 19.32 27.8168 21.07 26.3001C22.84 24.7646 23.75 23.0793 23.79 21.2816C23.85 18.3136 21.55 15.9261 20.85 15.2707C20.45 14.8962 20.45 14.297 20.85 13.9225C21.25 13.548 21.89 13.548 22.29 13.9225C23.38 14.943 25.9 17.705 25.83 21.3191C25.78 23.6598 24.65 25.8038 22.46 27.7045C20.12 29.7362 17.8 30.2511 16.05 30.2511L16.06 30.2418Z" fill="#269E45"/>
<path d="M17.25 22.7332C16.74 22.6396 16.42 22.3213 16.46 21.8531C16.5 21.2258 16.43 20.8419 15.98 20.3457C15.52 19.8495 14.27 19.2784 13.03 20.4393C12.33 21.0947 12.09 21.9842 12.32 22.8081C12.99 25.1675 15.9 25.7012 17.15 25.2986C19.92 24.3998 20.39 22.4243 20.39 22.4243C20.39 22.4243 19.91 21.8812 19.66 21.6752C19.65 21.5722 18.33 20.5798 18.44 21.0854C18.59 21.7595 18.04 22.8737 17.25 22.7332Z" fill="#269E45"/>
<path d="M28.5901 18.5758C24.8101 18.5758 21.93 16.2632 20.85 15.2614C20.45 14.8868 20.45 14.2876 20.85 13.9131C21.25 13.5386 21.89 13.5386 22.29 13.9131C23 14.5779 25.52 16.7126 28.71 16.6658C30.63 16.6283 32.43 15.7763 34.0701 14.1191C35.6901 12.4806 36.43 10.6268 36.21 8.77296C35.99 6.91914 34.83 5.14957 33.1 4.0354C30.47 2.34074 27.5901 2.81825 25.7501 5.26193C23.9301 7.67752 25.48 9.88713 26.69 10.814C27.73 11.6099 29.24 12.078 30.12 11.226C30.51 10.8421 31.1501 10.8328 31.5601 11.1979C31.97 11.5631 31.9801 12.1623 31.5901 12.5462C30.0701 14.0348 27.5201 13.9318 25.39 12.2934C23.13 10.5519 21.7501 7.26556 24.0801 4.17585C26.5401 0.898879 30.7301 0.196673 34.2501 2.47182C36.4601 3.89496 37.95 6.17948 38.23 8.57634C38.43 10.271 38.13 12.8364 35.56 15.4299C33.53 17.4803 31.2401 18.5383 28.7401 18.5851C28.68 18.5851 28.6301 18.5851 28.5701 18.5851L28.5901 18.5758Z" fill="#269E45"/>
<path d="M30.28 10.5329C30.18 10.0554 29.84 9.7558 29.34 9.79325C28.67 9.8307 28.26 9.76516 27.73 9.34383C27.2 8.92251 26.59 7.7428 27.83 6.58182C28.53 5.92643 29.48 5.70172 30.36 5.91706C32.88 6.54437 33.45 9.26893 33.02 10.4393C32.06 13.0328 29.95 13.4728 29.95 13.4728C29.95 13.4728 29.37 13.0234 29.15 12.7893C29.04 12.78 27.98 11.5441 28.52 11.6471C29.24 11.7875 30.43 11.2726 30.28 10.5329Z" fill="#269E45"/>
<path d="M336.06 15.5422C335.8 15.5422 335.54 15.4486 335.34 15.2613C335.14 15.074 335.04 14.8306 335.04 14.5872C335.04 14.3438 335.14 14.1003 335.34 13.9131C338.96 10.5237 339.49 5.51467 336.53 2.74329C336.33 2.55603 336.23 2.3126 336.23 2.06917C336.23 1.82574 336.33 1.58231 336.53 1.39505C336.93 1.02054 337.57 1.02054 337.97 1.39505C339.38 2.7152 341.38 3.34251 343.6 3.15525C345.89 2.968 348.13 1.94745 349.9 0.280883C350.3 -0.0936276 350.94 -0.0936276 351.34 0.280883C351.54 0.468138 351.64 0.71157 351.64 0.955002C351.64 1.19843 351.54 1.44187 351.34 1.62912C347.72 5.01844 347.19 10.0275 350.15 12.7989C350.35 12.9862 350.45 13.2296 350.45 13.473C350.45 13.7164 350.35 13.9599 350.15 14.1471C349.75 14.5216 349.11 14.5216 348.71 14.1471C347.3 12.827 345.31 12.1997 343.08 12.3869C340.79 12.5742 338.56 13.5947 336.78 15.2613C336.58 15.4486 336.32 15.5422 336.06 15.5422ZM340.07 4.7282C340.72 6.75991 340.57 9.06315 339.64 11.2353C340.69 10.8421 341.79 10.5893 342.9 10.4957C344.2 10.3833 345.45 10.4957 346.6 10.8234C345.95 8.79163 346.11 6.48839 347.03 4.31623C345.98 4.70947 344.88 4.96226 343.77 5.05589C342.47 5.16824 341.22 5.05589 340.07 4.7282Z" fill="#269E45"/>
<path d="M341.58 30.2414C339.83 30.2414 337.51 29.7264 335.17 27.6947C332.98 25.7941 331.85 23.65 331.8 21.3093C331.73 17.6953 334.25 14.9333 335.34 13.9127C335.74 13.5382 336.38 13.5382 336.78 13.9127C337.18 14.2872 337.18 14.8864 336.78 15.261C336.07 15.9257 333.78 18.3039 333.84 21.2718C333.88 23.0695 334.79 24.7548 336.56 26.2903C338.31 27.8071 340.29 28.5093 342.27 28.2939C344.25 28.0879 346.14 27.0019 347.33 25.3821C349.14 22.9197 348.63 20.2232 346.02 18.5005C343.44 16.7964 341.08 18.2477 340.09 19.3806C339.24 20.3543 338.73 21.7774 339.65 22.592C340.06 22.9571 340.07 23.5564 339.68 23.9402C339.29 24.3241 338.65 24.3335 338.24 23.9683C336.65 22.5452 336.76 20.1577 338.51 18.1634C340.37 16.0474 343.88 14.7554 347.18 16.9369C350.68 19.2401 351.43 23.1631 349 26.4588C347.47 28.528 345.04 29.923 342.48 30.1852C342.2 30.2133 341.89 30.232 341.57 30.232L341.58 30.2414Z" fill="#269E45"/>
<path d="M340.39 22.7332C340.9 22.6396 341.22 22.3213 341.18 21.8531C341.14 21.2258 341.21 20.8419 341.66 20.3457C342.11 19.8495 343.37 19.2784 344.61 20.4393C345.31 21.0947 345.55 21.9842 345.32 22.8081C344.65 25.1675 341.74 25.7012 340.49 25.2986C337.72 24.3998 337.25 22.4243 337.25 22.4243C337.25 22.4243 337.73 21.8812 337.98 21.6752C337.99 21.5722 339.31 20.5798 339.2 21.0854C339.05 21.7595 339.6 22.8737 340.39 22.7332Z" fill="#269E45"/>
<path d="M329.04 18.576C328.98 18.576 328.93 18.576 328.87 18.576C326.37 18.5292 324.08 17.4712 322.05 15.4208C319.48 12.818 319.18 10.2619 319.38 8.56726C319.66 6.17039 321.15 3.89524 323.36 2.46274C326.89 0.187585 331.07 0.880429 333.53 4.16676C335.86 7.26583 334.48 10.5428 332.22 12.2843C330.09 13.9228 327.54 14.0257 326.02 12.5371C325.63 12.1532 325.65 11.554 326.05 11.1888C326.46 10.8237 327.1 10.8424 327.49 11.2169C328.37 12.0783 329.89 11.6102 330.92 10.805C332.12 9.87804 333.67 7.66843 331.86 5.25284C330.02 2.80916 327.14 2.33166 324.51 4.02632C322.78 5.14049 321.61 6.91941 321.4 8.76388C321.18 10.6271 321.92 12.4715 323.54 14.11C325.18 15.7672 326.98 16.6192 328.9 16.6567C332.11 16.7316 334.62 14.5594 335.32 13.904C335.72 13.5295 336.36 13.5295 336.76 13.904C337.16 14.2785 337.16 14.8778 336.76 15.2523C335.69 16.2541 332.81 18.5667 329.02 18.5667L329.04 18.576Z" fill="#269E45"/>
<path d="M327.35 10.5329C327.45 10.0554 327.79 9.7558 328.29 9.79325C328.96 9.8307 329.37 9.76516 329.9 9.34383C330.43 8.92251 331.04 7.7428 329.8 6.58182C329.1 5.92643 328.15 5.70172 327.27 5.91706C324.75 6.54437 324.18 9.26893 324.61 10.4393C325.57 13.0328 327.68 13.4728 327.68 13.4728C327.68 13.4728 328.26 13.0234 328.48 12.7893C328.59 12.78 329.65 11.5441 329.11 11.6471C328.39 11.7875 327.2 11.2726 327.35 10.5329Z" fill="#269E45"/>
<path d="M7.02 788.926C6.76 788.926 6.5 788.832 6.3 788.645C6.1 788.458 6 788.214 6 787.971C6 787.727 6.1 787.484 6.3 787.297C9.92 783.907 10.45 778.898 7.49 776.127C7.29 775.94 7.19 775.696 7.19 775.453C7.19 775.209 7.29 774.966 7.49 774.779C7.89 774.404 8.53 774.404 8.93 774.779C11.89 777.55 17.24 777.054 20.86 773.665C21.26 773.29 21.9 773.29 22.3 773.665C22.5 773.852 22.6 774.095 22.6 774.339C22.6 774.582 22.5 774.826 22.3 775.013C20.52 776.679 19.44 778.767 19.23 780.911C19.03 782.99 19.7 784.863 21.11 786.183C21.31 786.37 21.41 786.613 21.41 786.857C21.41 787.1 21.31 787.344 21.11 787.531C20.71 787.905 20.07 787.905 19.67 787.531C18.26 786.211 16.26 785.593 14.04 785.771C11.75 785.958 9.51 786.979 7.74 788.645C7.54 788.832 7.28 788.926 7.02 788.926ZM11.03 778.103C11.68 780.134 11.53 782.447 10.6 784.619C11.65 784.226 12.75 783.973 13.86 783.879C15.16 783.767 16.41 783.879 17.55 784.207C17.21 783.13 17.08 781.969 17.2 780.752C17.3 779.713 17.57 778.683 17.99 777.7C15.67 778.571 13.21 778.711 11.03 778.103Z" fill="#269E45"/>
<path d="M21.58 775.303C21.32 775.303 21.06 775.209 20.86 775.022C20.46 774.647 20.46 774.048 20.86 773.674C21.57 773.009 23.86 770.631 23.8 767.663C23.76 765.865 22.85 764.17 21.08 762.644C19.33 761.127 17.36 760.435 15.37 760.641C13.39 760.847 11.5 761.933 10.31 763.552C8.50004 766.015 9.01004 768.711 11.62 770.434C14.2 772.138 16.56 770.687 17.55 769.554C18.4 768.58 18.91 767.157 17.99 766.343C17.58 765.977 17.57 765.378 17.96 764.994C18.35 764.61 18.99 764.601 19.4 764.966C20.99 766.389 20.88 768.777 19.13 770.771C17.27 772.887 13.76 774.179 10.46 771.998C6.96004 769.694 6.21004 765.771 8.64004 762.476C10.17 760.407 12.6 759.011 15.16 758.749C16.96 758.562 19.7 758.843 22.48 761.249C24.67 763.15 25.8 765.294 25.85 767.635C25.92 771.249 23.4 774.011 22.31 775.031C22.11 775.218 21.85 775.312 21.59 775.312L21.58 775.303Z" fill="#269E45"/>
<path d="M17.25 766.192C16.74 766.286 16.42 766.604 16.46 767.073C16.5 767.7 16.43 768.084 15.98 768.58C15.52 769.076 14.27 769.647 13.03 768.486C12.33 767.831 12.09 766.941 12.32 766.117C12.99 763.758 15.9 763.224 17.15 763.627C19.92 764.526 20.39 766.501 20.39 766.501C20.39 766.501 19.91 767.044 19.66 767.25C19.65 767.353 18.33 768.346 18.44 767.84C18.59 767.166 18.04 766.052 17.25 766.192Z" fill="#269E45"/>
<path d="M29.9501 787.801C27.7201 787.801 25.5901 786.762 24.0901 784.777C21.7601 781.678 23.1401 778.401 25.4001 776.66C27.5301 775.021 30.0801 774.918 31.6001 776.407C31.9901 776.791 31.9701 777.39 31.5701 777.755C31.1601 778.12 30.5201 778.101 30.1301 777.727C29.2501 776.866 27.7401 777.334 26.7001 778.139C25.5001 779.066 23.9501 781.275 25.7601 783.691C27.5901 786.135 30.4801 786.612 33.1101 784.917C34.8401 783.803 36.0101 782.024 36.2201 780.18C36.4401 778.317 35.7001 776.472 34.0801 774.834C32.4401 773.177 30.6401 772.325 28.7201 772.287C25.5901 772.231 23.0001 774.384 22.3001 775.04C21.9001 775.414 21.2601 775.414 20.8601 775.04C20.4601 774.665 20.4601 774.066 20.8601 773.692C21.9501 772.671 24.8501 770.293 28.7601 770.377C31.2601 770.424 33.5501 771.482 35.5801 773.532C38.1501 776.135 38.4501 778.691 38.2501 780.386C37.9701 782.783 36.4801 785.058 34.2701 786.49C32.8901 787.389 31.4001 787.82 29.9601 787.82L29.9501 787.801Z" fill="#269E45"/>
<path d="M30.28 778.402C30.18 778.879 29.84 779.179 29.34 779.142C28.67 779.104 28.26 779.17 27.73 779.591C27.2 780.012 26.59 781.192 27.83 782.353C28.53 783.008 29.48 783.233 30.36 783.018C32.88 782.39 33.45 779.666 33.02 778.495C32.06 775.902 29.95 775.462 29.95 775.462C29.95 775.462 29.37 775.911 29.15 776.145C29.04 776.155 27.98 777.391 28.52 777.288C29.24 777.147 30.43 777.662 30.28 778.402Z" fill="#269E45"/>
<path d="M350.61 788.924C350.35 788.924 350.09 788.83 349.89 788.643C348.11 786.977 345.88 785.956 343.59 785.769C341.37 785.581 339.37 786.209 337.96 787.529C337.56 787.903 336.92 787.903 336.52 787.529C336.32 787.342 336.22 787.098 336.22 786.855C336.22 786.611 336.32 786.368 336.52 786.181C339.48 783.409 338.95 778.4 335.33 775.011C335.13 774.824 335.03 774.58 335.03 774.337C335.03 774.093 335.13 773.85 335.33 773.663C335.73 773.288 336.37 773.288 336.77 773.663C338.54 775.329 340.78 776.34 343.07 776.537C345.29 776.724 347.29 776.097 348.7 774.777C349.1 774.402 349.74 774.402 350.14 774.777C350.34 774.964 350.44 775.207 350.44 775.451C350.44 775.694 350.34 775.938 350.14 776.125C347.18 778.896 347.71 783.906 351.33 787.295C351.53 787.482 351.63 787.726 351.63 787.969C351.63 788.212 351.53 788.456 351.33 788.643C351.13 788.83 350.87 788.924 350.61 788.924ZM342.82 783.831C343.13 783.831 343.45 783.84 343.76 783.868C344.87 783.962 345.97 784.214 347.02 784.608C346.09 782.436 345.94 780.132 346.59 778.101C345.44 778.428 344.19 778.541 342.89 778.428C341.78 778.335 340.68 778.082 339.63 777.689C340.56 779.861 340.71 782.164 340.06 784.196C340.93 783.952 341.85 783.821 342.82 783.821V783.831Z" fill="#269E45"/>
<path d="M336.06 775.301C335.8 775.301 335.54 775.208 335.34 775.02C334.25 774 331.73 771.238 331.8 767.624C331.85 765.283 332.98 763.139 335.17 761.238C337.95 758.832 340.68 758.551 342.49 758.739C345.04 759.001 347.48 760.396 349.01 762.465C351.44 765.77 350.69 769.684 347.19 771.987C343.88 774.168 340.37 772.876 338.52 770.76C336.77 768.766 336.66 766.379 338.25 764.955C338.66 764.59 339.3 764.609 339.69 764.984C340.08 765.358 340.06 765.967 339.66 766.332C338.74 767.156 339.24 768.579 340.1 769.543C341.09 770.667 343.45 772.118 346.03 770.423C348.64 768.701 349.15 766.004 347.34 763.542C346.15 761.922 344.25 760.826 342.28 760.63C340.29 760.424 338.32 761.117 336.57 762.634C334.8 764.169 333.89 765.854 333.85 767.652C333.79 770.62 336.09 773.007 336.79 773.663C337.19 774.037 337.19 774.637 336.79 775.011C336.59 775.198 336.33 775.292 336.07 775.292L336.06 775.301Z" fill="#269E45"/>
<path d="M340.39 766.191C340.9 766.285 341.22 766.603 341.18 767.072C341.14 767.699 341.21 768.083 341.66 768.579C342.11 769.075 343.37 769.646 344.61 768.485C345.31 767.83 345.55 766.94 345.32 766.117C344.65 763.757 341.74 763.223 340.49 763.626C337.72 764.525 337.25 766.5 337.25 766.5C337.25 766.5 337.73 767.043 337.98 767.249C337.99 767.352 339.31 768.345 339.2 767.839C339.05 767.165 339.6 766.051 340.39 766.191Z" fill="#269E45"/>
<path d="M327.68 787.801C326.24 787.801 324.75 787.37 323.37 786.471C321.16 785.048 319.67 782.764 319.39 780.367C319.19 778.672 319.49 776.107 322.06 773.513C324.09 771.463 326.38 770.405 328.88 770.358C332.72 770.283 335.69 772.652 336.78 773.673C337.18 774.047 337.18 774.646 336.78 775.021C336.38 775.395 335.74 775.395 335.34 775.021C334.63 774.356 332.04 772.203 328.92 772.268C327 772.306 325.2 773.158 323.56 774.815C321.94 776.453 321.2 778.307 321.42 780.161C321.64 782.015 322.8 783.784 324.53 784.899C327.16 786.593 330.04 786.116 331.88 783.672C333.7 781.256 332.15 779.047 330.94 778.12C329.9 777.324 328.38 776.856 327.51 777.708C327.12 778.092 326.48 778.101 326.07 777.736C325.66 777.371 325.65 776.772 326.04 776.388C327.56 774.899 330.11 775.002 332.24 776.641C334.5 778.382 335.88 781.668 333.55 784.758C332.05 786.743 329.92 787.782 327.69 787.782L327.68 787.801Z" fill="#269E45"/>
<path d="M327.35 778.4C327.45 778.877 327.79 779.177 328.29 779.14C328.96 779.102 329.37 779.168 329.9 779.589C330.43 780.01 331.04 781.19 329.8 782.351C329.1 783.006 328.15 783.231 327.27 783.016C324.75 782.388 324.18 779.664 324.61 778.493C325.57 775.9 327.68 775.46 327.68 775.46C327.68 775.46 328.26 775.909 328.48 776.143C328.59 776.153 329.65 777.389 329.11 777.286C328.39 777.145 327.2 777.66 327.35 778.4Z" fill="#269E45"/>
<path d="M315.16 73.9443L310.84 82.1461L301.17 83.4663L308.17 89.8517L306.52 98.868L315.16 94.608L323.81 98.868L322.16 89.8517L329.15 83.4663L319.49 82.1461L315.16 73.9443Z" fill="#269E45"/>
<path d="M323.81 99.8144C323.65 99.8144 323.48 99.777 323.34 99.7021L315.17 95.6761L307 99.7021C306.66 99.8706 306.24 99.8425 305.93 99.6271C305.62 99.4118 305.46 99.056 305.52 98.6909L307.08 90.1708L300.47 84.1411C300.19 83.8884 300.09 83.5045 300.21 83.1674C300.33 82.821 300.65 82.5682 301.03 82.5214L310.17 81.2761L314.26 73.5238C314.6 72.8684 315.74 72.8684 316.09 73.5238L320.18 81.2761L329.32 82.5214C329.7 82.5776 330.02 82.821 330.14 83.1674C330.26 83.5138 330.16 83.8884 329.88 84.1411L323.27 90.1708L324.83 98.6909C324.9 99.0467 324.74 99.4118 324.42 99.6271C324.24 99.7489 324.03 99.805 323.82 99.805L323.81 99.8144ZM315.16 93.6537C315.32 93.6537 315.49 93.6912 315.63 93.7661L322.45 97.1273L321.15 90.021C321.09 89.712 321.2 89.3937 321.44 89.1783L326.96 84.1411L319.34 83.1019C319.01 83.0551 318.72 82.8584 318.57 82.5776L315.16 76.1079L311.75 82.5776C311.6 82.8584 311.32 83.0551 310.98 83.1019L303.36 84.1411L308.88 89.1783C309.12 89.3937 309.23 89.712 309.17 90.021L307.87 97.1273L314.69 93.7661C314.84 93.6912 315 93.6537 315.16 93.6537Z" fill="#269E45"/>
<path d="M40.32 73.9453C42.81 73.9453 45.14 74.5913 47.14 75.7055C43.26 77.8777 40.65 81.8568 40.65 86.4071C40.65 90.9574 43.25 94.9273 47.14 97.1088C45.15 98.2229 42.81 98.869 40.32 98.869C32.97 98.869 27.01 93.2888 27.01 86.4071C27.01 79.5255 32.97 73.9453 40.32 73.9453Z" fill="#269E45"/>
<path d="M40.32 99.8149C32.42 99.8149 26 93.7947 26 86.4075C26 79.0203 32.43 73 40.32 73C42.91 73 45.45 73.6554 47.66 74.8913C47.97 75.0598 48.16 75.3781 48.16 75.7058C48.16 76.0335 47.97 76.3519 47.66 76.5204C43.97 78.5896 41.67 82.3721 41.67 86.3981C41.67 90.4241 43.97 94.2067 47.66 96.2758C47.97 96.4444 48.16 96.7627 48.16 97.0904C48.16 97.4181 47.97 97.7364 47.66 97.9049C45.45 99.1408 42.91 99.7962 40.32 99.7962V99.8149ZM40.32 74.9006C33.54 74.9006 28.03 80.0595 28.03 86.4075C28.03 92.7554 33.54 97.9143 40.32 97.9143C41.99 97.9143 43.64 97.596 45.16 96.9874C41.72 94.4688 39.64 90.5458 39.64 86.4075C39.64 82.2691 41.72 78.3555 45.16 75.8276C43.64 75.219 42 74.9006 40.33 74.9006H40.32Z" fill="#269E45"/>
<path d="M38.9999 689.606L43.3299 697.808L52.9899 699.128L45.9999 705.504L47.6499 714.521L38.9999 710.27L30.3599 714.521L32.0099 705.504L25.0099 699.128L34.6799 697.808L38.9999 689.606Z" fill="#269E45"/>
<path d="M47.6499 715.477C47.4899 715.477 47.3199 715.439 47.1799 715.364L39.0099 711.338L30.8399 715.364C30.4999 715.533 30.0799 715.505 29.7699 715.289C29.4599 715.074 29.2999 714.718 29.3599 714.353L30.9199 705.833L24.3099 699.803C24.0299 699.55 23.9299 699.167 24.0499 698.83C24.1699 698.483 24.4899 698.23 24.8699 698.183L34.0099 696.938L38.0999 689.186C38.4399 688.53 39.5799 688.53 39.9299 689.186L44.0199 696.938L53.1599 698.183C53.5399 698.24 53.8599 698.483 53.9799 698.83C54.0999 699.176 53.9999 699.55 53.7199 699.803L47.1099 705.833L48.6699 714.353C48.7399 714.709 48.5799 715.074 48.2599 715.289C48.0799 715.411 47.8699 715.467 47.6599 715.467L47.6499 715.477ZM38.9999 709.316C39.1599 709.316 39.3299 709.353 39.4699 709.428L46.2899 712.78L44.9899 705.674C44.9299 705.365 45.0399 705.046 45.2799 704.831L50.7999 699.794L43.1799 698.755C42.8499 698.708 42.5599 698.511 42.4099 698.23L38.9999 691.761L35.5899 698.23C35.4399 698.511 35.1599 698.708 34.8199 698.755L27.1999 699.794L32.7199 704.831C32.9599 705.046 33.0699 705.365 33.0099 705.674L31.7099 712.78L38.5299 709.428C38.6799 709.353 38.8399 709.316 38.9999 709.316Z" fill="#269E45"/>
<path d="M317.09 694.344C319.77 694.344 322.16 695.551 323.67 697.405C323.96 695.261 323.2 692.986 321.43 690.748C319.89 688.81 318.14 687.574 318.07 687.528C317.77 687.322 317.37 687.284 317.03 687.425C316.69 687.574 316.47 687.883 316.44 688.239C316.44 688.286 316.19 691.797 313.52 695.111C314.6 694.625 315.81 694.353 317.09 694.353V694.344Z" fill="#269E45"/>
<path d="M311.26 696.6C313.16 694.821 315.75 694.1 318.23 694.418C316.81 692.705 314.56 691.6 311.62 691.188C309.07 690.833 306.9 691.123 306.81 691.132C306.44 691.179 306.13 691.422 306 691.75C305.87 692.078 305.95 692.452 306.2 692.714C306.23 692.752 308.71 695.402 309.32 699.502C309.72 698.444 310.37 697.443 311.27 696.6H311.26Z" fill="#269E45"/>
<path d="M308.84 702.068C308.84 699.558 310.13 697.321 312.11 695.907C309.82 695.635 307.39 696.347 305 698.004C302.93 699.446 301.61 701.085 301.56 701.15C301.34 701.431 301.3 701.805 301.45 702.124C301.61 702.442 301.94 702.648 302.32 702.676C302.37 702.676 306.12 702.91 309.66 705.41C309.14 704.399 308.85 703.266 308.85 702.068H308.84Z" fill="#269E45"/>
<path d="M311.26 707.527C309.36 705.748 308.59 703.323 308.93 701.001C307.1 702.33 305.92 704.437 305.48 707.19C305.1 709.577 305.41 711.609 305.42 711.693C305.47 712.04 305.73 712.33 306.08 712.452C306.43 712.573 306.83 712.498 307.11 712.264C307.15 712.236 309.98 709.914 314.36 709.343C313.23 708.969 312.16 708.36 311.26 707.517V707.527Z" fill="#269E45"/>
<path d="M317.09 709.792C314.41 709.792 312.02 708.584 310.51 706.73C310.22 708.875 310.98 711.15 312.75 713.387C314.29 715.325 316.04 716.561 316.11 716.608C316.41 716.814 316.81 716.852 317.15 716.711C317.49 716.561 317.71 716.252 317.74 715.897C317.74 715.85 317.99 712.339 320.66 709.024C319.58 709.511 318.37 709.783 317.09 709.783V709.792Z" fill="#269E45"/>
<path d="M322.93 707.526C321.03 709.304 318.44 710.025 315.96 709.707C317.38 711.42 319.63 712.525 322.57 712.937C325.12 713.293 327.29 713.003 327.38 712.993C327.75 712.947 328.06 712.703 328.19 712.375C328.32 712.048 328.24 711.673 327.99 711.411C327.96 711.374 325.48 708.724 324.87 704.623C324.47 705.681 323.82 706.683 322.92 707.526H322.93Z" fill="#269E45"/>
<path d="M325.34 702.068C325.34 704.577 324.05 706.815 322.07 708.229C324.36 708.5 326.79 707.789 329.18 706.132C331.25 704.69 332.57 703.051 332.62 702.986C332.84 702.705 332.88 702.33 332.73 702.012C332.57 701.694 332.24 701.488 331.86 701.459C331.81 701.459 328.06 701.225 324.52 698.726C325.04 699.737 325.33 700.87 325.33 702.068H325.34Z" fill="#269E45"/>
<path d="M322.93 696.6C324.83 698.379 325.6 700.804 325.26 703.126C327.09 701.796 328.27 699.689 328.71 696.937C329.09 694.549 328.78 692.518 328.77 692.433C328.72 692.087 328.46 691.797 328.11 691.675C327.76 691.553 327.36 691.628 327.08 691.862C327.04 691.89 324.21 694.212 319.83 694.783C320.96 695.158 322.03 695.766 322.93 696.609V696.6Z" fill="#269E45"/>
<path d="M317.09 707.882C320.52 707.882 323.3 705.279 323.3 702.068C323.3 698.857 320.52 696.254 317.09 696.254C313.66 696.254 310.88 698.857 310.88 702.068C310.88 705.279 313.66 707.882 317.09 707.882Z" fill="#269E45"/>
</svg>
